<?xml version="1.0" encoding="utf-8" standalone="no"?><!DOCTYPE svg PUBLIC "-//W3C//DTD SVG 1.1//EN" "http://www.w3.org/Graphics/SVG/1.1/DTD/svg11.dtd">
<svg preserveAspectRatio="xMinYMin meet" width="100%" height="100%" viewBox="0 0 560.000 420.000"  version="1.1" xmlns="http://www.w3.org/2000/svg" xmlns:xlink="http://www.w3.org/1999/xlink">
  <desc>Matlab Figure Converted by PLOT2SVG written by Juerg Schwizer</desc>
  <g id="topgroup">
  <rect x="0" y="0" width="560.000" height="420.000" fill="#ffffff" stroke="none" />
  <g id ="ID000000">
  <clipPath id="ID000001">
    <rect x="114.000" y="31.500" width="392.800" height="313.500"/>
  </clipPath>
      <polygon fill="#ffffff" fill-opacity="1.00" stroke="none" stroke-width="0.5pt" stroke-opacity="1.00" stroke-dasharray="none" points="114.000,345.000 506.800,345.000 506.800,31.500 114.000,31.500 "/>
      <polygon fill="#ffffff" fill-opacity="1.00" stroke="none" stroke-width="0.5pt" stroke-opacity="1.00" stroke-dasharray="none" points="114.000,31.500 506.800,31.500 506.800,31.500 114.000,31.500 "/>
      <polygon fill="#ffffff" fill-opacity="1.00" stroke="none" stroke-width="0.5pt" stroke-opacity="1.00" stroke-dasharray="none" points="114.000,345.000 114.000,345.000 114.000,31.500 114.000,31.500 "/>
    <g>
<g id="ID000002" clip-path="url(#ID000001)" >
<g id="ID000003" clip-path="url(#ID000001)" >
      <polygon fill="#00008f" fill-opacity="1.00" stroke="#000000" stroke-width="0.5pt" stroke-opacity="1.00" stroke-dasharray="none" points="129.712,188.250 129.712,109.483 150.661,109.483 150.661,188.250 "/>
      <polygon fill="#00008f" fill-opacity="1.00" stroke="#000000" stroke-width="0.5pt" stroke-opacity="1.00" stroke-dasharray="none" points="155.899,188.250 155.899,67.297 176.848,67.297 176.848,188.250 "/>
      <polygon fill="#00008f" fill-opacity="1.00" stroke="#000000" stroke-width="0.5pt" stroke-opacity="1.00" stroke-dasharray="none" points="182.085,188.250 182.085,86.677 203.035,86.677 203.035,188.250 "/>
      <polygon fill="#00008f" fill-opacity="1.00" stroke="#000000" stroke-width="0.5pt" stroke-opacity="1.00" stroke-dasharray="none" points="208.272,188.250 208.272,91.960 229.221,91.960 229.221,188.250 "/>
      <polygon fill="#00008f" fill-opacity="1.00" stroke="#000000" stroke-width="0.5pt" stroke-opacity="1.00" stroke-dasharray="none" points="234.459,188.250 234.459,243.200 255.408,243.200 255.408,188.250 "/>
      <polygon fill="#00008f" fill-opacity="1.00" stroke="#000000" stroke-width="0.5pt" stroke-opacity="1.00" stroke-dasharray="none" points="260.645,188.250 260.645,200.713 281.595,200.713 281.595,188.250 "/>
      <polygon fill="#00008f" fill-opacity="1.00" stroke="#000000" stroke-width="0.5pt" stroke-opacity="1.00" stroke-dasharray="none" points="286.832,188.250 286.832,215.123 307.781,215.123 307.781,188.250 "/>
      <polygon fill="#00008f" fill-opacity="1.00" stroke="#000000" stroke-width="0.5pt" stroke-opacity="1.00" stroke-dasharray="none" points="313.019,188.250 313.019,206.104 333.968,206.104 333.968,188.250 "/>
      <polygon fill="#00008f" fill-opacity="1.00" stroke="#000000" stroke-width="0.5pt" stroke-opacity="1.00" stroke-dasharray="none" points="339.205,188.250 339.205,246.894 360.155,246.894 360.155,188.250 "/>
      <polygon fill="#00008f" fill-opacity="1.00" stroke="#000000" stroke-width="0.5pt" stroke-opacity="1.00" stroke-dasharray="none" points="365.392,188.250 365.392,254.861 386.341,254.861 386.341,188.250 "/>
      <polygon fill="#00008f" fill-opacity="1.00" stroke="#000000" stroke-width="0.5pt" stroke-opacity="1.00" stroke-dasharray="none" points="391.579,188.250 391.579,256.400 412.528,256.400 412.528,188.250 "/>
      <polygon fill="#00008f" fill-opacity="1.00" stroke="#000000" stroke-width="0.5pt" stroke-opacity="1.00" stroke-dasharray="none" points="417.765,188.250 417.765,252.914 438.715,252.914 438.715,188.250 "/>
</g>
</g><g id="ID000004" clip-path="url(#ID000001)" >
      <polyline fill="none" stroke="#000000" stroke-width="0.5pt" stroke-dasharray="none" points="114.000,188.250 506.800,188.250 "/>
<g>
</g>
</g>
<g id="ID000005" clip-path="url(#ID000001)" >
<g id="ID000006" clip-path="url(#ID000001)" >
      <polyline fill="none" stroke="#000000" stroke-width="3.0pt" stroke-dasharray="none" points="140.187,91.845 140.187,127.121 "/>
      <polyline fill="none" stroke="#000000" stroke-width="3.0pt" stroke-dasharray="none" points="137.306,91.845 143.067,91.845 "/>
      <polyline fill="none" stroke="#000000" stroke-width="3.0pt" stroke-dasharray="none" points="137.306,127.121 143.067,127.121 "/>
      <polyline fill="none" stroke="#000000" stroke-width="3.0pt" stroke-dasharray="none" points="166.373,48.784 166.373,85.811 "/>
      <polyline fill="none" stroke="#000000" stroke-width="3.0pt" stroke-dasharray="none" points="163.493,48.784 169.254,48.784 "/>
      <polyline fill="none" stroke="#000000" stroke-width="3.0pt" stroke-dasharray="none" points="163.493,85.811 169.254,85.811 "/>
      <polyline fill="none" stroke="#000000" stroke-width="3.0pt" stroke-dasharray="none" points="192.560,68.193 192.560,105.160 "/>
      <polyline fill="none" stroke="#000000" stroke-width="3.0pt" stroke-dasharray="none" points="189.679,68.193 195.441,68.193 "/>
      <polyline fill="none" stroke="#000000" stroke-width="3.0pt" stroke-dasharray="none" points="189.679,105.160 195.441,105.160 "/>
      <polyline fill="none" stroke="#000000" stroke-width="3.0pt" stroke-dasharray="none" points="218.747,74.219 218.747,109.702 "/>
      <polyline fill="none" stroke="#000000" stroke-width="3.0pt" stroke-dasharray="none" points="215.866,74.219 221.627,74.219 "/>
      <polyline fill="none" stroke="#000000" stroke-width="3.0pt" stroke-dasharray="none" points="215.866,109.702 221.627,109.702 "/>
      <polyline fill="none" stroke="#000000" stroke-width="3.0pt" stroke-dasharray="none" points="244.933,225.542 244.933,260.858 "/>
      <polyline fill="none" stroke="#000000" stroke-width="3.0pt" stroke-dasharray="none" points="242.053,225.542 247.814,225.542 "/>
      <polyline fill="none" stroke="#000000" stroke-width="3.0pt" stroke-dasharray="none" points="242.053,260.858 247.814,260.858 "/>
      <polyline fill="none" stroke="#000000" stroke-width="3.0pt" stroke-dasharray="none" points="271.120,181.696 271.120,219.729 "/>
      <polyline fill="none" stroke="#000000" stroke-width="3.0pt" stroke-dasharray="none" points="268.239,181.696 274.001,181.696 "/>
      <polyline fill="none" stroke="#000000" stroke-width="3.0pt" stroke-dasharray="none" points="268.239,219.729 274.001,219.729 "/>
      <polyline fill="none" stroke="#000000" stroke-width="3.0pt" stroke-dasharray="none" points="297.307,196.899 297.307,233.346 "/>
      <polyline fill="none" stroke="#000000" stroke-width="3.0pt" stroke-dasharray="none" points="294.426,196.899 300.187,196.899 "/>
      <polyline fill="none" stroke="#000000" stroke-width="3.0pt" stroke-dasharray="none" points="294.426,233.346 300.187,233.346 "/>
      <polyline fill="none" stroke="#000000" stroke-width="3.0pt" stroke-dasharray="none" points="323.493,188.374 323.493,223.834 "/>
      <polyline fill="none" stroke="#000000" stroke-width="3.0pt" stroke-dasharray="none" points="320.613,188.374 326.374,188.374 "/>
      <polyline fill="none" stroke="#000000" stroke-width="3.0pt" stroke-dasharray="none" points="320.613,223.834 326.374,223.834 "/>
      <polyline fill="none" stroke="#000000" stroke-width="3.0pt" stroke-dasharray="none" points="349.680,229.286 349.680,264.501 "/>
      <polyline fill="none" stroke="#000000" stroke-width="3.0pt" stroke-dasharray="none" points="346.799,229.286 352.561,229.286 "/>
      <polyline fill="none" stroke="#000000" stroke-width="3.0pt" stroke-dasharray="none" points="346.799,264.501 352.561,264.501 "/>
      <polyline fill="none" stroke="#000000" stroke-width="3.0pt" stroke-dasharray="none" points="375.867,236.982 375.867,272.741 "/>
      <polyline fill="none" stroke="#000000" stroke-width="3.0pt" stroke-dasharray="none" points="372.986,236.982 378.747,236.982 "/>
      <polyline fill="none" stroke="#000000" stroke-width="3.0pt" stroke-dasharray="none" points="372.986,272.741 378.747,272.741 "/>
      <polyline fill="none" stroke="#000000" stroke-width="3.0pt" stroke-dasharray="none" points="402.053,238.789 402.053,274.012 "/>
      <polyline fill="none" stroke="#000000" stroke-width="3.0pt" stroke-dasharray="none" points="399.173,238.789 404.934,238.789 "/>
      <polyline fill="none" stroke="#000000" stroke-width="3.0pt" stroke-dasharray="none" points="399.173,274.012 404.934,274.012 "/>
      <polyline fill="none" stroke="#000000" stroke-width="3.0pt" stroke-dasharray="none" points="428.240,235.318 428.240,270.510 "/>
      <polyline fill="none" stroke="#000000" stroke-width="3.0pt" stroke-dasharray="none" points="425.359,235.318 431.121,235.318 "/>
      <polyline fill="none" stroke="#000000" stroke-width="3.0pt" stroke-dasharray="none" points="425.359,270.510 431.121,270.510 "/>
<g>
</g>
</g>
<g id="ID000007" clip-path="url(#ID000001)" >
<g>
</g>
</g>
</g><g id="ID000008" >
  <g transform="translate(309.401,417.276)">
    <g transform="rotate(-0.0)">
      <text x="0.000" y="0.000" font-family="Helvetica" text-anchor="middle" font-size="26pt" fill="#000000" >weight index</text>
    </g>
  </g>
</g>
<g id="ID000009" >
  <g transform="translate(41.034,189.252)">
    <g transform="rotate(-90.0)">
      <text x="0.000" y="0.000" font-family="Helvetica" text-anchor="middle" font-size="26pt" fill="#000000" >weights</text>
    </g>
  </g>
</g>
<g id="ID000010" >
</g>
<g id="ID000011" >
</g>
<g id="ID000012" >
</g>
    </g>
    <g>
      <polyline fill="none" stroke="#000000" stroke-width="0.5pt" stroke-dasharray="none" points="140.187,345.000 140.187,341.072 "/>
      <polyline fill="none" stroke="#000000" stroke-width="0.5pt" stroke-dasharray="none" points="271.120,345.000 271.120,341.072 "/>
      <polyline fill="none" stroke="#000000" stroke-width="0.5pt" stroke-dasharray="none" points="428.240,345.000 428.240,341.072 "/>
      <polyline fill="none" stroke="#000000" stroke-width="0.5pt" stroke-dasharray="none" points="114.000,345.000 506.800,345.000 "/>
  <g transform="translate(140.187,381.950)">
    <g transform="rotate(-0.0)">
      <text x="0.000" y="0.000" font-family="Helvetica" text-anchor="middle" font-size="26pt" fill="#000000" >1</text>
    </g>
  </g>
  <g transform="translate(271.120,381.950)">
    <g transform="rotate(-0.0)">
      <text x="0.000" y="0.000" font-family="Helvetica" text-anchor="middle" font-size="26pt" fill="#000000" >6</text>
    </g>
  </g>
  <g transform="translate(428.240,381.950)">
    <g transform="rotate(-0.0)">
      <text x="0.000" y="0.000" font-family="Helvetica" text-anchor="middle" font-size="26pt" fill="#000000" >12</text>
    </g>
  </g>
      <polyline fill="none" stroke="#000000" stroke-width="0.5pt" stroke-dasharray="none" points="114.000,345.000 117.928,345.000 "/>
      <polyline fill="none" stroke="#000000" stroke-width="0.5pt" stroke-dasharray="none" points="114.000,266.625 117.928,266.625 "/>
      <polyline fill="none" stroke="#000000" stroke-width="0.5pt" stroke-dasharray="none" points="114.000,188.250 117.928,188.250 "/>
      <polyline fill="none" stroke="#000000" stroke-width="0.5pt" stroke-dasharray="none" points="114.000,109.875 117.928,109.875 "/>
      <polyline fill="none" stroke="#000000" stroke-width="0.5pt" stroke-dasharray="none" points="114.000,31.500 117.928,31.500 "/>
      <polyline fill="none" stroke="#000000" stroke-width="0.5pt" stroke-dasharray="none" points="114.000,345.000 114.000,31.500 "/>
  <g transform="translate(106.144,356.700)">
    <g transform="rotate(-0.0)">
      <text x="0.000" y="0.000" font-family="Helvetica" text-anchor="end" font-size="26pt" fill="#000000" >-1</text>
    </g>
  </g>
  <g transform="translate(106.144,278.325)">
    <g transform="rotate(-0.0)">
      <text x="0.000" y="0.000" font-family="Helvetica" text-anchor="end" font-size="26pt" fill="#000000" >-0.5</text>
    </g>
  </g>
  <g transform="translate(106.144,199.950)">
    <g transform="rotate(-0.0)">
      <text x="0.000" y="0.000" font-family="Helvetica" text-anchor="end" font-size="26pt" fill="#000000" >0</text>
    </g>
  </g>
  <g transform="translate(106.144,121.575)">
    <g transform="rotate(-0.0)">
      <text x="0.000" y="0.000" font-family="Helvetica" text-anchor="end" font-size="26pt" fill="#000000" >0.5</text>
    </g>
  </g>
  <g transform="translate(106.144,43.200)">
    <g transform="rotate(-0.0)">
      <text x="0.000" y="0.000" font-family="Helvetica" text-anchor="end" font-size="26pt" fill="#000000" >1</text>
    </g>
  </g>
      <polyline fill="none" stroke="#000000" stroke-width="0.5pt" stroke-dasharray="none" points="114.000,345.000 114.000,341.865 "/>
      <polyline fill="none" stroke="#000000" stroke-width="0.5pt" stroke-dasharray="none" points="114.000,345.000 114.000,341.865 "/>
      <polyline fill="none" stroke="#000000" stroke-width="0.5pt" stroke-dasharray="none" points="114.000,345.000 114.000,341.865 "/>
      <polyline fill="none" stroke="#000000" stroke-width="0.5pt" stroke-dasharray="none" points="114.000,345.000 114.000,345.000 "/>
    </g>
  </g>
  <g id ="ID000013">
  <clipPath id="ID000014">
    <rect x="285.750" y="38.750" width="216.500" height="27.000"/>
  </clipPath>
      <polygon fill="#ffffff" fill-opacity="1.00" stroke="none" stroke-width="0.5pt" stroke-opacity="1.00" stroke-dasharray="none" points="285.750,65.750 502.250,65.750 502.250,38.750 285.750,38.750 "/>
      <polygon fill="#ffffff" fill-opacity="1.00" stroke="none" stroke-width="0.5pt" stroke-opacity="1.00" stroke-dasharray="none" points="285.750,38.750 502.250,38.750 502.250,38.750 285.750,38.750 "/>
      <polygon fill="#ffffff" fill-opacity="1.00" stroke="none" stroke-width="0.5pt" stroke-opacity="1.00" stroke-dasharray="none" points="285.750,65.750 285.750,65.750 285.750,38.750 285.750,38.750 "/>
    <g>
<g id="ID000015" >
  <g transform="translate(335.365,58.650)">
    <g transform="rotate(-0.0)">
      <text x="0.000" y="0.000" font-family="Helvetica" text-anchor="start" font-size="12pt" fill="#000000" >LDPM Prior dim 3 h dim 4</text>
    </g>
  </g>
</g>
<g id="ID000016" clip-path="url(#ID000014)" >
<g id="ID000017" clip-path="url(#ID000014)" >
      <polygon fill="#00008f" fill-opacity="1.00" stroke="#000000" stroke-width="0.5pt" stroke-opacity="1.00" stroke-dasharray="none" points="293.250,60.738 293.250,43.762 330.750,43.762 330.750,60.738 293.250,60.738 "/>
</g>
</g><g id="ID000018" >
</g>
<g id="ID000019" >
</g>
<g id="ID000020" >
</g>
    </g>
    <g>
      <polyline fill="none" stroke="#000000" stroke-width="0.5pt" stroke-dasharray="none" points="285.750,65.750 502.250,65.750 "/>
      <polyline fill="none" stroke="#000000" stroke-width="0.5pt" stroke-dasharray="none" points="285.750,38.750 502.250,38.750 "/>
      <polyline fill="none" stroke="#000000" stroke-width="0.5pt" stroke-dasharray="none" points="285.750,65.750 285.750,38.750 "/>
      <polyline fill="none" stroke="#000000" stroke-width="0.5pt" stroke-dasharray="none" points="502.250,65.750 502.250,38.750 "/>
      <polyline fill="none" stroke="#000000" stroke-width="0.5pt" stroke-dasharray="none" points="285.750,65.750 285.750,65.480 "/>
      <polyline fill="none" stroke="#000000" stroke-width="0.5pt" stroke-dasharray="none" points="285.750,65.750 285.750,65.750 "/>
    </g>
  </g>
  </g>
</svg>
