<?xml version="1.0" encoding="utf-8" standalone="no"?><!DOCTYPE svg PUBLIC "-//W3C//DTD SVG 1.1//EN" "http://www.w3.org/Graphics/SVG/1.1/DTD/svg11.dtd">
<svg preserveAspectRatio="xMinYMin meet" width="100%" height="100%" viewBox="0 0 560.000 420.000"  version="1.1" xmlns="http://www.w3.org/2000/svg" xmlns:xlink="http://www.w3.org/1999/xlink">
  <desc>Matlab Figure Converted by PLOT2SVG written by Juerg Schwizer</desc>
  <g id="topgroup">
  <rect x="0" y="0" width="560.000" height="420.000" fill="#ffffff" stroke="none" />
  <g id ="ID000000">
  <clipPath id="ID000001">
    <rect x="118.000" y="31.500" width="388.800" height="309.500"/>
  </clipPath>
      <polygon fill="#ffffff" fill-opacity="1.00" stroke="none" stroke-width="0.5pt" stroke-opacity="1.00" stroke-dasharray="none" points="118.000,341.000 506.800,341.000 506.800,31.500 118.000,31.500 "/>
      <polygon fill="#ffffff" fill-opacity="1.00" stroke="none" stroke-width="0.5pt" stroke-opacity="1.00" stroke-dasharray="none" points="118.000,31.500 506.800,31.500 506.800,31.500 118.000,31.500 "/>
      <polygon fill="#ffffff" fill-opacity="1.00" stroke="none" stroke-width="0.5pt" stroke-opacity="1.00" stroke-dasharray="none" points="118.000,341.000 118.000,341.000 118.000,31.500 118.000,31.500 "/>
    <g>
<g id="ID000002" clip-path="url(#ID000001)" >
<g id="ID000003" clip-path="url(#ID000001)" >
      <polyline fill="none" stroke="#000000" stroke-width="3.0pt" stroke-dasharray="none" points="143.920,151.619 143.920,243.123 "/>
      <polyline fill="none" stroke="#000000" stroke-width="3.0pt" stroke-dasharray="none" points="141.069,151.619 146.771,151.619 "/>
      <polyline fill="none" stroke="#000000" stroke-width="3.0pt" stroke-dasharray="none" points="141.069,243.123 146.771,243.123 "/>
      <polyline fill="none" stroke="#000000" stroke-width="3.0pt" stroke-dasharray="none" points="169.840,151.619 169.840,243.123 "/>
      <polyline fill="none" stroke="#000000" stroke-width="3.0pt" stroke-dasharray="none" points="166.989,151.619 172.691,151.619 "/>
      <polyline fill="none" stroke="#000000" stroke-width="3.0pt" stroke-dasharray="none" points="166.989,243.123 172.691,243.123 "/>
      <polyline fill="none" stroke="#000000" stroke-width="3.0pt" stroke-dasharray="none" points="195.760,151.619 195.760,243.123 "/>
      <polyline fill="none" stroke="#000000" stroke-width="3.0pt" stroke-dasharray="none" points="192.909,151.619 198.611,151.619 "/>
      <polyline fill="none" stroke="#000000" stroke-width="3.0pt" stroke-dasharray="none" points="192.909,243.123 198.611,243.123 "/>
      <polyline fill="none" stroke="#000000" stroke-width="3.0pt" stroke-dasharray="none" points="221.680,148.169 221.680,295.763 "/>
      <polyline fill="none" stroke="#000000" stroke-width="3.0pt" stroke-dasharray="none" points="218.829,148.169 224.531,148.169 "/>
      <polyline fill="none" stroke="#000000" stroke-width="3.0pt" stroke-dasharray="none" points="218.829,295.763 224.531,295.763 "/>
      <polyline fill="none" stroke="#000000" stroke-width="3.0pt" stroke-dasharray="none" points="247.600,115.987 247.600,284.294 "/>
      <polyline fill="none" stroke="#000000" stroke-width="3.0pt" stroke-dasharray="none" points="244.749,115.987 250.451,115.987 "/>
      <polyline fill="none" stroke="#000000" stroke-width="3.0pt" stroke-dasharray="none" points="244.749,284.294 250.451,284.294 "/>
      <polyline fill="none" stroke="#000000" stroke-width="3.0pt" stroke-dasharray="none" points="273.520,114.788 273.520,279.776 "/>
      <polyline fill="none" stroke="#000000" stroke-width="3.0pt" stroke-dasharray="none" points="270.669,114.788 276.371,114.788 "/>
      <polyline fill="none" stroke="#000000" stroke-width="3.0pt" stroke-dasharray="none" points="270.669,279.776 276.371,279.776 "/>
      <polyline fill="none" stroke="#000000" stroke-width="3.0pt" stroke-dasharray="none" points="299.440,118.428 299.440,288.881 "/>
      <polyline fill="none" stroke="#000000" stroke-width="3.0pt" stroke-dasharray="none" points="296.589,118.428 302.291,118.428 "/>
      <polyline fill="none" stroke="#000000" stroke-width="3.0pt" stroke-dasharray="none" points="296.589,288.881 302.291,288.881 "/>
      <polyline fill="none" stroke="#000000" stroke-width="3.0pt" stroke-dasharray="none" points="325.360,124.704 325.360,286.468 "/>
      <polyline fill="none" stroke="#000000" stroke-width="3.0pt" stroke-dasharray="none" points="322.509,124.704 328.211,124.704 "/>
      <polyline fill="none" stroke="#000000" stroke-width="3.0pt" stroke-dasharray="none" points="322.509,286.468 328.211,286.468 "/>
      <polyline fill="none" stroke="#000000" stroke-width="3.0pt" stroke-dasharray="none" points="351.280,120.152 351.280,289.097 "/>
      <polyline fill="none" stroke="#000000" stroke-width="3.0pt" stroke-dasharray="none" points="348.429,120.152 354.131,120.152 "/>
      <polyline fill="none" stroke="#000000" stroke-width="3.0pt" stroke-dasharray="none" points="348.429,289.097 354.131,289.097 "/>
      <polyline fill="none" stroke="#000000" stroke-width="3.0pt" stroke-dasharray="none" points="377.200,116.200 377.200,286.140 "/>
      <polyline fill="none" stroke="#000000" stroke-width="3.0pt" stroke-dasharray="none" points="374.349,116.200 380.051,116.200 "/>
      <polyline fill="none" stroke="#000000" stroke-width="3.0pt" stroke-dasharray="none" points="374.349,286.140 380.051,286.140 "/>
      <polyline fill="none" stroke="#000000" stroke-width="3.0pt" stroke-dasharray="none" points="403.120,118.924 403.120,281.953 "/>
      <polyline fill="none" stroke="#000000" stroke-width="3.0pt" stroke-dasharray="none" points="400.269,118.924 405.971,118.924 "/>
      <polyline fill="none" stroke="#000000" stroke-width="3.0pt" stroke-dasharray="none" points="400.269,281.953 405.971,281.953 "/>
      <polyline fill="none" stroke="#000000" stroke-width="3.0pt" stroke-dasharray="none" points="429.040,120.200 429.040,282.309 "/>
      <polyline fill="none" stroke="#000000" stroke-width="3.0pt" stroke-dasharray="none" points="426.189,120.200 431.891,120.200 "/>
      <polyline fill="none" stroke="#000000" stroke-width="3.0pt" stroke-dasharray="none" points="426.189,282.309 431.891,282.309 "/>
<g>
</g>
</g>
<g id="ID000004" clip-path="url(#ID000001)" >
      <polyline fill="none" stroke="#000000" stroke-width="3.0pt" stroke-dasharray="none" points="143.920,197.371 169.840,197.371 195.760,197.371 221.680,221.966 247.600,200.141 273.520,197.282 299.440,203.655 325.360,205.586 351.280,204.624 377.200,201.170 403.120,200.439 429.040,201.254 "/>
<g>
</g>
</g>
</g><g id="ID000005" >
  <g transform="translate(311.401,418.182)">
    <g transform="rotate(-0.0)">
      <text x="0.000" y="0.000" font-family="Helvetica" text-anchor="middle" font-size="28pt" fill="#000000" >c0 (gamma shape)</text>
    </g>
  </g>
</g>
<g id="ID000006" >
  <g transform="translate(43.535,187.252)">
    <g transform="rotate(-90.0)">
      <text x="0.000" y="0.000" font-family="Helvetica" text-anchor="middle" font-size="28pt" fill="#000000" >test error</text>
    </g>
  </g>
</g>
<g id="ID000007" >
</g>
    </g>
    <g>
      <polyline fill="none" stroke="#000000" stroke-width="0.5pt" stroke-dasharray="none" points="143.920,341.000 143.920,337.112 "/>
      <polyline fill="none" stroke="#000000" stroke-width="0.5pt" stroke-dasharray="none" points="169.840,341.000 169.840,337.112 "/>
      <polyline fill="none" stroke="#000000" stroke-width="0.5pt" stroke-dasharray="none" points="195.760,341.000 195.760,337.112 "/>
      <polyline fill="none" stroke="#000000" stroke-width="0.5pt" stroke-dasharray="none" points="221.680,341.000 221.680,337.112 "/>
      <polyline fill="none" stroke="#000000" stroke-width="0.5pt" stroke-dasharray="none" points="247.600,341.000 247.600,337.112 "/>
      <polyline fill="none" stroke="#000000" stroke-width="0.5pt" stroke-dasharray="none" points="273.520,341.000 273.520,337.112 "/>
      <polyline fill="none" stroke="#000000" stroke-width="0.5pt" stroke-dasharray="none" points="299.440,341.000 299.440,337.112 "/>
      <polyline fill="none" stroke="#000000" stroke-width="0.5pt" stroke-dasharray="none" points="325.360,341.000 325.360,337.112 "/>
      <polyline fill="none" stroke="#000000" stroke-width="0.5pt" stroke-dasharray="none" points="351.280,341.000 351.280,337.112 "/>
      <polyline fill="none" stroke="#000000" stroke-width="0.5pt" stroke-dasharray="none" points="377.200,341.000 377.200,337.112 "/>
      <polyline fill="none" stroke="#000000" stroke-width="0.5pt" stroke-dasharray="none" points="403.120,341.000 403.120,337.112 "/>
      <polyline fill="none" stroke="#000000" stroke-width="0.5pt" stroke-dasharray="none" points="429.040,341.000 429.040,337.112 "/>
      <polyline fill="none" stroke="#000000" stroke-width="0.5pt" stroke-dasharray="none" points="118.000,341.000 506.800,341.000 "/>
      <polyline fill="none" stroke="#000000" stroke-width="0.5pt" stroke-dasharray="none" points="143.920,31.500 143.920,35.388 "/>
      <polyline fill="none" stroke="#000000" stroke-width="0.5pt" stroke-dasharray="none" points="169.840,31.500 169.840,35.388 "/>
      <polyline fill="none" stroke="#000000" stroke-width="0.5pt" stroke-dasharray="none" points="195.760,31.500 195.760,35.388 "/>
      <polyline fill="none" stroke="#000000" stroke-width="0.5pt" stroke-dasharray="none" points="221.680,31.500 221.680,35.388 "/>
      <polyline fill="none" stroke="#000000" stroke-width="0.5pt" stroke-dasharray="none" points="247.600,31.500 247.600,35.388 "/>
      <polyline fill="none" stroke="#000000" stroke-width="0.5pt" stroke-dasharray="none" points="273.520,31.500 273.520,35.388 "/>
      <polyline fill="none" stroke="#000000" stroke-width="0.5pt" stroke-dasharray="none" points="299.440,31.500 299.440,35.388 "/>
      <polyline fill="none" stroke="#000000" stroke-width="0.5pt" stroke-dasharray="none" points="325.360,31.500 325.360,35.388 "/>
      <polyline fill="none" stroke="#000000" stroke-width="0.5pt" stroke-dasharray="none" points="351.280,31.500 351.280,35.388 "/>
      <polyline fill="none" stroke="#000000" stroke-width="0.5pt" stroke-dasharray="none" points="377.200,31.500 377.200,35.388 "/>
      <polyline fill="none" stroke="#000000" stroke-width="0.5pt" stroke-dasharray="none" points="403.120,31.500 403.120,35.388 "/>
      <polyline fill="none" stroke="#000000" stroke-width="0.5pt" stroke-dasharray="none" points="429.040,31.500 429.040,35.388 "/>
      <polyline fill="none" stroke="#000000" stroke-width="0.5pt" stroke-dasharray="none" points="118.000,31.500 506.800,31.500 "/>
  <g transform="translate(143.920,380.230)">
    <g transform="rotate(-0.0)">
      <text x="0.000" y="0.000" font-family="Helvetica" text-anchor="middle" font-size="28pt" fill="#000000" >0.05</text>
    </g>
  </g>
  <g transform="translate(169.840,380.230)">
    <g transform="rotate(-0.0)">
      <text x="0.000" y="0.000" font-family="Helvetica" text-anchor="middle" font-size="28pt" fill="#000000" >0.1</text>
    </g>
  </g>
  <g transform="translate(195.760,380.230)">
    <g transform="rotate(-0.0)">
      <text x="0.000" y="0.000" font-family="Helvetica" text-anchor="middle" font-size="28pt" fill="#000000" >0.5</text>
    </g>
  </g>
  <g transform="translate(221.680,380.230)">
    <g transform="rotate(-0.0)">
      <text x="0.000" y="0.000" font-family="Helvetica" text-anchor="middle" font-size="28pt" fill="#000000" >1</text>
    </g>
  </g>
  <g transform="translate(247.600,380.230)">
    <g transform="rotate(-0.0)">
      <text x="0.000" y="0.000" font-family="Helvetica" text-anchor="middle" font-size="28pt" fill="#000000" >2</text>
    </g>
  </g>
  <g transform="translate(273.520,380.230)">
    <g transform="rotate(-0.0)">
      <text x="0.000" y="0.000" font-family="Helvetica" text-anchor="middle" font-size="28pt" fill="#000000" >5</text>
    </g>
  </g>
  <g transform="translate(299.440,380.230)">
    <g transform="rotate(-0.0)">
      <text x="0.000" y="0.000" font-family="Helvetica" text-anchor="middle" font-size="28pt" fill="#000000" >10</text>
    </g>
  </g>
  <g transform="translate(325.360,380.230)">
    <g transform="rotate(-0.0)">
      <text x="0.000" y="0.000" font-family="Helvetica" text-anchor="middle" font-size="28pt" fill="#000000" >20</text>
    </g>
  </g>
  <g transform="translate(351.280,380.230)">
    <g transform="rotate(-0.0)">
      <text x="0.000" y="0.000" font-family="Helvetica" text-anchor="middle" font-size="28pt" fill="#000000" >50</text>
    </g>
  </g>
  <g transform="translate(377.200,380.230)">
    <g transform="rotate(-0.0)">
      <text x="0.000" y="0.000" font-family="Helvetica" text-anchor="middle" font-size="28pt" fill="#000000" >100</text>
    </g>
  </g>
  <g transform="translate(403.120,380.230)">
    <g transform="rotate(-0.0)">
      <text x="0.000" y="0.000" font-family="Helvetica" text-anchor="middle" font-size="28pt" fill="#000000" >500</text>
    </g>
  </g>
  <g transform="translate(429.040,380.230)">
    <g transform="rotate(-0.0)">
      <text x="0.000" y="0.000" font-family="Helvetica" text-anchor="middle" font-size="28pt" fill="#000000" >1000</text>
    </g>
  </g>
      <polyline fill="none" stroke="#000000" stroke-width="0.5pt" stroke-dasharray="none" points="118.000,186.250 121.888,186.250 "/>
      <polyline fill="none" stroke="#000000" stroke-width="0.5pt" stroke-dasharray="none" points="118.000,341.000 118.000,31.500 "/>
      <polyline fill="none" stroke="#000000" stroke-width="0.5pt" stroke-dasharray="none" points="506.800,186.250 502.912,186.250 "/>
      <polyline fill="none" stroke="#000000" stroke-width="0.5pt" stroke-dasharray="none" points="506.800,341.000 506.800,31.500 "/>
  <g transform="translate(110.224,353.600)">
    <g transform="rotate(-0.0)">
      <text x="0.000" y="0.000" font-family="Helvetica" text-anchor="end" font-size="28pt" fill="#000000" >0</text>
    </g>
  </g>
  <g transform="translate(110.224,198.850)">
    <g transform="rotate(-0.0)">
      <text x="0.000" y="0.000" font-family="Helvetica" text-anchor="end" font-size="28pt" fill="#000000" >50</text>
    </g>
  </g>
  <g transform="translate(110.224,44.100)">
    <g transform="rotate(-0.0)">
      <text x="0.000" y="0.000" font-family="Helvetica" text-anchor="end" font-size="28pt" fill="#000000" >100</text>
    </g>
  </g>
      <polyline fill="none" stroke="#000000" stroke-width="0.5pt" stroke-dasharray="none" points="118.000,341.000 118.000,337.905 "/>
      <polyline fill="none" stroke="#000000" stroke-width="0.5pt" stroke-dasharray="none" points="118.000,341.000 118.000,341.000 "/>
    </g>
  </g>
  </g>
</svg>
