<?xml version="1.0" encoding="utf-8" standalone="no"?><!DOCTYPE svg PUBLIC "-//W3C//DTD SVG 1.1//EN" "http://www.w3.org/Graphics/SVG/1.1/DTD/svg11.dtd">
<svg preserveAspectRatio="xMinYMin meet" width="100%" height="100%" viewBox="0 0 560.000 420.000"  version="1.1" xmlns="http://www.w3.org/2000/svg" xmlns:xlink="http://www.w3.org/1999/xlink">
  <desc>Matlab Figure Converted by PLOT2SVG written by Juerg Schwizer</desc>
  <g id="topgroup">
  <rect x="0" y="0" width="560.000" height="420.000" fill="#ffffff" stroke="none" />
  <g id ="ID000000">
  <clipPath id="ID000001">
    <rect x="87.000" y="31.500" width="419.800" height="313.500"/>
  </clipPath>
      <polygon fill="#ffffff" fill-opacity="1.00" stroke="none" stroke-width="0.5pt" stroke-opacity="1.00" stroke-dasharray="none" points="87.000,345.000 506.800,345.000 506.800,31.500 87.000,31.500 "/>
      <polygon fill="#ffffff" fill-opacity="1.00" stroke="none" stroke-width="0.5pt" stroke-opacity="1.00" stroke-dasharray="none" points="87.000,31.500 506.800,31.500 506.800,31.500 87.000,31.500 "/>
      <polygon fill="#ffffff" fill-opacity="1.00" stroke="none" stroke-width="0.5pt" stroke-opacity="1.00" stroke-dasharray="none" points="87.000,345.000 87.000,345.000 87.000,31.500 87.000,31.500 "/>
    <g>
<g id="ID000002" clip-path="url(#ID000001)" >
<g>
<circle cx="302.866" cy="102.751" r="5.000" fill="#ff0000" stroke="none" stroke-width="3.0pt" />
<circle cx="298.013" cy="91.038" r="5.000" fill="#ff0000" stroke="none" stroke-width="3.0pt" />
<circle cx="311.217" cy="105.392" r="5.000" fill="#ff0000" stroke="none" stroke-width="3.0pt" />
<circle cx="348.339" cy="135.338" r="5.000" fill="#ff0000" stroke="none" stroke-width="3.0pt" />
<circle cx="335.870" cy="120.837" r="5.000" fill="#ff0000" stroke="none" stroke-width="3.0pt" />
<circle cx="333.518" cy="109.353" r="5.000" fill="#ff0000" stroke="none" stroke-width="3.0pt" />
<circle cx="431.696" cy="89.014" r="5.000" fill="#ff0000" stroke="none" stroke-width="3.0pt" />
<circle cx="426.736" cy="76.454" r="5.000" fill="#ff0000" stroke="none" stroke-width="3.0pt" />
<circle cx="437.309" cy="126.759" r="5.000" fill="#ff0000" stroke="none" stroke-width="3.0pt" />
<circle cx="450.284" cy="140.892" r="5.000" fill="#ff0000" stroke="none" stroke-width="3.0pt" />
<circle cx="457.240" cy="234.193" r="5.000" fill="#ff0000" stroke="none" stroke-width="3.0pt" />
<circle cx="457.173" cy="105.115" r="5.000" fill="#ff0000" stroke="none" stroke-width="3.0pt" />
<circle cx="464.901" cy="107.205" r="5.000" fill="#ff0000" stroke="none" stroke-width="3.0pt" />
</g>
</g>
<g id="ID000003" clip-path="url(#ID000001)" >
<g>
<circle cx="366.867" cy="136.000" r="5.000" fill="#0000ff" stroke="none" stroke-width="3.0pt" />
<circle cx="197.438" cy="147.125" r="5.000" fill="#0000ff" stroke="none" stroke-width="3.0pt" />
<circle cx="275.971" cy="177.719" r="5.000" fill="#0000ff" stroke="none" stroke-width="3.0pt" />
<circle cx="366.867" cy="136.000" r="5.000" fill="#0000ff" stroke="none" stroke-width="3.0pt" />
<circle cx="357.328" cy="317.101" r="5.000" fill="#0000ff" stroke="none" stroke-width="3.0pt" />
<circle cx="366.867" cy="136.000" r="5.000" fill="#0000ff" stroke="none" stroke-width="3.0pt" />
<circle cx="366.867" cy="136.000" r="5.000" fill="#0000ff" stroke="none" stroke-width="3.0pt" />
<circle cx="366.867" cy="136.000" r="5.000" fill="#0000ff" stroke="none" stroke-width="3.0pt" />
<circle cx="366.867" cy="136.000" r="5.000" fill="#0000ff" stroke="none" stroke-width="3.0pt" />
<circle cx="354.010" cy="126.996" r="5.000" fill="#0000ff" stroke="none" stroke-width="3.0pt" />
<circle cx="366.867" cy="136.000" r="5.000" fill="#0000ff" stroke="none" stroke-width="3.0pt" />
<circle cx="366.867" cy="136.000" r="5.000" fill="#0000ff" stroke="none" stroke-width="3.0pt" />
<circle cx="366.867" cy="136.000" r="5.000" fill="#0000ff" stroke="none" stroke-width="3.0pt" />
<circle cx="366.867" cy="136.000" r="5.000" fill="#0000ff" stroke="none" stroke-width="3.0pt" />
<circle cx="366.867" cy="136.000" r="5.000" fill="#0000ff" stroke="none" stroke-width="3.0pt" />
</g>
</g>
<g id="ID000004" >
  <g transform="translate(296.400,417.276)">
    <g transform="rotate(-0.0)">
      <text x="0.000" y="0.000" font-family="Helvetica" text-anchor="middle" font-size="26pt" fill="#000000" >latent dim. 1</text>
    </g>
  </g>
</g>
<g id="ID000005" >
  <g transform="translate(41.019,189.252)">
    <g transform="rotate(-90.0)">
      <text x="0.000" y="0.000" font-family="Helvetica" text-anchor="middle" font-size="26pt" fill="#000000" >latent dim. 2</text>
    </g>
  </g>
</g>
<g id="ID000006" >
</g>
    </g>
    <g>
      <polyline fill="none" stroke="#000000" stroke-width="0.5pt" stroke-dasharray="none" points="226.933,345.000 226.933,340.802 "/>
      <polyline fill="none" stroke="#000000" stroke-width="0.5pt" stroke-dasharray="none" points="366.867,345.000 366.867,340.802 "/>
      <polyline fill="none" stroke="#000000" stroke-width="0.5pt" stroke-dasharray="none" points="87.000,345.000 506.800,345.000 "/>
      <polyline fill="none" stroke="#000000" stroke-width="0.5pt" stroke-dasharray="none" points="226.933,31.500 226.933,35.698 "/>
      <polyline fill="none" stroke="#000000" stroke-width="0.5pt" stroke-dasharray="none" points="366.867,31.500 366.867,35.698 "/>
      <polyline fill="none" stroke="#000000" stroke-width="0.5pt" stroke-dasharray="none" points="87.000,31.500 506.800,31.500 "/>
  <g transform="translate(87.000,381.950)">
    <g transform="rotate(-0.0)">
      <text x="0.000" y="0.000" font-family="Helvetica" text-anchor="middle" font-size="26pt" fill="#000000" >-4</text>
    </g>
  </g>
  <g transform="translate(226.933,381.950)">
    <g transform="rotate(-0.0)">
      <text x="0.000" y="0.000" font-family="Helvetica" text-anchor="middle" font-size="26pt" fill="#000000" >-2</text>
    </g>
  </g>
  <g transform="translate(366.867,381.950)">
    <g transform="rotate(-0.0)">
      <text x="0.000" y="0.000" font-family="Helvetica" text-anchor="middle" font-size="26pt" fill="#000000" >0</text>
    </g>
  </g>
  <g transform="translate(506.800,381.950)">
    <g transform="rotate(-0.0)">
      <text x="0.000" y="0.000" font-family="Helvetica" text-anchor="middle" font-size="26pt" fill="#000000" >2</text>
    </g>
  </g>
      <polyline fill="none" stroke="#000000" stroke-width="0.5pt" stroke-dasharray="none" points="87.000,240.500 91.198,240.500 "/>
      <polyline fill="none" stroke="#000000" stroke-width="0.5pt" stroke-dasharray="none" points="87.000,136.000 91.198,136.000 "/>
      <polyline fill="none" stroke="#000000" stroke-width="0.5pt" stroke-dasharray="none" points="87.000,345.000 87.000,31.500 "/>
      <polyline fill="none" stroke="#000000" stroke-width="0.5pt" stroke-dasharray="none" points="506.800,240.500 502.602,240.500 "/>
      <polyline fill="none" stroke="#000000" stroke-width="0.5pt" stroke-dasharray="none" points="506.800,136.000 502.602,136.000 "/>
      <polyline fill="none" stroke="#000000" stroke-width="0.5pt" stroke-dasharray="none" points="506.800,345.000 506.800,31.500 "/>
  <g transform="translate(78.604,356.700)">
    <g transform="rotate(-0.0)">
      <text x="0.000" y="0.000" font-family="Helvetica" text-anchor="end" font-size="26pt" fill="#000000" >-4</text>
    </g>
  </g>
  <g transform="translate(78.604,252.200)">
    <g transform="rotate(-0.0)">
      <text x="0.000" y="0.000" font-family="Helvetica" text-anchor="end" font-size="26pt" fill="#000000" >-2</text>
    </g>
  </g>
  <g transform="translate(78.604,147.700)">
    <g transform="rotate(-0.0)">
      <text x="0.000" y="0.000" font-family="Helvetica" text-anchor="end" font-size="26pt" fill="#000000" >0</text>
    </g>
  </g>
  <g transform="translate(78.604,43.200)">
    <g transform="rotate(-0.0)">
      <text x="0.000" y="0.000" font-family="Helvetica" text-anchor="end" font-size="26pt" fill="#000000" >2</text>
    </g>
  </g>
      <polyline fill="none" stroke="#000000" stroke-width="0.5pt" stroke-dasharray="none" points="87.000,345.000 87.000,341.865 "/>
      <polyline fill="none" stroke="#000000" stroke-width="0.5pt" stroke-dasharray="none" points="87.000,345.000 87.000,345.000 "/>
    </g>
  </g>
  </g>
</svg>
