<?xml version="1.0" encoding="utf-8" standalone="no"?><!DOCTYPE svg PUBLIC "-//W3C//DTD SVG 1.1//EN" "http://www.w3.org/Graphics/SVG/1.1/DTD/svg11.dtd">
<svg preserveAspectRatio="xMinYMin meet" width="100%" height="100%" viewBox="0 0 560.000 420.000"  version="1.1" xmlns="http://www.w3.org/2000/svg" xmlns:xlink="http://www.w3.org/1999/xlink">
  <desc>Matlab Figure Converted by PLOT2SVG written by Juerg Schwizer</desc>
  <g id="topgroup">
  <rect x="0" y="0" width="560.000" height="420.000" fill="#ffffff" stroke="none" />
  <g id ="ID000000">
  <clipPath id="ID000001">
    <rect x="92.000" y="31.500" width="414.800" height="309.500"/>
  </clipPath>
      <polygon fill="#ffffff" fill-opacity="1.00" stroke="none" stroke-width="0.5pt" stroke-opacity="1.00" stroke-dasharray="none" points="92.000,341.000 506.800,341.000 506.800,31.500 92.000,31.500 "/>
      <polygon fill="#ffffff" fill-opacity="1.00" stroke="none" stroke-width="0.5pt" stroke-opacity="1.00" stroke-dasharray="none" points="92.000,31.500 506.800,31.500 506.800,31.500 92.000,31.500 "/>
      <polygon fill="#ffffff" fill-opacity="1.00" stroke="none" stroke-width="0.5pt" stroke-opacity="1.00" stroke-dasharray="none" points="92.000,341.000 92.000,341.000 92.000,31.500 92.000,31.500 "/>
    <g>
<g id="ID000002" clip-path="url(#ID000001)" >
<g id="ID000003" clip-path="url(#ID000001)" >
      <polygon fill="#00008f" fill-opacity="1.00" stroke="#000000" stroke-width="0.5pt" stroke-opacity="1.00" stroke-dasharray="none" points="111.145,186.250 111.145,133.413 136.671,133.413 136.671,186.250 "/>
      <polygon fill="#00008f" fill-opacity="1.00" stroke="#000000" stroke-width="0.5pt" stroke-opacity="1.00" stroke-dasharray="none" points="143.052,186.250 143.052,117.988 168.578,117.988 168.578,186.250 "/>
      <polygon fill="#00008f" fill-opacity="1.00" stroke="#000000" stroke-width="0.5pt" stroke-opacity="1.00" stroke-dasharray="none" points="174.960,186.250 174.960,187.808 200.486,187.808 200.486,186.250 "/>
      <polygon fill="#00008f" fill-opacity="1.00" stroke="#000000" stroke-width="0.5pt" stroke-opacity="1.00" stroke-dasharray="none" points="206.868,186.250 206.868,205.838 232.394,205.838 232.394,186.250 "/>
      <polygon fill="#00008f" fill-opacity="1.00" stroke="#000000" stroke-width="0.5pt" stroke-opacity="1.00" stroke-dasharray="none" points="238.775,186.250 238.775,219.868 264.302,219.868 264.302,186.250 "/>
      <polygon fill="#00008f" fill-opacity="1.00" stroke="#000000" stroke-width="0.5pt" stroke-opacity="1.00" stroke-dasharray="none" points="270.683,186.250 270.683,216.279 296.209,216.279 296.209,186.250 "/>
      <polygon fill="#00008f" fill-opacity="1.00" stroke="#000000" stroke-width="0.5pt" stroke-opacity="1.00" stroke-dasharray="none" points="302.591,186.250 302.591,209.918 328.117,209.918 328.117,186.250 "/>
      <polygon fill="#00008f" fill-opacity="1.00" stroke="#000000" stroke-width="0.5pt" stroke-opacity="1.00" stroke-dasharray="none" points="334.498,186.250 334.498,159.487 360.025,159.487 360.025,186.250 "/>
      <polygon fill="#00008f" fill-opacity="1.00" stroke="#000000" stroke-width="0.5pt" stroke-opacity="1.00" stroke-dasharray="none" points="366.406,186.250 366.406,185.068 391.932,185.068 391.932,186.250 "/>
      <polygon fill="#00008f" fill-opacity="1.00" stroke="#000000" stroke-width="0.5pt" stroke-opacity="1.00" stroke-dasharray="none" points="398.314,186.250 398.314,283.655 423.840,283.655 423.840,186.250 "/>
      <polygon fill="#00008f" fill-opacity="1.00" stroke="#000000" stroke-width="0.5pt" stroke-opacity="1.00" stroke-dasharray="none" points="430.222,186.250 430.222,280.346 455.748,280.346 455.748,186.250 "/>
      <polygon fill="#00008f" fill-opacity="1.00" stroke="#000000" stroke-width="0.5pt" stroke-opacity="1.00" stroke-dasharray="none" points="462.129,186.250 462.129,176.677 487.655,176.677 487.655,186.250 "/>
</g>
</g><g id="ID000004" clip-path="url(#ID000001)" >
      <polyline fill="none" stroke="#000000" stroke-width="0.5pt" stroke-dasharray="none" points="92.000,186.250 506.800,186.250 "/>
<g>
</g>
</g>
<g id="ID000005" clip-path="url(#ID000001)" >
<g id="ID000006" clip-path="url(#ID000001)" >
      <polyline fill="none" stroke="#000000" stroke-width="3.0pt" stroke-dasharray="none" points="123.908,107.254 123.908,159.572 "/>
      <polyline fill="none" stroke="#000000" stroke-width="3.0pt" stroke-dasharray="none" points="120.398,107.254 127.418,107.254 "/>
      <polyline fill="none" stroke="#000000" stroke-width="3.0pt" stroke-dasharray="none" points="120.398,159.572 127.418,159.572 "/>
      <polyline fill="none" stroke="#000000" stroke-width="3.0pt" stroke-dasharray="none" points="155.815,98.922 155.815,137.053 "/>
      <polyline fill="none" stroke="#000000" stroke-width="3.0pt" stroke-dasharray="none" points="152.306,98.922 159.325,98.922 "/>
      <polyline fill="none" stroke="#000000" stroke-width="3.0pt" stroke-dasharray="none" points="152.306,137.053 159.325,137.053 "/>
      <polyline fill="none" stroke="#000000" stroke-width="3.0pt" stroke-dasharray="none" points="187.723,137.179 187.723,238.437 "/>
      <polyline fill="none" stroke="#000000" stroke-width="3.0pt" stroke-dasharray="none" points="184.213,137.179 191.233,137.179 "/>
      <polyline fill="none" stroke="#000000" stroke-width="3.0pt" stroke-dasharray="none" points="184.213,238.437 191.233,238.437 "/>
      <polyline fill="none" stroke="#000000" stroke-width="3.0pt" stroke-dasharray="none" points="219.631,186.278 219.631,225.397 "/>
      <polyline fill="none" stroke="#000000" stroke-width="3.0pt" stroke-dasharray="none" points="216.121,186.278 223.141,186.278 "/>
      <polyline fill="none" stroke="#000000" stroke-width="3.0pt" stroke-dasharray="none" points="216.121,225.397 223.141,225.397 "/>
      <polyline fill="none" stroke="#000000" stroke-width="3.0pt" stroke-dasharray="none" points="251.538,193.584 251.538,246.151 "/>
      <polyline fill="none" stroke="#000000" stroke-width="3.0pt" stroke-dasharray="none" points="248.029,193.584 255.048,193.584 "/>
      <polyline fill="none" stroke="#000000" stroke-width="3.0pt" stroke-dasharray="none" points="248.029,246.151 255.048,246.151 "/>
      <polyline fill="none" stroke="#000000" stroke-width="3.0pt" stroke-dasharray="none" points="283.446,183.430 283.446,249.129 "/>
      <polyline fill="none" stroke="#000000" stroke-width="3.0pt" stroke-dasharray="none" points="279.936,183.430 286.956,183.430 "/>
      <polyline fill="none" stroke="#000000" stroke-width="3.0pt" stroke-dasharray="none" points="279.936,249.129 286.956,249.129 "/>
      <polyline fill="none" stroke="#000000" stroke-width="3.0pt" stroke-dasharray="none" points="315.354,185.780 315.354,234.057 "/>
      <polyline fill="none" stroke="#000000" stroke-width="3.0pt" stroke-dasharray="none" points="311.844,185.780 318.864,185.780 "/>
      <polyline fill="none" stroke="#000000" stroke-width="3.0pt" stroke-dasharray="none" points="311.844,234.057 318.864,234.057 "/>
      <polyline fill="none" stroke="#000000" stroke-width="3.0pt" stroke-dasharray="none" points="347.262,96.732 347.262,222.242 "/>
      <polyline fill="none" stroke="#000000" stroke-width="3.0pt" stroke-dasharray="none" points="343.752,96.732 350.771,96.732 "/>
      <polyline fill="none" stroke="#000000" stroke-width="3.0pt" stroke-dasharray="none" points="343.752,222.242 350.771,222.242 "/>
      <polyline fill="none" stroke="#000000" stroke-width="3.0pt" stroke-dasharray="none" points="379.169,141.717 379.169,228.419 "/>
      <polyline fill="none" stroke="#000000" stroke-width="3.0pt" stroke-dasharray="none" points="375.659,141.717 382.679,141.717 "/>
      <polyline fill="none" stroke="#000000" stroke-width="3.0pt" stroke-dasharray="none" points="375.659,228.419 382.679,228.419 "/>
      <polyline fill="none" stroke="#000000" stroke-width="3.0pt" stroke-dasharray="none" points="411.077,265.653 411.077,301.658 "/>
      <polyline fill="none" stroke="#000000" stroke-width="3.0pt" stroke-dasharray="none" points="407.567,265.653 414.587,265.653 "/>
      <polyline fill="none" stroke="#000000" stroke-width="3.0pt" stroke-dasharray="none" points="407.567,301.658 414.587,301.658 "/>
      <polyline fill="none" stroke="#000000" stroke-width="3.0pt" stroke-dasharray="none" points="442.985,265.739 442.985,294.953 "/>
      <polyline fill="none" stroke="#000000" stroke-width="3.0pt" stroke-dasharray="none" points="439.475,265.739 446.494,265.739 "/>
      <polyline fill="none" stroke="#000000" stroke-width="3.0pt" stroke-dasharray="none" points="439.475,294.953 446.494,294.953 "/>
      <polyline fill="none" stroke="#000000" stroke-width="3.0pt" stroke-dasharray="none" points="474.892,138.678 474.892,214.676 "/>
      <polyline fill="none" stroke="#000000" stroke-width="3.0pt" stroke-dasharray="none" points="471.382,138.678 478.402,138.678 "/>
      <polyline fill="none" stroke="#000000" stroke-width="3.0pt" stroke-dasharray="none" points="471.382,214.676 478.402,214.676 "/>
<g>
</g>
</g>
<g id="ID000007" clip-path="url(#ID000001)" >
<g>
</g>
</g>
</g><g id="ID000008" >
  <g transform="translate(298.400,418.182)">
    <g transform="rotate(-0.0)">
      <text x="0.000" y="0.000" font-family="Helvetica" text-anchor="middle" font-size="28pt" fill="#000000" >weight index</text>
    </g>
  </g>
</g>
<g id="ID000009" >
  <g transform="translate(43.520,187.252)">
    <g transform="rotate(-90.0)">
      <text x="0.000" y="0.000" font-family="Helvetica" text-anchor="middle" font-size="28pt" fill="#000000" >weights</text>
    </g>
  </g>
</g>
<g id="ID000010" >
</g>
<g id="ID000011" >
</g>
<g id="ID000012" >
</g>
    </g>
    <g>
      <polyline fill="none" stroke="#000000" stroke-width="0.5pt" stroke-dasharray="none" points="123.908,341.000 123.908,336.852 "/>
      <polyline fill="none" stroke="#000000" stroke-width="0.5pt" stroke-dasharray="none" points="283.446,341.000 283.446,336.852 "/>
      <polyline fill="none" stroke="#000000" stroke-width="0.5pt" stroke-dasharray="none" points="474.892,341.000 474.892,336.852 "/>
      <polyline fill="none" stroke="#000000" stroke-width="0.5pt" stroke-dasharray="none" points="92.000,341.000 506.800,341.000 "/>
  <g transform="translate(123.908,380.230)">
    <g transform="rotate(-0.0)">
      <text x="0.000" y="0.000" font-family="Helvetica" text-anchor="middle" font-size="28pt" fill="#000000" >1</text>
    </g>
  </g>
  <g transform="translate(283.446,380.230)">
    <g transform="rotate(-0.0)">
      <text x="0.000" y="0.000" font-family="Helvetica" text-anchor="middle" font-size="28pt" fill="#000000" >6</text>
    </g>
  </g>
  <g transform="translate(474.892,380.230)">
    <g transform="rotate(-0.0)">
      <text x="0.000" y="0.000" font-family="Helvetica" text-anchor="middle" font-size="28pt" fill="#000000" >12</text>
    </g>
  </g>
      <polyline fill="none" stroke="#000000" stroke-width="0.5pt" stroke-dasharray="none" points="92.000,289.417 96.148,289.417 "/>
      <polyline fill="none" stroke="#000000" stroke-width="0.5pt" stroke-dasharray="none" points="92.000,186.250 96.148,186.250 "/>
      <polyline fill="none" stroke="#000000" stroke-width="0.5pt" stroke-dasharray="none" points="92.000,83.083 96.148,83.083 "/>
      <polyline fill="none" stroke="#000000" stroke-width="0.5pt" stroke-dasharray="none" points="92.000,341.000 92.000,31.500 "/>
  <g transform="translate(83.704,302.017)">
    <g transform="rotate(-0.0)">
      <text x="0.000" y="0.000" font-family="Helvetica" text-anchor="end" font-size="28pt" fill="#000000" >-1</text>
    </g>
  </g>
  <g transform="translate(83.704,198.850)">
    <g transform="rotate(-0.0)">
      <text x="0.000" y="0.000" font-family="Helvetica" text-anchor="end" font-size="28pt" fill="#000000" >0</text>
    </g>
  </g>
  <g transform="translate(83.704,95.683)">
    <g transform="rotate(-0.0)">
      <text x="0.000" y="0.000" font-family="Helvetica" text-anchor="end" font-size="28pt" fill="#000000" >1</text>
    </g>
  </g>
      <polyline fill="none" stroke="#000000" stroke-width="0.5pt" stroke-dasharray="none" points="92.000,341.000 92.000,337.905 "/>
      <polyline fill="none" stroke="#000000" stroke-width="0.5pt" stroke-dasharray="none" points="92.000,341.000 92.000,337.905 "/>
      <polyline fill="none" stroke="#000000" stroke-width="0.5pt" stroke-dasharray="none" points="92.000,341.000 92.000,337.905 "/>
      <polyline fill="none" stroke="#000000" stroke-width="0.5pt" stroke-dasharray="none" points="92.000,341.000 92.000,341.000 "/>
    </g>
  </g>
  <g id ="ID000013">
  <clipPath id="ID000014">
    <rect x="236.750" y="38.750" width="265.500" height="41.000"/>
  </clipPath>
      <polygon fill="#ffffff" fill-opacity="1.00" stroke="none" stroke-width="0.5pt" stroke-opacity="1.00" stroke-dasharray="none" points="236.750,79.750 502.250,79.750 502.250,38.750 236.750,38.750 "/>
      <polygon fill="#ffffff" fill-opacity="1.00" stroke="none" stroke-width="0.5pt" stroke-opacity="1.00" stroke-dasharray="none" points="236.750,38.750 502.250,38.750 502.250,38.750 236.750,38.750 "/>
      <polygon fill="#ffffff" fill-opacity="1.00" stroke="none" stroke-width="0.5pt" stroke-opacity="1.00" stroke-dasharray="none" points="236.750,79.750 236.750,79.750 236.750,38.750 236.750,38.750 "/>
    <g>
<g id="ID000015" >
  <g transform="translate(286.343,69.250)">
    <g transform="rotate(-0.0)">
      <text x="0.000" y="0.000" font-family="Helvetica" text-anchor="start" font-size="20pt" fill="#000000" >ProMPs Prior dim 2</text>
    </g>
  </g>
</g>
<g id="ID000016" clip-path="url(#ID000014)" >
<g id="ID000017" clip-path="url(#ID000014)" >
      <polygon fill="#00008f" fill-opacity="1.00" stroke="#000000" stroke-width="0.5pt" stroke-opacity="1.00" stroke-dasharray="none" points="244.250,73.338 244.250,45.163 281.750,45.163 281.750,73.338 244.250,73.338 "/>
</g>
</g><g id="ID000018" >
</g>
<g id="ID000019" >
</g>
<g id="ID000020" >
</g>
    </g>
    <g>
      <polyline fill="none" stroke="#000000" stroke-width="0.5pt" stroke-dasharray="none" points="236.750,79.750 502.250,79.750 "/>
      <polyline fill="none" stroke="#000000" stroke-width="0.5pt" stroke-dasharray="none" points="236.750,38.750 502.250,38.750 "/>
      <polyline fill="none" stroke="#000000" stroke-width="0.5pt" stroke-dasharray="none" points="236.750,79.750 236.750,38.750 "/>
      <polyline fill="none" stroke="#000000" stroke-width="0.5pt" stroke-dasharray="none" points="502.250,79.750 502.250,38.750 "/>
      <polyline fill="none" stroke="#000000" stroke-width="0.5pt" stroke-dasharray="none" points="236.750,79.750 236.750,79.340 "/>
      <polyline fill="none" stroke="#000000" stroke-width="0.5pt" stroke-dasharray="none" points="236.750,79.750 236.750,79.750 "/>
    </g>
  </g>
  </g>
</svg>
