<?xml version="1.0" encoding="UTF-8" standalone="no"?>
<!-- Created with Inkscape (http://www.inkscape.org/) -->

<svg
   xmlns:osb="http://www.openswatchbook.org/uri/2009/osb"
   xmlns:dc="http://purl.org/dc/elements/1.1/"
   xmlns:cc="http://creativecommons.org/ns#"
   xmlns:rdf="http://www.w3.org/1999/02/22-rdf-syntax-ns#"
   xmlns:svg="http://www.w3.org/2000/svg"
   xmlns="http://www.w3.org/2000/svg"
   xmlns:sodipodi="http://sodipodi.sourceforge.net/DTD/sodipodi-0.dtd"
   xmlns:inkscape="http://www.inkscape.org/namespaces/inkscape"
   width="718.21344mm"
   height="259.50482mm"
   viewBox="0 0 2544.8507 919.50527"
   id="svg2"
   version="1.1"
   inkscape:version="0.91 r13725"
   sodipodi:docname="estimationSetup.svg">
  <defs
     id="defs4">
    <marker
       inkscape:isstock="true"
       style="overflow:visible"
       id="marker6146"
       refX="0"
       refY="0"
       orient="auto"
       inkscape:stockid="Arrow1Lend">
      <path
         inkscape:connector-curvature="0"
         transform="matrix(-0.8,0,0,-0.8,-10,0)"
         style="fill:#000000;fill-opacity:1;fill-rule:evenodd;stroke:#000000;stroke-width:1pt;stroke-opacity:1"
         d="M 0,0 5,-5 -12.5,0 5,5 0,0 Z"
         id="path6148" />
    </marker>
    <marker
       inkscape:isstock="true"
       style="overflow:visible"
       id="marker6070"
       refX="0"
       refY="0"
       orient="auto"
       inkscape:stockid="Arrow1Lstart">
      <path
         inkscape:connector-curvature="0"
         transform="matrix(0.8,0,0,0.8,10,0)"
         style="fill-rule:evenodd;stroke:#000000;stroke-width:1pt;stroke-opacity:1;fill:#000000;fill-opacity:1"
         d="M 0,0 5,-5 -12.5,0 5,5 0,0 Z"
         id="path6072" />
    </marker>
    <marker
       inkscape:stockid="Arrow1Lend"
       orient="auto"
       refY="0"
       refX="0"
       id="marker5944"
       style="overflow:visible"
       inkscape:isstock="true"
       inkscape:collect="always">
      <path
         id="path5946"
         d="M 0,0 5,-5 -12.5,0 5,5 0,0 Z"
         style="fill:#000000;fill-opacity:1;fill-rule:evenodd;stroke:#000000;stroke-width:1pt;stroke-opacity:1"
         transform="matrix(-0.8,0,0,-0.8,-10,0)"
         inkscape:connector-curvature="0" />
    </marker>
    <marker
       inkscape:stockid="Arrow1Lstart"
       orient="auto"
       refY="0"
       refX="0"
       id="Arrow1Lstart"
       style="overflow:visible"
       inkscape:isstock="true"
       inkscape:collect="always">
      <path
         id="path4660"
         d="M 0,0 5,-5 -12.5,0 5,5 0,0 Z"
         style="fill-rule:evenodd;stroke:#000000;stroke-width:1pt;stroke-opacity:1;fill:#000000;fill-opacity:1"
         transform="matrix(0.8,0,0,0.8,10,0)"
         inkscape:connector-curvature="0" />
    </marker>
    <marker
       inkscape:isstock="true"
       style="overflow:visible"
       id="marker6370"
       refX="0"
       refY="0"
       orient="auto"
       inkscape:stockid="Arrow1Lend"
       inkscape:collect="always">
      <path
         inkscape:connector-curvature="0"
         transform="matrix(-0.8,0,0,-0.8,-10,0)"
         style="fill:#000000;fill-opacity:1;fill-rule:evenodd;stroke:#000000;stroke-width:1pt;stroke-opacity:1"
         d="M 0,0 5,-5 -12.5,0 5,5 0,0 Z"
         id="path6372" />
    </marker>
    <linearGradient
       id="linearGradient4775"
       osb:paint="gradient">
      <stop
         style="stop-color:#ff0000;stop-opacity:1;"
         offset="0"
         id="stop4777" />
      <stop
         style="stop-color:#ff0000;stop-opacity:0;"
         offset="1"
         id="stop4779" />
    </linearGradient>
    <linearGradient
       id="linearGradient4767"
       osb:paint="gradient">
      <stop
         style="stop-color:#0006ff;stop-opacity:1;"
         offset="0"
         id="stop4769" />
      <stop
         style="stop-color:#ff0000;stop-opacity:0;"
         offset="1"
         id="stop4771" />
    </linearGradient>
    <marker
       inkscape:isstock="true"
       style="overflow:visible"
       id="marker6194"
       refX="0"
       refY="0"
       orient="auto"
       inkscape:stockid="Arrow1Lstart">
      <path
         transform="matrix(0.8,0,0,0.8,10,0)"
         style="fill:#ff0000;fill-opacity:1;fill-rule:evenodd;stroke:#ff0000;stroke-width:1pt;stroke-opacity:1"
         d="M 0,0 5,-5 -12.5,0 5,5 0,0 Z"
         id="path6196"
         inkscape:connector-curvature="0" />
    </marker>
    <marker
       inkscape:stockid="Arrow1Lstart"
       orient="auto"
       refY="0"
       refX="0"
       id="marker4736"
       style="overflow:visible"
       inkscape:isstock="true">
      <path
         id="path4738"
         d="M 0,0 5,-5 -12.5,0 5,5 0,0 Z"
         style="fill:#ff0000;fill-opacity:1;fill-rule:evenodd;stroke:#ff0000;stroke-width:1pt;stroke-opacity:1"
         transform="matrix(0.8,0,0,0.8,10,0)"
         inkscape:connector-curvature="0" />
    </marker>
    <marker
       inkscape:isstock="true"
       style="overflow:visible"
       id="marker4612"
       refX="0"
       refY="0"
       orient="auto"
       inkscape:stockid="Arrow1Lend">
      <path
         transform="matrix(-0.8,0,0,-0.8,-10,0)"
         style="fill:#000000;fill-opacity:1;fill-rule:evenodd;stroke:#000000;stroke-width:1pt;stroke-opacity:1"
         d="M 0,0 5,-5 -12.5,0 5,5 0,0 Z"
         id="path4614"
         inkscape:connector-curvature="0" />
    </marker>
    <marker
       inkscape:stockid="Arrow1Lstart"
       orient="auto"
       refY="0"
       refX="0"
       id="marker4454"
       style="overflow:visible"
       inkscape:isstock="true">
      <path
         id="path4456"
         d="M 0,0 5,-5 -12.5,0 5,5 0,0 Z"
         style="fill:#000000;fill-opacity:1;fill-rule:evenodd;stroke:#000000;stroke-width:1pt;stroke-opacity:1"
         transform="matrix(0.8,0,0,0.8,10,0)"
         inkscape:connector-curvature="0" />
    </marker>
  </defs>
  <sodipodi:namedview
     id="base"
     pagecolor="#ffffff"
     bordercolor="#666666"
     borderopacity="1.0"
     inkscape:pageopacity="0.0"
     inkscape:pageshadow="2"
     inkscape:zoom="1.2381346"
     inkscape:cx="1267.9614"
     inkscape:cy="619.22536"
     inkscape:document-units="px"
     inkscape:current-layer="layer1"
     showgrid="false"
     inkscape:window-width="2560"
     inkscape:window-height="1391"
     inkscape:window-x="103"
     inkscape:window-y="66"
     inkscape:window-maximized="0"
     fit-margin-top="0"
     fit-margin-left="0"
     fit-margin-right="0"
     fit-margin-bottom="0" />
  <metadata
     id="metadata7">
    <rdf:RDF>
      <cc:Work
         rdf:about="">
        <dc:format>image/svg+xml</dc:format>
        <dc:type
           rdf:resource="http://purl.org/dc/dcmitype/StillImage" />
        <dc:title></dc:title>
      </cc:Work>
    </rdf:RDF>
  </metadata>
  <g
     inkscape:label="Layer 1"
     inkscape:groupmode="layer"
     id="layer1"
     transform="translate(430.53616,-131.03692)">
    <path
       style="fill:none;fill-rule:evenodd;stroke:#000000;stroke-width:1.22100592px;stroke-linecap:butt;stroke-linejoin:miter;stroke-opacity:1"
       d="m 462.04619,956.57495 -135.53923,0"
       id="path4510"
       inkscape:connector-curvature="0" />
    <g
       id="g4546"
       transform="matrix(0,1.474089,-1.474089,0,1489.515,-255.98329)"
       style="opacity:0.2">
      <path
         inkscape:connector-curvature="0"
         id="path4533"
         d="m 380.35827,697.78968 0,15.94453 -11.15329,4.84373 22.42111,4.51904 -21.7927,4.39239 21.41199,4.31565 -21.14804,4.26248 21.61393,4.35635 -21.19142,4.27119 20.80146,4.19261 -20.82301,4.19695 19.9018,4.01128 -21.49214,4.33181 11.71785,2.36177 0,2.91301 0.0918,0"
         style="fill:none;fill-rule:evenodd;stroke:#000000;stroke-width:0.87246692px;stroke-linecap:butt;stroke-linejoin:miter;stroke-opacity:1" />
      <path
         inkscape:connector-curvature="0"
         id="path4535"
         d="m 380.71429,765.57649 0,23.92857"
         style="fill:none;fill-rule:evenodd;stroke:#000000;stroke-width:1px;stroke-linecap:butt;stroke-linejoin:miter;stroke-opacity:1" />
    </g>
    <g
       transform="matrix(0,1,-1,0,1115.2193,-4.489054)"
       id="g4550"
       style="opacity:0.2">
      <path
         style="fill:none;fill-rule:evenodd;stroke:#000000;stroke-width:0.87246692px;stroke-linecap:butt;stroke-linejoin:miter;stroke-opacity:1"
         d="m 380.35827,697.78968 0,15.94453 -11.15329,4.84373 22.42111,4.51904 -21.7927,4.39239 21.41199,4.31565 -21.14804,4.26248 21.61393,4.35635 -21.19142,4.27119 20.80146,4.19261 -20.82301,4.19695 19.9018,4.01128 -21.49214,4.33181 11.71785,2.36177 0,2.91301 0.0918,0"
         id="path4552"
         inkscape:connector-curvature="0" />
      <path
         style="fill:none;fill-rule:evenodd;stroke:#000000;stroke-width:1px;stroke-linecap:butt;stroke-linejoin:miter;stroke-opacity:1"
         d="m 380.71429,765.57649 0,23.92857"
         id="path4554"
         inkscape:connector-curvature="0" />
    </g>
    <g
       id="g4556"
       transform="matrix(0,1,-1,0,1115.2193,60.507346)"
       style="opacity:0.2">
      <path
         inkscape:connector-curvature="0"
         id="path4558"
         d="m 380.35827,697.78968 0,15.94453 -11.15329,4.84373 22.42111,4.51904 -21.7927,4.39239 21.41199,4.31565 -21.14804,4.26248 21.61393,4.35635 -21.19142,4.27119 20.80146,4.19261 -20.82301,4.19695 19.9018,4.01128 -21.49214,4.33181 11.71785,2.36177 0,2.91301 0.0918,0"
         style="fill:none;fill-rule:evenodd;stroke:#000000;stroke-width:0.87246692px;stroke-linecap:butt;stroke-linejoin:miter;stroke-opacity:1" />
      <path
         inkscape:connector-curvature="0"
         id="path4560"
         d="m 380.71429,765.57649 0,23.92857"
         style="fill:none;fill-rule:evenodd;stroke:#000000;stroke-width:1px;stroke-linecap:butt;stroke-linejoin:miter;stroke-opacity:1" />
    </g>
    <g
       transform="matrix(0,1,-1,0,1115.2193,132.15639)"
       id="g4562"
       style="opacity:0.2">
      <path
         style="fill:none;fill-rule:evenodd;stroke:#000000;stroke-width:0.87246692px;stroke-linecap:butt;stroke-linejoin:miter;stroke-opacity:1"
         d="m 380.35827,697.78968 0,15.94453 -11.15329,4.84373 22.42111,4.51904 -21.7927,4.39239 21.41199,4.31565 -21.14804,4.26248 21.61393,4.35635 -21.19142,4.27119 20.80146,4.19261 -20.82301,4.19695 19.9018,4.01128 -21.49214,4.33181 11.71785,2.36177 0,2.91301 0.0918,0"
         id="path4564"
         inkscape:connector-curvature="0" />
      <path
         style="fill:none;fill-rule:evenodd;stroke:#000000;stroke-width:1px;stroke-linecap:butt;stroke-linejoin:miter;stroke-opacity:1"
         d="m 380.71429,765.57649 0,23.92857"
         id="path4566"
         inkscape:connector-curvature="0" />
    </g>
    <g
       id="g4568"
       transform="matrix(0,1,-1,0,1115.2193,196.80615)"
       style="opacity:0.2">
      <path
         inkscape:connector-curvature="0"
         id="path4570"
         d="m 380.35827,697.78968 0,15.94453 -11.15329,4.84373 22.42111,4.51904 -21.7927,4.39239 21.41199,4.31565 -21.14804,4.26248 21.61393,4.35635 -21.19142,4.27119 20.80146,4.19261 -20.82301,4.19695 19.9018,4.01128 -21.49214,4.33181 11.71785,2.36177 0,2.91301 0.0918,0"
         style="fill:none;fill-rule:evenodd;stroke:#000000;stroke-width:0.87246692px;stroke-linecap:butt;stroke-linejoin:miter;stroke-opacity:1" />
      <path
         inkscape:connector-curvature="0"
         id="path4572"
         d="m 380.71429,765.57649 0,23.92857"
         style="fill:none;fill-rule:evenodd;stroke:#000000;stroke-width:1px;stroke-linecap:butt;stroke-linejoin:miter;stroke-opacity:1" />
    </g>
    <g
       transform="matrix(0,1,-1,0,1115.2193,264.48637)"
       id="g4574"
       style="opacity:0.2">
      <path
         style="fill:none;fill-rule:evenodd;stroke:#000000;stroke-width:0.87246692px;stroke-linecap:butt;stroke-linejoin:miter;stroke-opacity:1"
         d="m 380.35827,697.78968 0,15.94453 -11.15329,4.84373 22.42111,4.51904 -21.7927,4.39239 21.41199,4.31565 -21.14804,4.26248 21.61393,4.35635 -21.19142,4.27119 20.80146,4.19261 -20.82301,4.19695 19.9018,4.01128 -21.49214,4.33181 11.71785,2.36177 0,2.91301 0.0918,0"
         id="path4576"
         inkscape:connector-curvature="0" />
      <path
         style="fill:none;fill-rule:evenodd;stroke:#000000;stroke-width:1px;stroke-linecap:butt;stroke-linejoin:miter;stroke-opacity:1"
         d="m 380.71429,765.57649 0,23.92857"
         id="path4578"
         inkscape:connector-curvature="0" />
    </g>
    <g
       id="g4580"
       transform="matrix(0,1,-1,0,1115.2193,328.12598)"
       style="opacity:0.2">
      <path
         inkscape:connector-curvature="0"
         id="path4582"
         d="m 380.35827,697.78968 0,15.94453 -11.15329,4.84373 22.42111,4.51904 -21.7927,4.39239 21.41199,4.31565 -21.14804,4.26248 21.61393,4.35635 -21.19142,4.27119 20.80146,4.19261 -20.82301,4.19695 19.9018,4.01128 -21.49214,4.33181 11.71785,2.36177 0,2.91301 0.0918,0"
         style="fill:none;fill-rule:evenodd;stroke:#000000;stroke-width:0.87246692px;stroke-linecap:butt;stroke-linejoin:miter;stroke-opacity:1" />
      <path
         inkscape:connector-curvature="0"
         id="path4584"
         d="m 380.71429,765.57649 0,23.92857"
         style="fill:none;fill-rule:evenodd;stroke:#000000;stroke-width:1px;stroke-linecap:butt;stroke-linejoin:miter;stroke-opacity:1" />
    </g>
    <g
       transform="matrix(0,1,-1,0,1115.2193,388.73513)"
       id="g4586"
       style="opacity:0.2">
      <path
         style="fill:none;fill-rule:evenodd;stroke:#000000;stroke-width:0.87246692px;stroke-linecap:butt;stroke-linejoin:miter;stroke-opacity:1"
         d="m 380.35827,697.78968 0,15.94453 -11.15329,4.84373 22.42111,4.51904 -21.7927,4.39239 21.41199,4.31565 -21.14804,4.26248 21.61393,4.35635 -21.19142,4.27119 20.80146,4.19261 -20.82301,4.19695 19.9018,4.01128 -21.49214,4.33181 11.71785,2.36177 0,2.91301 0.0918,0"
         id="path4588"
         inkscape:connector-curvature="0" />
      <path
         style="fill:none;fill-rule:evenodd;stroke:#000000;stroke-width:1px;stroke-linecap:butt;stroke-linejoin:miter;stroke-opacity:1"
         d="m 380.71429,765.57649 0,23.92857"
         id="path4590"
         inkscape:connector-curvature="0" />
    </g>
    <g
       id="g4592"
       transform="matrix(0,1,-1,0,1115.2193,438.17003)"
       style="opacity:0.2">
      <path
         inkscape:connector-curvature="0"
         id="path4594"
         d="m 380.35827,697.78968 0,15.94453 -11.15329,4.84373 22.42111,4.51904 -21.7927,4.39239 21.41199,4.31565 -21.14804,4.26248 21.61393,4.35635 -21.19142,4.27119 20.80146,4.19261 -20.82301,4.19695 19.9018,4.01128 -21.49214,4.33181 11.71785,2.36177 0,2.91301 0.0918,0"
         style="fill:none;fill-rule:evenodd;stroke:#000000;stroke-width:0.87246692px;stroke-linecap:butt;stroke-linejoin:miter;stroke-opacity:1" />
      <path
         inkscape:connector-curvature="0"
         id="path4596"
         d="m 380.71429,765.57649 0,23.92857"
         style="fill:none;fill-rule:evenodd;stroke:#000000;stroke-width:1px;stroke-linecap:butt;stroke-linejoin:miter;stroke-opacity:1" />
    </g>
    <g
       transform="matrix(0,1,-1,0,1115.2193,486.80038)"
       id="g4598"
       style="opacity:0.2">
      <path
         style="fill:none;fill-rule:evenodd;stroke:#000000;stroke-width:0.87246692px;stroke-linecap:butt;stroke-linejoin:miter;stroke-opacity:1"
         d="m 380.35827,697.78968 0,15.94453 -11.15329,4.84373 22.42111,4.51904 -21.7927,4.39239 21.41199,4.31565 -21.14804,4.26248 21.61393,4.35635 -21.19142,4.27119 20.80146,4.19261 -20.82301,4.19695 19.9018,4.01128 -21.49214,4.33181 11.71785,2.36177 0,2.91301 0.0918,0"
         id="path4600"
         inkscape:connector-curvature="0" />
      <path
         style="fill:none;fill-rule:evenodd;stroke:#000000;stroke-width:1px;stroke-linecap:butt;stroke-linejoin:miter;stroke-opacity:1"
         d="m 380.71429,765.57649 0,23.92857"
         id="path4602"
         inkscape:connector-curvature="0" />
    </g>
    <rect
       style="fill:#ffffff;fill-opacity:0;stroke:#000000;stroke-width:3;stroke-miterlimit:4;stroke-dasharray:none;stroke-dashoffset:0;stroke-opacity:1"
       id="rect4765"
       width="496.61517"
       height="7.108233"
       x="373.74207"
       y="-422.84619"
       transform="matrix(0,1,-1,0,0,0)" />
    <path
       style="fill:none;fill-rule:evenodd;stroke:#000000;stroke-width:1.26396561;stroke-linecap:butt;stroke-linejoin:miter;stroke-miterlimit:4;stroke-dasharray:none;stroke-dashoffset:0;stroke-opacity:1"
       d="m 464.12273,179.30173 c 0,0 0,41.27575 0,182.53049 l -46.38939,9.96749 0,0 0,0"
       id="path6325"
       inkscape:connector-curvature="0" />
    <g
       id="g6327"
       transform="matrix(0,1.4928031,-1.4928031,0,1504.862,351.13592)"
       style="opacity:0.2">
      <path
         inkscape:connector-curvature="0"
         id="path6329"
         d="m 380.35827,697.78968 0,15.94453 -11.15329,4.84373 22.42111,4.51904 -21.7927,4.39239 21.41199,4.31565 -21.14804,4.26248 21.61393,4.35635 -21.19142,4.27119 20.80146,4.19261 -20.82301,4.19695 19.9018,4.01128 -21.49214,4.33181 11.71785,2.36177 0,2.91301 0.0918,0"
         style="fill:none;fill-rule:evenodd;stroke:#000000;stroke-width:0.87246692px;stroke-linecap:butt;stroke-linejoin:miter;stroke-opacity:1" />
      <path
         inkscape:connector-curvature="0"
         id="path6331"
         d="m 380.71429,765.57649 0,23.92857"
         style="fill:none;fill-rule:evenodd;stroke:#000000;stroke-width:1px;stroke-linecap:butt;stroke-linejoin:miter;stroke-opacity:1" />
    </g>
    <path
       inkscape:connector-curvature="0"
       id="path6342"
       d="m 462.20346,956.90836 c 0,-58.08892 0,-75.06296 0,-75.06296"
       style="fill:none;fill-rule:evenodd;stroke:#000000;stroke-width:0.93213779;stroke-linecap:butt;stroke-linejoin:miter;stroke-miterlimit:4;stroke-dasharray:none;stroke-dashoffset:0;stroke-opacity:1" />
    <path
       style="fill:none;fill-rule:evenodd;stroke:#000000;stroke-width:1px;stroke-linecap:butt;stroke-linejoin:miter;stroke-opacity:1"
       d="M 462.57902,882.58062 416.05563,871.65774"
       id="path6887"
       inkscape:connector-curvature="0" />
    <path
       style="fill:none;fill-rule:evenodd;stroke:#000000;stroke-width:10;stroke-linecap:butt;stroke-linejoin:miter;stroke-miterlimit:4;stroke-dasharray:none;stroke-opacity:1"
       d="m -311.746,956.85699 2426.0606,0"
       id="path5008"
       inkscape:connector-curvature="0" />
    <rect
       style="opacity:1;fill:#0000ff;fill-opacity:0;stroke:#000000;stroke-width:4;stroke-miterlimit:4;stroke-dasharray:none;stroke-dashoffset:0;stroke-opacity:1"
       id="rect5088"
       width="146.20328"
       height="731.01636"
       x="178.26341"
       y="224.69839" />
    <rect
       style="opacity:1;fill:#0000ff;fill-opacity:0;stroke:#000000;stroke-width:3.07692075;stroke-miterlimit:4;stroke-dasharray:none;stroke-dashoffset:0;stroke-opacity:1"
       id="rect5090"
       width="368.71573"
       height="114.00217"
       x="-191.99075"
       y="518.92786" />
    <path
       style="fill:none;fill-rule:evenodd;stroke:#000000;stroke-width:10;stroke-linecap:butt;stroke-linejoin:miter;stroke-miterlimit:4;stroke-dasharray:none;stroke-opacity:1"
       d="m -198.38248,131.03692 0,825.82007"
       id="path5094"
       inkscape:connector-curvature="0" />
    <rect
       style="opacity:1;fill:#0000ff;fill-opacity:0;stroke:#000000;stroke-width:10;stroke-miterlimit:4;stroke-dasharray:none;stroke-dashoffset:0;stroke-opacity:1"
       id="rect5660"
       width="672.76349"
       height="150.77213"
       x="559.18921"
       y="539.94922"
       ry="16.562099" />
    <rect
       style="opacity:1;fill:#0000ff;fill-opacity:0;stroke:#000000;stroke-width:10;stroke-miterlimit:4;stroke-dasharray:none;stroke-dashoffset:0;stroke-opacity:1"
       id="rect5662"
       width="130.2123"
       height="18.27541"
       x="428.40808"
       y="601.62872"
       ry="9.1377048" />
    <rect
       style="opacity:1;fill:#0000ff;fill-opacity:0;stroke:#000000;stroke-width:10;stroke-miterlimit:4;stroke-dasharray:none;stroke-dashoffset:0;stroke-opacity:1"
       id="rect5664"
       width="1.1422131"
       height="113.07909"
       x="428.40808"
       y="553.65576"
       ry="0.57110655" />
    <rect
       style="opacity:1;fill:#0000ff;fill-opacity:0;stroke:#000000;stroke-width:4;stroke-miterlimit:4;stroke-dasharray:none;stroke-dashoffset:0;stroke-opacity:1"
       id="rect5666"
       width="267.27786"
       height="262.70901"
       x="761.9342"
       y="694.17169"
       ry="16.562099" />
    <rect
       style="opacity:1;fill:#0000ff;fill-opacity:0;stroke:#000000;stroke-width:2;stroke-miterlimit:4;stroke-dasharray:none;stroke-dashoffset:0;stroke-opacity:1"
       id="rect5668"
       width="379.21475"
       height="73.101639"
       x="716.24573"
       y="575.38153"
       ry="16.562099" />
    <text
       xml:space="preserve"
       style="font-style:normal;font-weight:normal;font-size:40px;line-height:125%;font-family:sans-serif;letter-spacing:0px;word-spacing:0px;fill:#000000;fill-opacity:1;stroke:none;stroke-width:1px;stroke-linecap:butt;stroke-linejoin:miter;stroke-opacity:1"
       x="775.64075"
       y="634.6618"
       id="text5670"
       sodipodi:linespacing="125%"><tspan
         sodipodi:role="line"
         id="tspan5672"
         x="775.64075"
         y="634.6618">$F = 10 \ N$</tspan></text>
    <path
       style="fill:none;fill-rule:evenodd;stroke:#000000;stroke-width:10;stroke-linecap:butt;stroke-linejoin:miter;stroke-opacity:1;stroke-miterlimit:4;stroke-dasharray:none"
       d="m -202.09366,927.18315 c -93.66147,-93.66147 -93.66147,-93.66147 -93.66147,-93.66147"
       id="path5674"
       inkscape:connector-curvature="0" />
    <path
       style="fill:none;fill-rule:evenodd;stroke:#000000;stroke-width:10;stroke-linecap:butt;stroke-linejoin:miter;stroke-opacity:1;stroke-miterlimit:4;stroke-dasharray:none"
       d="m -199.80923,810.67742 -98.23033,-98.23033"
       id="path5676"
       inkscape:connector-curvature="0" />
    <path
       inkscape:connector-curvature="0"
       id="path5678"
       d="m -202.09366,682.74955 c -93.66147,-93.66147 -93.66147,-93.66147 -93.66147,-93.66147"
       style="fill:none;fill-rule:evenodd;stroke:#000000;stroke-width:10;stroke-linecap:butt;stroke-linejoin:miter;stroke-miterlimit:4;stroke-dasharray:none;stroke-opacity:1" />
    <path
       inkscape:connector-curvature="0"
       id="path5680"
       d="m -199.80923,566.24382 -98.23033,-98.23033"
       style="fill:none;fill-rule:evenodd;stroke:#000000;stroke-width:10;stroke-linecap:butt;stroke-linejoin:miter;stroke-miterlimit:4;stroke-dasharray:none;stroke-opacity:1" />
    <path
       style="fill:none;fill-rule:evenodd;stroke:#000000;stroke-width:10;stroke-linecap:butt;stroke-linejoin:miter;stroke-miterlimit:4;stroke-dasharray:none;stroke-opacity:1"
       d="m -202.09366,445.16922 c -93.66147,-93.66147 -93.66147,-93.66147 -93.66147,-93.66147"
       id="path5682"
       inkscape:connector-curvature="0" />
    <path
       style="fill:none;fill-rule:evenodd;stroke:#000000;stroke-width:10;stroke-linecap:butt;stroke-linejoin:miter;stroke-miterlimit:4;stroke-dasharray:none;stroke-opacity:1"
       d="m -199.80923,328.66349 -98.23033,-98.23033"
       id="path5684"
       inkscape:connector-curvature="0" />
    <path
       inkscape:connector-curvature="0"
       id="path5686"
       d="m -199.80923,232.71759 -98.23033,-98.23033"
       style="fill:none;fill-rule:evenodd;stroke:#000000;stroke-width:10;stroke-linecap:butt;stroke-linejoin:miter;stroke-miterlimit:4;stroke-dasharray:none;stroke-opacity:1" />
    <path
       style="opacity:1;fill:#0000ff;fill-opacity:0;stroke:#000000;stroke-width:2;stroke-miterlimit:4;stroke-dasharray:none;stroke-dashoffset:0;stroke-opacity:1"
       id="path5690"
       sodipodi:type="arc"
       sodipodi:cx="1868.2823"
       sodipodi:cy="604.50793"
       sodipodi:rx="22.273155"
       sodipodi:ry="39.406353"
       sodipodi:start="4.2287925"
       sodipodi:end="2.0243981"
       d="m 1857.9261,569.62037 a 22.273155,39.406353 0 0 1 27.4661,9.65849 22.273155,39.406353 0 0 1 0.42,49.53896 22.273155,39.406353 0 0 1 -27.2901,11.11149"
       sodipodi:open="true" />
    <path
       sodipodi:open="true"
       d="m 1902.758,569.62037 a 22.273155,39.406353 0 0 1 27.4661,9.65849 22.273155,39.406353 0 0 1 0.42,49.53896 22.273155,39.406353 0 0 1 -27.2901,11.11149"
       sodipodi:end="2.0243981"
       sodipodi:start="4.2287925"
       sodipodi:ry="39.406353"
       sodipodi:rx="22.273155"
       sodipodi:cy="604.50793"
       sodipodi:cx="1913.1143"
       sodipodi:type="arc"
       id="path5692"
       style="opacity:1;fill:#0000ff;fill-opacity:0;stroke:#000000;stroke-width:2;stroke-miterlimit:4;stroke-dasharray:none;stroke-dashoffset:0;stroke-opacity:1" />
    <path
       style="opacity:1;fill:#0000ff;fill-opacity:0;stroke:#000000;stroke-width:2;stroke-miterlimit:4;stroke-dasharray:none;stroke-dashoffset:0;stroke-opacity:1"
       id="path5698"
       sodipodi:type="arc"
       sodipodi:cx="1957.9462"
       sodipodi:cy="604.50793"
       sodipodi:rx="22.273155"
       sodipodi:ry="39.406353"
       sodipodi:start="4.2287925"
       sodipodi:end="2.0243981"
       d="m 1947.5899,569.62037 a 22.273155,39.406353 0 0 1 27.4662,9.65849 22.273155,39.406353 0 0 1 0.4199,49.53896 22.273155,39.406353 0 0 1 -27.2901,11.11149"
       sodipodi:open="true" />
    <path
       sodipodi:open="true"
       d="m 1767.9767,569.62037 a 22.273155,39.406353 0 0 1 27.4662,9.65849 22.273155,39.406353 0 0 1 0.42,49.53896 22.273155,39.406353 0 0 1 -27.2901,11.11149"
       sodipodi:end="2.0243981"
       sodipodi:start="4.2287925"
       sodipodi:ry="39.406353"
       sodipodi:rx="22.273155"
       sodipodi:cy="604.50793"
       sodipodi:cx="1778.333"
       sodipodi:type="arc"
       id="path5700"
       style="opacity:1;fill:#0000ff;fill-opacity:0;stroke:#000000;stroke-width:2;stroke-miterlimit:4;stroke-dasharray:8,8;stroke-dashoffset:0;stroke-opacity:1" />
    <path
       style="opacity:1;fill:#0000ff;fill-opacity:0;stroke:#000000;stroke-width:2;stroke-miterlimit:4;stroke-dasharray:none;stroke-dashoffset:0;stroke-opacity:1"
       id="path5702"
       sodipodi:type="arc"
       sodipodi:cx="1823.1649"
       sodipodi:cy="604.50793"
       sodipodi:rx="22.273155"
       sodipodi:ry="39.406353"
       sodipodi:start="4.2287925"
       sodipodi:end="2.0243981"
       d="m 1812.8087,569.62037 a 22.273155,39.406353 0 0 1 27.4661,9.65849 22.273155,39.406353 0 0 1 0.42,49.53896 22.273155,39.406353 0 0 1 -27.2901,11.11149"
       sodipodi:open="true" />
    <path
       sodipodi:open="true"
       d="m 1676.2011,569.62037 a 22.273155,39.406353 0 0 1 27.4662,9.65849 22.273155,39.406353 0 0 1 0.4199,49.53896 22.273155,39.406353 0 0 1 -27.2901,11.11149"
       sodipodi:end="2.0243981"
       sodipodi:start="4.2287925"
       sodipodi:ry="39.406353"
       sodipodi:rx="22.273155"
       sodipodi:cy="604.50793"
       sodipodi:cx="1686.5574"
       sodipodi:type="arc"
       id="path5730"
       style="opacity:1;fill:#0000ff;fill-opacity:0;stroke:#000000;stroke-width:2;stroke-miterlimit:4;stroke-dasharray:none;stroke-dashoffset:0;stroke-opacity:1" />
    <path
       style="opacity:1;fill:#0000ff;fill-opacity:0;stroke:#000000;stroke-width:2;stroke-miterlimit:4;stroke-dasharray:8,8;stroke-dashoffset:0;stroke-opacity:1"
       id="path5732"
       sodipodi:type="arc"
       sodipodi:cx="1731.3893"
       sodipodi:cy="604.50793"
       sodipodi:rx="22.273155"
       sodipodi:ry="39.406353"
       sodipodi:start="4.2287925"
       sodipodi:end="2.0243981"
       d="m 1721.033,569.62037 a 22.273155,39.406353 0 0 1 27.4662,9.65849 22.273155,39.406353 0 0 1 0.4199,49.53896 22.273155,39.406353 0 0 1 -27.29,11.11149"
       sodipodi:open="true" />
    <path
       style="opacity:1;fill:#0000ff;fill-opacity:0;stroke:#000000;stroke-width:2;stroke-miterlimit:4;stroke-dasharray:8,8;stroke-dashoffset:0;stroke-opacity:1"
       id="path5736"
       sodipodi:type="arc"
       sodipodi:cx="1596.608"
       sodipodi:cy="604.50793"
       sodipodi:rx="22.273155"
       sodipodi:ry="39.406353"
       sodipodi:start="4.2287925"
       sodipodi:end="2.0243981"
       d="m 1586.2518,569.62037 a 22.273155,39.406353 0 0 1 27.4661,9.65849 22.273155,39.406353 0 0 1 0.42,49.53896 22.273155,39.406353 0 0 1 -27.2901,11.11149"
       sodipodi:open="true" />
    <path
       sodipodi:open="true"
       d="m 1631.0837,569.62037 a 22.273155,39.406353 0 0 1 27.4661,9.65849 22.273155,39.406353 0 0 1 0.42,49.53896 22.273155,39.406353 0 0 1 -27.2901,11.11149"
       sodipodi:end="2.0243981"
       sodipodi:start="4.2287925"
       sodipodi:ry="39.406353"
       sodipodi:rx="22.273155"
       sodipodi:cy="604.50793"
       sodipodi:cx="1641.4399"
       sodipodi:type="arc"
       id="path5738"
       style="opacity:1;fill:#0000ff;fill-opacity:0;stroke:#000000;stroke-width:2;stroke-miterlimit:4;stroke-dasharray:none;stroke-dashoffset:0;stroke-opacity:1" />
    <path
       sodipodi:open="true"
       d="m 1496.8991,569.62037 a 22.273155,39.406353 0 0 1 27.4662,9.65849 22.273155,39.406353 0 0 1 0.4199,49.53896 22.273155,39.406353 0 0 1 -27.2901,11.11149"
       sodipodi:end="2.0243981"
       sodipodi:start="4.2287925"
       sodipodi:ry="39.406353"
       sodipodi:rx="22.273155"
       sodipodi:cy="604.50793"
       sodipodi:cx="1507.2554"
       sodipodi:type="arc"
       id="path5740"
       style="opacity:1;fill:#0000ff;fill-opacity:0;stroke:#000000;stroke-width:2;stroke-miterlimit:4;stroke-dasharray:none;stroke-dashoffset:0;stroke-opacity:1" />
    <path
       style="opacity:1;fill:#0000ff;fill-opacity:0;stroke:#000000;stroke-width:2;stroke-miterlimit:4;stroke-dasharray:8,8;stroke-dashoffset:0;stroke-opacity:1"
       id="path5742"
       sodipodi:type="arc"
       sodipodi:cx="1552.0873"
       sodipodi:cy="604.50793"
       sodipodi:rx="22.273155"
       sodipodi:ry="39.406353"
       sodipodi:start="4.2287925"
       sodipodi:end="2.0243981"
       d="m 1541.731,569.62037 a 22.273155,39.406353 0 0 1 27.4662,9.65849 22.273155,39.406353 0 0 1 0.4199,49.53896 22.273155,39.406353 0 0 1 -27.29,11.11149"
       sodipodi:open="true" />
    <path
       style="opacity:1;fill:#0000ff;fill-opacity:0;stroke:#000000;stroke-width:2;stroke-miterlimit:4;stroke-dasharray:8,8;stroke-dashoffset:0;stroke-opacity:1"
       id="path5746"
       sodipodi:type="arc"
       sodipodi:cx="1417.306"
       sodipodi:cy="604.50793"
       sodipodi:rx="22.273155"
       sodipodi:ry="39.406353"
       sodipodi:start="4.2287925"
       sodipodi:end="2.0243981"
       d="m 1406.9498,569.62037 a 22.273155,39.406353 0 0 1 27.4661,9.65849 22.273155,39.406353 0 0 1 0.42,49.53896 22.273155,39.406353 0 0 1 -27.2901,11.11149"
       sodipodi:open="true" />
    <path
       sodipodi:open="true"
       d="m 1451.7817,569.62037 a 22.273155,39.406353 0 0 1 27.4661,9.65849 22.273155,39.406353 0 0 1 0.42,49.53896 22.273155,39.406353 0 0 1 -27.2901,11.11149"
       sodipodi:end="2.0243981"
       sodipodi:start="4.2287925"
       sodipodi:ry="39.406353"
       sodipodi:rx="22.273155"
       sodipodi:cy="604.50793"
       sodipodi:cx="1462.1379"
       sodipodi:type="arc"
       id="path5748"
       style="opacity:1;fill:#0000ff;fill-opacity:0;stroke:#000000;stroke-width:2;stroke-miterlimit:4;stroke-dasharray:8,8;stroke-dashoffset:0;stroke-opacity:1" />
    <path
       style="opacity:1;fill:#0000ff;fill-opacity:0;stroke:#000000;stroke-width:2;stroke-miterlimit:4;stroke-dasharray:none;stroke-dashoffset:0;stroke-opacity:1"
       id="path5750"
       sodipodi:type="arc"
       sodipodi:cx="1325.5304"
       sodipodi:cy="604.50793"
       sodipodi:rx="22.273155"
       sodipodi:ry="39.406353"
       sodipodi:start="4.2287925"
       sodipodi:end="2.0243981"
       d="m 1315.1741,569.62037 a 22.273155,39.406353 0 0 1 27.4662,9.65849 22.273155,39.406353 0 0 1 0.4199,49.53896 22.273155,39.406353 0 0 1 -27.29,11.11149"
       sodipodi:open="true" />
    <path
       sodipodi:open="true"
       d="m 1360.006,569.62037 a 22.273155,39.406353 0 0 1 27.4662,9.65849 22.273155,39.406353 0 0 1 0.42,49.53896 22.273155,39.406353 0 0 1 -27.2901,11.11149"
       sodipodi:end="2.0243981"
       sodipodi:start="4.2287925"
       sodipodi:ry="39.406353"
       sodipodi:rx="22.273155"
       sodipodi:cy="604.50793"
       sodipodi:cx="1370.3623"
       sodipodi:type="arc"
       id="path5752"
       style="opacity:1;fill:#0000ff;fill-opacity:0;stroke:#000000;stroke-width:2;stroke-miterlimit:4;stroke-dasharray:none;stroke-dashoffset:0;stroke-opacity:1" />
    <path
       style="opacity:1;fill:#0000ff;fill-opacity:0;stroke:#000000;stroke-width:2;stroke-miterlimit:4;stroke-dasharray:none;stroke-dashoffset:0;stroke-opacity:1"
       id="path5756"
       sodipodi:type="arc"
       sodipodi:cx="1280.413"
       sodipodi:cy="604.50793"
       sodipodi:rx="22.273155"
       sodipodi:ry="39.406353"
       sodipodi:start="4.2287925"
       sodipodi:end="2.0243981"
       d="m 1270.0567,569.62037 a 22.273155,39.406353 0 0 1 27.4662,9.65849 22.273155,39.406353 0 0 1 0.4199,49.53896 22.273155,39.406353 0 0 1 -27.2901,11.11149"
       sodipodi:open="true" />
    <path
       style="fill:none;fill-rule:evenodd;stroke:#000000;stroke-width:2;stroke-linecap:butt;stroke-linejoin:miter;stroke-miterlimit:4;stroke-dasharray:none;stroke-opacity:1"
       d="m 1984.7047,569.59586 -178.4082,0 m -86.0165,0 -100.5987,0 m 0.055,0 0.2856,0 m -85.6111,0 -47.4568,0 m -85.9516,0 -155.6303,0"
       id="path5758"
       inkscape:connector-curvature="0"
       sodipodi:nodetypes="cccccccccc" />
    <path
       style="fill:none;fill-rule:evenodd;stroke:#000000;stroke-width:2;stroke-linecap:butt;stroke-linejoin:miter;stroke-miterlimit:4;stroke-dasharray:none;stroke-opacity:1"
       d="m 1241.7183,639.01685 158.713,0 m 85.9515,-0.28555 47.3039,0.28555 m 85.4784,0 -1.1422,0 m 2.4314,0 100.2295,0 m 86.0959,0 184.4533,0"
       id="path5760"
       inkscape:connector-curvature="0"
       sodipodi:nodetypes="cccccccccc" />
    <rect
       style="opacity:1;fill:#0000ff;fill-opacity:0;stroke:#000000;stroke-width:2;stroke-miterlimit:4;stroke-dasharray:none;stroke-dashoffset:0;stroke-opacity:1"
       id="rect5778"
       width="27.460665"
       height="293.99066"
       x="1239.7183"
       y="459.3302" />
    <rect
       style="opacity:1;fill:#0000ff;fill-opacity:0;stroke:#000000;stroke-width:2;stroke-miterlimit:4;stroke-dasharray:none;stroke-dashoffset:0;stroke-opacity:1"
       id="rect5780"
       width="552.44397"
       height="184.14799"
       x="1368.9449"
       y="767.85883" />
    <rect
       style="opacity:1;fill:#0000ff;fill-opacity:0;stroke:#000000;stroke-width:2;stroke-miterlimit:4;stroke-dasharray:none;stroke-dashoffset:0;stroke-opacity:1"
       id="rect5782"
       width="85.612663"
       height="292.37531"
       x="1720.7797"
       y="475.48352" />
    <rect
       y="475.27472"
       x="1533.8849"
       height="182.14256"
       width="86.030243"
       id="rect5786"
       style="opacity:1;fill:#0000ff;fill-opacity:0;stroke:#000000;stroke-width:1.58242071;stroke-miterlimit:4;stroke-dasharray:none;stroke-dashoffset:0;stroke-opacity:1" />
    <path
       style="fill:none;fill-rule:evenodd;stroke:#000000;stroke-width:2;stroke-linecap:butt;stroke-linejoin:miter;stroke-opacity:1;stroke-miterlimit:4;stroke-dasharray:none"
       d="m 1534.5166,558.26936 85.6127,0"
       id="path5788"
       inkscape:connector-curvature="0" />
    <rect
       y="475.48352"
       x="1400.9437"
       height="292.37531"
       width="85.612663"
       id="rect5792"
       style="opacity:1;fill:#0000ff;fill-opacity:0;stroke:#000000;stroke-width:2;stroke-miterlimit:4;stroke-dasharray:none;stroke-dashoffset:0;stroke-opacity:1" />
    <rect
       style="opacity:1;fill:#0000ff;fill-opacity:0;stroke:#000000;stroke-width:2;stroke-miterlimit:4;stroke-dasharray:none;stroke-dashoffset:0;stroke-opacity:1"
       id="rect5794"
       width="29.69754"
       height="301.54425"
       x="1936.8157"
       y="600.15002"
       ry="14.84877"
       transform="matrix(0.99719709,-0.0748196,0.0748196,0.99719709,0,0)" />
    <path
       style="fill:none;fill-rule:evenodd;stroke:#000000;stroke-width:1px;stroke-linecap:butt;stroke-linejoin:miter;stroke-opacity:1;marker-start:url(#marker4454);marker-end:url(#marker6370)"
       d="m 1619.7362,447.45365 101.0859,0"
       id="path5796"
       inkscape:connector-curvature="0" />
    <text
       xml:space="preserve"
       style="font-style:normal;font-weight:normal;font-size:40px;line-height:125%;font-family:sans-serif;letter-spacing:0px;word-spacing:0px;fill:#000000;fill-opacity:1;stroke:none;stroke-width:1px;stroke-linecap:butt;stroke-linejoin:miter;stroke-opacity:1"
       x="1627.3982"
       y="422.9852"
       id="text5840"
       sodipodi:linespacing="125%"><tspan
         sodipodi:role="line"
         id="tspan5842"
         x="1627.3982"
         y="422.9852">$z$</tspan></text>
    <path
       style="fill:none;fill-rule:evenodd;stroke:#000000;stroke-width:1px;stroke-linecap:butt;stroke-linejoin:miter;stroke-opacity:1;marker-start:url(#Arrow1Lstart);marker-end:url(#marker5944)"
       d="m 327.05502,241.26021 137.30333,0"
       id="path5918"
       inkscape:connector-curvature="0" />
    <text
       xml:space="preserve"
       style="font-style:normal;font-weight:normal;font-size:40px;line-height:125%;font-family:sans-serif;letter-spacing:0px;word-spacing:0px;fill:#000000;fill-opacity:1;stroke:none;stroke-width:1px;stroke-linecap:butt;stroke-linejoin:miter;stroke-opacity:1"
       x="358.55399"
       y="225.10689"
       id="text6008"
       sodipodi:linespacing="125%"><tspan
         sodipodi:role="line"
         id="tspan6010"
         x="358.55399"
         y="225.10689">$h$</tspan></text>
    <path
       style="fill:none;fill-rule:evenodd;stroke:#000000;stroke-width:1;stroke-linecap:butt;stroke-linejoin:miter;stroke-miterlimit:4;stroke-dasharray:3,3;stroke-dashoffset:0;stroke-opacity:1"
       d="m 420.74435,374.5252 0,-205.95499"
       id="path6012"
       inkscape:connector-curvature="0" />
    <path
       style="fill:none;fill-rule:evenodd;stroke:#000000;stroke-width:1px;stroke-linecap:butt;stroke-linejoin:miter;stroke-opacity:1;marker-start:url(#marker6070);marker-end:url(#marker6146)"
       d="m 421.55201,179.06988 41.99867,0"
       id="path6062"
       inkscape:connector-curvature="0" />
    <text
       xml:space="preserve"
       style="font-style:normal;font-weight:normal;font-size:40px;line-height:125%;font-family:sans-serif;letter-spacing:0px;word-spacing:0px;fill:#000000;fill-opacity:1;stroke:none;stroke-width:1px;stroke-linecap:butt;stroke-linejoin:miter;stroke-opacity:1"
       x="428.01334"
       y="163.72421"
       id="text6222"
       sodipodi:linespacing="125%"><tspan
         sodipodi:role="line"
         id="tspan6224"
         x="428.01334"
         y="163.72421">$z-z_0$</tspan></text>
  </g>
</svg>
