<?xml version="1.0" encoding="utf-8" standalone="no"?><!DOCTYPE svg PUBLIC "-//W3C//DTD SVG 1.1//EN" "http://www.w3.org/Graphics/SVG/1.1/DTD/svg11.dtd">
<svg preserveAspectRatio="xMinYMin meet" width="100%" height="100%" viewBox="0 0 560.000 420.000"  version="1.1" xmlns="http://www.w3.org/2000/svg" xmlns:xlink="http://www.w3.org/1999/xlink">
  <desc>Matlab Figure Converted by PLOT2SVG written by Juerg Schwizer</desc>
  <g id="topgroup">
  <rect x="0" y="0" width="560.000" height="420.000" fill="#ffffff" stroke="none" />
  <g id ="ID000000">
  <clipPath id="ID000001">
    <rect x="87.000" y="31.500" width="419.800" height="327.500"/>
  </clipPath>
      <polygon fill="#ffffff" fill-opacity="1.00" stroke="none" stroke-width="0.5pt" stroke-opacity="1.00" stroke-dasharray="none" points="87.000,359.000 506.800,359.000 506.800,31.500 87.000,31.500 "/>
      <polygon fill="#ffffff" fill-opacity="1.00" stroke="none" stroke-width="0.5pt" stroke-opacity="1.00" stroke-dasharray="none" points="87.000,31.500 506.800,31.500 506.800,31.500 87.000,31.500 "/>
      <polygon fill="#ffffff" fill-opacity="1.00" stroke="none" stroke-width="0.5pt" stroke-opacity="1.00" stroke-dasharray="none" points="87.000,359.000 87.000,359.000 87.000,31.500 87.000,31.500 "/>
    <g>
<g id="ID000002" clip-path="url(#ID000001)" >
<g id="ID000003" clip-path="url(#ID000001)" >
      <polyline fill="none" stroke="#ff0000" stroke-width="3.0pt" stroke-dasharray="none" points="506.800,288.283 506.800,337.171 "/>
      <polyline fill="none" stroke="#ff0000" stroke-width="3.0pt" stroke-dasharray="none" points="510.837,288.283 502.763,288.283 "/>
      <polyline fill="none" stroke="#ff0000" stroke-width="3.0pt" stroke-dasharray="none" points="510.837,337.171 502.763,337.171 "/>
      <polyline fill="none" stroke="#ff0000" stroke-width="3.0pt" stroke-dasharray="none" points="490.654,288.210 490.654,336.288 "/>
      <polyline fill="none" stroke="#ff0000" stroke-width="3.0pt" stroke-dasharray="none" points="494.690,288.210 486.617,288.210 "/>
      <polyline fill="none" stroke="#ff0000" stroke-width="3.0pt" stroke-dasharray="none" points="494.690,336.288 486.617,336.288 "/>
      <polyline fill="none" stroke="#ff0000" stroke-width="3.0pt" stroke-dasharray="none" points="458.362,279.577 458.362,335.356 "/>
      <polyline fill="none" stroke="#ff0000" stroke-width="3.0pt" stroke-dasharray="none" points="462.398,279.577 454.325,279.577 "/>
      <polyline fill="none" stroke="#ff0000" stroke-width="3.0pt" stroke-dasharray="none" points="462.398,335.356 454.325,335.356 "/>
      <polyline fill="none" stroke="#ff0000" stroke-width="3.0pt" stroke-dasharray="none" points="426.069,276.734 426.069,336.133 "/>
      <polyline fill="none" stroke="#ff0000" stroke-width="3.0pt" stroke-dasharray="none" points="430.106,276.734 422.033,276.734 "/>
      <polyline fill="none" stroke="#ff0000" stroke-width="3.0pt" stroke-dasharray="none" points="430.106,336.133 422.033,336.133 "/>
      <polyline fill="none" stroke="#ff0000" stroke-width="3.0pt" stroke-dasharray="none" points="361.485,264.388 361.485,332.642 "/>
      <polyline fill="none" stroke="#ff0000" stroke-width="3.0pt" stroke-dasharray="none" points="365.521,264.388 357.448,264.388 "/>
      <polyline fill="none" stroke="#ff0000" stroke-width="3.0pt" stroke-dasharray="none" points="365.521,332.642 357.448,332.642 "/>
      <polyline fill="none" stroke="#ff0000" stroke-width="3.0pt" stroke-dasharray="none" points="296.900,252.560 296.900,324.162 "/>
      <polyline fill="none" stroke="#ff0000" stroke-width="3.0pt" stroke-dasharray="none" points="300.937,252.560 292.863,252.560 "/>
      <polyline fill="none" stroke="#ff0000" stroke-width="3.0pt" stroke-dasharray="none" points="300.937,324.162 292.863,324.162 "/>
      <polyline fill="none" stroke="#ff0000" stroke-width="3.0pt" stroke-dasharray="none" points="232.315,230.372 232.315,306.078 "/>
      <polyline fill="none" stroke="#ff0000" stroke-width="3.0pt" stroke-dasharray="none" points="236.352,230.372 228.279,230.372 "/>
      <polyline fill="none" stroke="#ff0000" stroke-width="3.0pt" stroke-dasharray="none" points="236.352,306.078 228.279,306.078 "/>
      <polyline fill="none" stroke="#ff0000" stroke-width="3.0pt" stroke-dasharray="none" points="167.731,209.216 167.731,311.707 "/>
      <polyline fill="none" stroke="#ff0000" stroke-width="3.0pt" stroke-dasharray="none" points="171.767,209.216 163.694,209.216 "/>
      <polyline fill="none" stroke="#ff0000" stroke-width="3.0pt" stroke-dasharray="none" points="171.767,311.707 163.694,311.707 "/>
      <polyline fill="none" stroke="#ff0000" stroke-width="3.0pt" stroke-dasharray="none" points="103.146,187.624 103.146,306.619 "/>
      <polyline fill="none" stroke="#ff0000" stroke-width="3.0pt" stroke-dasharray="none" points="107.183,187.624 99.110,187.624 "/>
      <polyline fill="none" stroke="#ff0000" stroke-width="3.0pt" stroke-dasharray="none" points="107.183,306.619 99.110,306.619 "/>
<g>
</g>
</g>
<g id="ID000004" clip-path="url(#ID000001)" >
      <polyline fill="none" stroke="#ff0000" stroke-width="3.0pt" stroke-dasharray="none" points="506.800,312.727 490.654,312.249 458.362,307.467 426.069,306.434 361.485,298.515 296.900,288.361 232.315,268.225 167.731,260.461 103.146,247.121 "/>
<g>
</g>
</g>
</g><g id="ID000005" clip-path="url(#ID000001)" >
<g id="ID000006" clip-path="url(#ID000001)" >
      <polyline fill="none" stroke="#0000ff" stroke-width="3.0pt" stroke-dasharray="none" points="506.800,296.682 506.800,344.872 "/>
      <polyline fill="none" stroke="#0000ff" stroke-width="3.0pt" stroke-dasharray="none" points="510.837,296.682 502.763,296.682 "/>
      <polyline fill="none" stroke="#0000ff" stroke-width="3.0pt" stroke-dasharray="none" points="510.837,344.872 502.763,344.872 "/>
      <polyline fill="none" stroke="#0000ff" stroke-width="3.0pt" stroke-dasharray="none" points="490.654,296.271 490.654,343.839 "/>
      <polyline fill="none" stroke="#0000ff" stroke-width="3.0pt" stroke-dasharray="none" points="494.690,296.271 486.617,296.271 "/>
      <polyline fill="none" stroke="#0000ff" stroke-width="3.0pt" stroke-dasharray="none" points="494.690,343.839 486.617,343.839 "/>
      <polyline fill="none" stroke="#0000ff" stroke-width="3.0pt" stroke-dasharray="none" points="458.362,282.266 458.362,345.375 "/>
      <polyline fill="none" stroke="#0000ff" stroke-width="3.0pt" stroke-dasharray="none" points="462.398,282.266 454.325,282.266 "/>
      <polyline fill="none" stroke="#0000ff" stroke-width="3.0pt" stroke-dasharray="none" points="462.398,345.375 454.325,345.375 "/>
      <polyline fill="none" stroke="#0000ff" stroke-width="3.0pt" stroke-dasharray="none" points="426.069,276.771 426.069,343.581 "/>
      <polyline fill="none" stroke="#0000ff" stroke-width="3.0pt" stroke-dasharray="none" points="430.106,276.771 422.033,276.771 "/>
      <polyline fill="none" stroke="#0000ff" stroke-width="3.0pt" stroke-dasharray="none" points="430.106,343.581 422.033,343.581 "/>
      <polyline fill="none" stroke="#0000ff" stroke-width="3.0pt" stroke-dasharray="none" points="361.485,258.741 361.485,341.992 "/>
      <polyline fill="none" stroke="#0000ff" stroke-width="3.0pt" stroke-dasharray="none" points="365.521,258.741 357.448,258.741 "/>
      <polyline fill="none" stroke="#0000ff" stroke-width="3.0pt" stroke-dasharray="none" points="365.521,341.992 357.448,341.992 "/>
      <polyline fill="none" stroke="#0000ff" stroke-width="3.0pt" stroke-dasharray="none" points="296.900,255.079 296.900,322.451 "/>
      <polyline fill="none" stroke="#0000ff" stroke-width="3.0pt" stroke-dasharray="none" points="300.937,255.079 292.863,255.079 "/>
      <polyline fill="none" stroke="#0000ff" stroke-width="3.0pt" stroke-dasharray="none" points="300.937,322.451 292.863,322.451 "/>
      <polyline fill="none" stroke="#0000ff" stroke-width="3.0pt" stroke-dasharray="none" points="232.315,199.897 232.315,322.012 "/>
      <polyline fill="none" stroke="#0000ff" stroke-width="3.0pt" stroke-dasharray="none" points="236.352,199.897 228.279,199.897 "/>
      <polyline fill="none" stroke="#0000ff" stroke-width="3.0pt" stroke-dasharray="none" points="236.352,322.012 228.279,322.012 "/>
      <polyline fill="none" stroke="#0000ff" stroke-width="3.0pt" stroke-dasharray="none" points="167.731,134.362 167.731,298.999 "/>
      <polyline fill="none" stroke="#0000ff" stroke-width="3.0pt" stroke-dasharray="none" points="171.767,134.362 163.694,134.362 "/>
      <polyline fill="none" stroke="#0000ff" stroke-width="3.0pt" stroke-dasharray="none" points="171.767,298.999 163.694,298.999 "/>
      <polyline fill="none" stroke="#0000ff" stroke-width="3.0pt" stroke-dasharray="none" points="103.146,114.144 103.146,293.025 "/>
      <polyline fill="none" stroke="#0000ff" stroke-width="3.0pt" stroke-dasharray="none" points="107.183,114.144 99.110,114.144 "/>
      <polyline fill="none" stroke="#0000ff" stroke-width="3.0pt" stroke-dasharray="none" points="107.183,293.025 99.110,293.025 "/>
<g>
</g>
</g>
<g id="ID000007" clip-path="url(#ID000001)" >
      <polyline fill="none" stroke="#0000ff" stroke-width="3.0pt" stroke-dasharray="none" points="506.800,320.777 490.654,320.055 458.362,313.821 426.069,310.176 361.485,300.366 296.900,288.765 232.315,260.955 167.731,216.680 103.146,203.585 "/>
<g>
</g>
</g>
</g><g id="ID000008" clip-path="url(#ID000001)" >
<g>
      <polygon fill="#ff0000" fill-opacity="1.00" stroke="#ff0000" stroke-width="3.0pt" stroke-opacity="1.00" stroke-dasharray="none" points="503.467,309.394 503.467,316.060 510.133,316.060 510.133,309.394 503.467,309.394 "/>
      <polygon fill="#ff0000" fill-opacity="1.00" stroke="#ff0000" stroke-width="3.0pt" stroke-opacity="1.00" stroke-dasharray="none" points="487.321,308.916 487.321,315.582 493.987,315.582 493.987,308.916 487.321,308.916 "/>
      <polygon fill="#ff0000" fill-opacity="1.00" stroke="#ff0000" stroke-width="3.0pt" stroke-opacity="1.00" stroke-dasharray="none" points="455.028,304.134 455.028,310.800 461.695,310.800 461.695,304.134 455.028,304.134 "/>
      <polygon fill="#ff0000" fill-opacity="1.00" stroke="#ff0000" stroke-width="3.0pt" stroke-opacity="1.00" stroke-dasharray="none" points="422.736,303.100 422.736,309.767 429.403,309.767 429.403,303.100 422.736,303.100 "/>
      <polygon fill="#ff0000" fill-opacity="1.00" stroke="#ff0000" stroke-width="3.0pt" stroke-opacity="1.00" stroke-dasharray="none" points="358.151,295.182 358.151,301.849 364.818,301.849 364.818,295.182 358.151,295.182 "/>
      <polygon fill="#ff0000" fill-opacity="1.00" stroke="#ff0000" stroke-width="3.0pt" stroke-opacity="1.00" stroke-dasharray="none" points="293.567,285.028 293.567,291.694 300.233,291.694 300.233,285.028 293.567,285.028 "/>
      <polygon fill="#ff0000" fill-opacity="1.00" stroke="#ff0000" stroke-width="3.0pt" stroke-opacity="1.00" stroke-dasharray="none" points="228.982,264.891 228.982,271.558 235.649,271.558 235.649,264.891 228.982,264.891 "/>
      <polygon fill="#ff0000" fill-opacity="1.00" stroke="#ff0000" stroke-width="3.0pt" stroke-opacity="1.00" stroke-dasharray="none" points="164.397,257.128 164.397,263.795 171.064,263.795 171.064,257.128 164.397,257.128 "/>
      <polygon fill="#ff0000" fill-opacity="1.00" stroke="#ff0000" stroke-width="3.0pt" stroke-opacity="1.00" stroke-dasharray="none" points="99.813,243.788 99.813,250.454 106.479,250.454 106.479,243.788 99.813,243.788 "/>
</g>
</g>
<g id="ID000009" clip-path="url(#ID000001)" >
<g>
      <polygon fill="#0000ff" fill-opacity="1.00" stroke="#0000ff" stroke-width="3.0pt" stroke-opacity="1.00" stroke-dasharray="none" points="503.467,317.443 503.467,324.110 510.133,324.110 510.133,317.443 503.467,317.443 "/>
      <polygon fill="#0000ff" fill-opacity="1.00" stroke="#0000ff" stroke-width="3.0pt" stroke-opacity="1.00" stroke-dasharray="none" points="487.321,316.722 487.321,323.388 493.987,323.388 493.987,316.722 487.321,316.722 "/>
      <polygon fill="#0000ff" fill-opacity="1.00" stroke="#0000ff" stroke-width="3.0pt" stroke-opacity="1.00" stroke-dasharray="none" points="455.028,310.487 455.028,317.154 461.695,317.154 461.695,310.487 455.028,310.487 "/>
      <polygon fill="#0000ff" fill-opacity="1.00" stroke="#0000ff" stroke-width="3.0pt" stroke-opacity="1.00" stroke-dasharray="none" points="422.736,306.843 422.736,313.509 429.403,313.509 429.403,306.843 422.736,306.843 "/>
      <polygon fill="#0000ff" fill-opacity="1.00" stroke="#0000ff" stroke-width="3.0pt" stroke-opacity="1.00" stroke-dasharray="none" points="358.151,297.033 358.151,303.700 364.818,303.700 364.818,297.033 358.151,297.033 "/>
      <polygon fill="#0000ff" fill-opacity="1.00" stroke="#0000ff" stroke-width="3.0pt" stroke-opacity="1.00" stroke-dasharray="none" points="293.567,285.432 293.567,292.099 300.233,292.099 300.233,285.432 293.567,285.432 "/>
      <polygon fill="#0000ff" fill-opacity="1.00" stroke="#0000ff" stroke-width="3.0pt" stroke-opacity="1.00" stroke-dasharray="none" points="228.982,257.621 228.982,264.288 235.649,264.288 235.649,257.621 228.982,257.621 "/>
      <polygon fill="#0000ff" fill-opacity="1.00" stroke="#0000ff" stroke-width="3.0pt" stroke-opacity="1.00" stroke-dasharray="none" points="164.397,213.347 164.397,220.014 171.064,220.014 171.064,213.347 164.397,213.347 "/>
      <polygon fill="#0000ff" fill-opacity="1.00" stroke="#0000ff" stroke-width="3.0pt" stroke-opacity="1.00" stroke-dasharray="none" points="99.813,200.251 99.813,206.918 106.479,206.918 106.479,200.251 99.813,200.251 "/>
</g>
</g>
<g id="ID000010" clip-path="url(#ID000001)" >
      <polyline fill="none" stroke="#000000" stroke-width="1.5pt" stroke-dasharray="8.0,2.0" points="506.800,337.167 87.000,337.167 "/>
<g>
</g>
</g>
<g id="ID000011" clip-path="url(#ID000001)" >
      <polyline fill="none" stroke="#ff0000" stroke-width="1.5pt" stroke-dasharray="none" points="506.800,260.867 490.654,260.867 458.362,245.060 426.069,245.060 361.485,232.937 296.900,224.882 232.315,179.086 167.731,128.551 103.146,86.219 "/>
<g>
</g>
</g>
<g id="ID000012" clip-path="url(#ID000001)" >
      <polyline fill="none" stroke="#000000" stroke-width="1.0pt" stroke-dasharray="8.0,2.0" points="506.800,315.333 87.000,315.333 "/>
<g>
</g>
</g>
<g id="ID000013" >
  <g transform="translate(296.400,415.660)">
    <g transform="rotate(-0.0)">
      <text x="0.000" y="0.000" font-family="Helvetica" text-anchor="middle" font-size="18pt" fill="#000000" >time until impact in sec</text>
    </g>
  </g>
</g>
<g id="ID000014" >
  <g transform="translate(33.024,196.252)">
    <g transform="rotate(-90.0)">
      <text x="0.000" y="0.000" font-family="Helvetica" text-anchor="middle" font-size="18pt" fill="#000000" >error in centimeter</text>
    </g>
  </g>
</g>
<g id="ID000015" >
</g>
<g id="ID000016" >
</g>
<g id="ID000017" >
</g>
    </g>
    <g>
      <polyline fill="none" stroke="#000000" stroke-width="0.5pt" stroke-dasharray="none" points="377.631,359.000 377.631,354.802 "/>
      <polyline fill="none" stroke="#000000" stroke-width="0.5pt" stroke-dasharray="none" points="248.462,359.000 248.462,354.802 "/>
      <polyline fill="none" stroke="#000000" stroke-width="0.5pt" stroke-dasharray="none" points="119.292,359.000 119.292,354.802 "/>
      <polyline fill="none" stroke="#000000" stroke-width="0.5pt" stroke-dasharray="none" points="87.000,359.000 506.800,359.000 "/>
      <polyline fill="none" stroke="#000000" stroke-width="0.5pt" stroke-dasharray="none" points="377.631,31.500 377.631,35.698 "/>
      <polyline fill="none" stroke="#000000" stroke-width="0.5pt" stroke-dasharray="none" points="248.462,31.500 248.462,35.698 "/>
      <polyline fill="none" stroke="#000000" stroke-width="0.5pt" stroke-dasharray="none" points="119.292,31.500 119.292,35.698 "/>
      <polyline fill="none" stroke="#000000" stroke-width="0.5pt" stroke-dasharray="none" points="87.000,31.500 506.800,31.500 "/>
  <g transform="translate(506.800,386.790)">
    <g transform="rotate(-0.0)">
      <text x="0.000" y="0.000" font-family="Helvetica" text-anchor="middle" font-size="18pt" fill="#000000" >0</text>
    </g>
  </g>
  <g transform="translate(377.631,386.790)">
    <g transform="rotate(-0.0)">
      <text x="0.000" y="0.000" font-family="Helvetica" text-anchor="middle" font-size="18pt" fill="#000000" >200</text>
    </g>
  </g>
  <g transform="translate(248.462,386.790)">
    <g transform="rotate(-0.0)">
      <text x="0.000" y="0.000" font-family="Helvetica" text-anchor="middle" font-size="18pt" fill="#000000" >400</text>
    </g>
  </g>
  <g transform="translate(119.292,386.790)">
    <g transform="rotate(-0.0)">
      <text x="0.000" y="0.000" font-family="Helvetica" text-anchor="middle" font-size="18pt" fill="#000000" >600</text>
    </g>
  </g>
      <polyline fill="none" stroke="#000000" stroke-width="0.5pt" stroke-dasharray="none" points="87.000,249.833 91.198,249.833 "/>
      <polyline fill="none" stroke="#000000" stroke-width="0.5pt" stroke-dasharray="none" points="87.000,140.667 91.198,140.667 "/>
      <polyline fill="none" stroke="#000000" stroke-width="0.5pt" stroke-dasharray="none" points="87.000,359.000 87.000,31.500 "/>
      <polyline fill="none" stroke="#000000" stroke-width="0.5pt" stroke-dasharray="none" points="506.800,249.833 502.602,249.833 "/>
      <polyline fill="none" stroke="#000000" stroke-width="0.5pt" stroke-dasharray="none" points="506.800,140.667 502.602,140.667 "/>
      <polyline fill="none" stroke="#000000" stroke-width="0.5pt" stroke-dasharray="none" points="506.800,359.000 506.800,31.500 "/>
  <g transform="translate(78.604,367.100)">
    <g transform="rotate(-0.0)">
      <text x="0.000" y="0.000" font-family="Helvetica" text-anchor="end" font-size="18pt" fill="#000000" >0</text>
    </g>
  </g>
  <g transform="translate(78.604,257.933)">
    <g transform="rotate(-0.0)">
      <text x="0.000" y="0.000" font-family="Helvetica" text-anchor="end" font-size="18pt" fill="#000000" >50</text>
    </g>
  </g>
  <g transform="translate(78.604,148.767)">
    <g transform="rotate(-0.0)">
      <text x="0.000" y="0.000" font-family="Helvetica" text-anchor="end" font-size="18pt" fill="#000000" >100</text>
    </g>
  </g>
  <g transform="translate(78.604,39.600)">
    <g transform="rotate(-0.0)">
      <text x="0.000" y="0.000" font-family="Helvetica" text-anchor="end" font-size="18pt" fill="#000000" >150</text>
    </g>
  </g>
      <polyline fill="none" stroke="#000000" stroke-width="0.5pt" stroke-dasharray="none" points="87.000,359.000 87.000,355.725 "/>
      <polyline fill="none" stroke="#000000" stroke-width="0.5pt" stroke-dasharray="none" points="87.000,359.000 87.000,359.000 "/>
    </g>
  </g>
  <g id ="ID000018">
  <clipPath id="ID000019">
    <rect x="325.750" y="38.750" width="176.500" height="187.500"/>
  </clipPath>
      <polygon fill="#ffffff" fill-opacity="1.00" stroke="none" stroke-width="0.5pt" stroke-opacity="1.00" stroke-dasharray="none" points="325.750,226.250 502.250,226.250 502.250,38.750 325.750,38.750 "/>
      <polygon fill="#ffffff" fill-opacity="1.00" stroke="none" stroke-width="0.5pt" stroke-opacity="1.00" stroke-dasharray="none" points="325.750,38.750 502.250,38.750 502.250,38.750 325.750,38.750 "/>
      <polygon fill="#ffffff" fill-opacity="1.00" stroke="none" stroke-width="0.5pt" stroke-opacity="1.00" stroke-dasharray="none" points="325.750,226.250 325.750,226.250 325.750,38.750 325.750,38.750 "/>
    <g>
<g id="ID000020" >
  <g transform="translate(375.391,68.407)">
    <g transform="rotate(-0.0)">
      <text x="0.000" y="0.000" font-family="Helvetica" text-anchor="start" font-size="18pt" fill="#000000" >LMProMPs</text>
    </g>
  </g>
</g>
<g id="ID000021" clip-path="url(#ID000019)" >
<g id="ID000022" clip-path="url(#ID000019)" >
<g id="ID000023" clip-path="url(#ID000019)" >
      <polyline fill="none" stroke="#ff0000" stroke-width="3.0pt" stroke-dasharray="none" points="333.250,59.250 370.750,59.250 "/>
<g>
</g>
</g>
<g id="ID000024" clip-path="url(#ID000019)" >
<g>
</g>
</g>
</g></g><g id="ID000025" >
  <g transform="translate(375.391,104.504)">
    <g transform="rotate(-0.0)">
      <text x="0.000" y="0.000" font-family="Helvetica" text-anchor="start" font-size="18pt" fill="#000000" >ProMPs</text>
    </g>
  </g>
</g>
<g id="ID000026" clip-path="url(#ID000019)" >
<g id="ID000027" clip-path="url(#ID000019)" >
<g id="ID000028" clip-path="url(#ID000019)" >
      <polyline fill="none" stroke="#0000ff" stroke-width="3.0pt" stroke-dasharray="none" points="333.250,95.875 370.750,95.875 "/>
<g>
</g>
</g>
<g id="ID000029" clip-path="url(#ID000019)" >
<g>
</g>
</g>
</g></g><g id="ID000030" >
  <g transform="translate(375.391,141.603)">
    <g transform="rotate(-0.0)">
      <text x="0.000" y="0.000" font-family="Helvetica" text-anchor="start" font-size="18pt" fill="#000000" >max</text>
    </g>
  </g>
</g>
<g id="ID000031" clip-path="url(#ID000019)" >
      <polyline fill="none" stroke="#ff0000" stroke-width="1.5pt" stroke-dasharray="none" points="333.250,132.500 370.750,132.500 "/>
<g>
</g>
</g>
<g id="ID000032" clip-path="url(#ID000019)" >
<g>
</g>
</g>
<g id="ID000033" >
  <g transform="translate(375.391,178.702)">
    <g transform="rotate(-0.0)">
      <text x="0.000" y="0.000" font-family="Helvetica" text-anchor="start" font-size="18pt" fill="#000000" >20cm</text>
    </g>
  </g>
</g>
<g id="ID000034" clip-path="url(#ID000019)" >
      <polyline fill="none" stroke="#000000" stroke-width="1.0pt" stroke-dasharray="8.0,2.0" points="333.250,169.125 370.750,169.125 "/>
<g>
</g>
</g>
<g id="ID000035" clip-path="url(#ID000019)" >
<g>
</g>
</g>
<g id="ID000036" >
  <g transform="translate(375.391,214.798)">
    <g transform="rotate(-0.0)">
      <text x="0.000" y="0.000" font-family="Helvetica" text-anchor="start" font-size="18pt" fill="#000000" >10cm</text>
    </g>
  </g>
</g>
<g id="ID000037" clip-path="url(#ID000019)" >
      <polyline fill="none" stroke="#000000" stroke-width="1.5pt" stroke-dasharray="8.0,2.0" points="333.250,205.750 370.750,205.750 "/>
<g>
</g>
</g>
<g id="ID000038" clip-path="url(#ID000019)" >
<g>
</g>
</g>
<g id="ID000039" >
</g>
<g id="ID000040" >
</g>
<g id="ID000041" >
</g>
    </g>
    <g>
      <polyline fill="none" stroke="#000000" stroke-width="0.5pt" stroke-dasharray="none" points="325.750,226.250 502.250,226.250 "/>
      <polyline fill="none" stroke="#000000" stroke-width="0.5pt" stroke-dasharray="none" points="325.750,38.750 502.250,38.750 "/>
      <polyline fill="none" stroke="#000000" stroke-width="0.5pt" stroke-dasharray="none" points="325.750,226.250 325.750,38.750 "/>
      <polyline fill="none" stroke="#000000" stroke-width="0.5pt" stroke-dasharray="none" points="502.250,226.250 502.250,38.750 "/>
      <polyline fill="none" stroke="#000000" stroke-width="0.5pt" stroke-dasharray="none" points="325.750,226.250 325.750,224.375 "/>
      <polyline fill="none" stroke="#000000" stroke-width="0.5pt" stroke-dasharray="none" points="325.750,226.250 325.750,226.250 "/>
    </g>
  </g>
  </g>
</svg>
