<?xml version="1.0" encoding="utf-8" standalone="no"?><!DOCTYPE svg PUBLIC "-//W3C//DTD SVG 1.1//EN" "http://www.w3.org/Graphics/SVG/1.1/DTD/svg11.dtd">
<svg preserveAspectRatio="xMinYMin meet" width="100%" height="100%" viewBox="0 0 560.000 420.000"  version="1.1" xmlns="http://www.w3.org/2000/svg" xmlns:xlink="http://www.w3.org/1999/xlink">
  <desc>Matlab Figure Converted by PLOT2SVG written by Juerg Schwizer</desc>
  <g id="topgroup">
  <rect x="0" y="0" width="560.000" height="420.000" fill="#ffffff" stroke="none" />
  <g id ="ID000000">
  <clipPath id="ID000001">
    <rect x="87.000" y="31.500" width="419.800" height="327.500"/>
  </clipPath>
      <polygon fill="#ffffff" fill-opacity="1.00" stroke="none" stroke-width="0.5pt" stroke-opacity="1.00" stroke-dasharray="none" points="87.000,359.000 506.800,359.000 506.800,31.500 87.000,31.500 "/>
      <polygon fill="#ffffff" fill-opacity="1.00" stroke="none" stroke-width="0.5pt" stroke-opacity="1.00" stroke-dasharray="none" points="87.000,31.500 506.800,31.500 506.800,31.500 87.000,31.500 "/>
      <polygon fill="#ffffff" fill-opacity="1.00" stroke="none" stroke-width="0.5pt" stroke-opacity="1.00" stroke-dasharray="none" points="87.000,359.000 87.000,359.000 87.000,31.500 87.000,31.500 "/>
    <g>
<g id="ID000002" clip-path="url(#ID000001)" >
<g id="ID000003" clip-path="url(#ID000001)" >
      <polyline fill="none" stroke="#ff0000" stroke-width="3.0pt" stroke-dasharray="none" points="506.800,276.737 506.800,326.219 "/>
      <polyline fill="none" stroke="#ff0000" stroke-width="3.0pt" stroke-dasharray="none" points="510.837,276.737 502.763,276.737 "/>
      <polyline fill="none" stroke="#ff0000" stroke-width="3.0pt" stroke-dasharray="none" points="510.837,326.219 502.763,326.219 "/>
      <polyline fill="none" stroke="#ff0000" stroke-width="3.0pt" stroke-dasharray="none" points="490.654,276.737 490.654,326.219 "/>
      <polyline fill="none" stroke="#ff0000" stroke-width="3.0pt" stroke-dasharray="none" points="494.690,276.737 486.617,276.737 "/>
      <polyline fill="none" stroke="#ff0000" stroke-width="3.0pt" stroke-dasharray="none" points="494.690,326.219 486.617,326.219 "/>
      <polyline fill="none" stroke="#ff0000" stroke-width="3.0pt" stroke-dasharray="none" points="458.362,276.737 458.362,326.219 "/>
      <polyline fill="none" stroke="#ff0000" stroke-width="3.0pt" stroke-dasharray="none" points="462.398,276.737 454.325,276.737 "/>
      <polyline fill="none" stroke="#ff0000" stroke-width="3.0pt" stroke-dasharray="none" points="462.398,326.219 454.325,326.219 "/>
      <polyline fill="none" stroke="#ff0000" stroke-width="3.0pt" stroke-dasharray="none" points="426.069,276.737 426.069,326.219 "/>
      <polyline fill="none" stroke="#ff0000" stroke-width="3.0pt" stroke-dasharray="none" points="430.106,276.737 422.033,276.737 "/>
      <polyline fill="none" stroke="#ff0000" stroke-width="3.0pt" stroke-dasharray="none" points="430.106,326.219 422.033,326.219 "/>
      <polyline fill="none" stroke="#ff0000" stroke-width="3.0pt" stroke-dasharray="none" points="361.485,276.737 361.485,326.219 "/>
      <polyline fill="none" stroke="#ff0000" stroke-width="3.0pt" stroke-dasharray="none" points="365.521,276.737 357.448,276.737 "/>
      <polyline fill="none" stroke="#ff0000" stroke-width="3.0pt" stroke-dasharray="none" points="365.521,326.219 357.448,326.219 "/>
      <polyline fill="none" stroke="#ff0000" stroke-width="3.0pt" stroke-dasharray="none" points="296.900,276.737 296.900,326.219 "/>
      <polyline fill="none" stroke="#ff0000" stroke-width="3.0pt" stroke-dasharray="none" points="300.937,276.737 292.863,276.737 "/>
      <polyline fill="none" stroke="#ff0000" stroke-width="3.0pt" stroke-dasharray="none" points="300.937,326.219 292.863,326.219 "/>
      <polyline fill="none" stroke="#ff0000" stroke-width="3.0pt" stroke-dasharray="none" points="232.315,276.737 232.315,326.219 "/>
      <polyline fill="none" stroke="#ff0000" stroke-width="3.0pt" stroke-dasharray="none" points="236.352,276.737 228.279,276.737 "/>
      <polyline fill="none" stroke="#ff0000" stroke-width="3.0pt" stroke-dasharray="none" points="236.352,326.219 228.279,326.219 "/>
      <polyline fill="none" stroke="#ff0000" stroke-width="3.0pt" stroke-dasharray="none" points="167.731,276.737 167.731,326.219 "/>
      <polyline fill="none" stroke="#ff0000" stroke-width="3.0pt" stroke-dasharray="none" points="171.767,276.737 163.694,276.737 "/>
      <polyline fill="none" stroke="#ff0000" stroke-width="3.0pt" stroke-dasharray="none" points="171.767,326.219 163.694,326.219 "/>
      <polyline fill="none" stroke="#ff0000" stroke-width="3.0pt" stroke-dasharray="none" points="103.146,276.737 103.146,326.219 "/>
      <polyline fill="none" stroke="#ff0000" stroke-width="3.0pt" stroke-dasharray="none" points="107.183,276.737 99.110,276.737 "/>
      <polyline fill="none" stroke="#ff0000" stroke-width="3.0pt" stroke-dasharray="none" points="107.183,326.219 99.110,326.219 "/>
<g>
</g>
</g>
<g id="ID000004" clip-path="url(#ID000001)" >
      <polyline fill="none" stroke="#ff0000" stroke-width="3.0pt" stroke-dasharray="none" points="506.800,301.478 490.654,301.478 458.362,301.478 426.069,301.478 361.485,301.478 296.900,301.478 232.315,301.478 167.731,301.478 103.146,301.478 "/>
<g>
</g>
</g>
</g><g id="ID000005" clip-path="url(#ID000001)" >
<g id="ID000006" clip-path="url(#ID000001)" >
      <polyline fill="none" stroke="#0000ff" stroke-width="3.0pt" stroke-dasharray="none" points="506.800,346.150 506.800,357.055 "/>
      <polyline fill="none" stroke="#0000ff" stroke-width="3.0pt" stroke-dasharray="none" points="510.837,346.150 502.763,346.150 "/>
      <polyline fill="none" stroke="#0000ff" stroke-width="3.0pt" stroke-dasharray="none" points="510.837,357.055 502.763,357.055 "/>
      <polyline fill="none" stroke="#0000ff" stroke-width="3.0pt" stroke-dasharray="none" points="490.654,346.057 490.654,356.600 "/>
      <polyline fill="none" stroke="#0000ff" stroke-width="3.0pt" stroke-dasharray="none" points="494.690,346.057 486.617,346.057 "/>
      <polyline fill="none" stroke="#0000ff" stroke-width="3.0pt" stroke-dasharray="none" points="494.690,356.600 486.617,356.600 "/>
      <polyline fill="none" stroke="#0000ff" stroke-width="3.0pt" stroke-dasharray="none" points="458.362,347.724 458.362,356.977 "/>
      <polyline fill="none" stroke="#0000ff" stroke-width="3.0pt" stroke-dasharray="none" points="462.398,347.724 454.325,347.724 "/>
      <polyline fill="none" stroke="#0000ff" stroke-width="3.0pt" stroke-dasharray="none" points="462.398,356.977 454.325,356.977 "/>
      <polyline fill="none" stroke="#0000ff" stroke-width="3.0pt" stroke-dasharray="none" points="426.069,348.170 426.069,356.807 "/>
      <polyline fill="none" stroke="#0000ff" stroke-width="3.0pt" stroke-dasharray="none" points="430.106,348.170 422.033,348.170 "/>
      <polyline fill="none" stroke="#0000ff" stroke-width="3.0pt" stroke-dasharray="none" points="430.106,356.807 422.033,356.807 "/>
      <polyline fill="none" stroke="#0000ff" stroke-width="3.0pt" stroke-dasharray="none" points="361.485,340.603 361.485,356.047 "/>
      <polyline fill="none" stroke="#0000ff" stroke-width="3.0pt" stroke-dasharray="none" points="365.521,340.603 357.448,340.603 "/>
      <polyline fill="none" stroke="#0000ff" stroke-width="3.0pt" stroke-dasharray="none" points="365.521,356.047 357.448,356.047 "/>
      <polyline fill="none" stroke="#0000ff" stroke-width="3.0pt" stroke-dasharray="none" points="296.900,338.641 296.900,351.886 "/>
      <polyline fill="none" stroke="#0000ff" stroke-width="3.0pt" stroke-dasharray="none" points="300.937,338.641 292.863,338.641 "/>
      <polyline fill="none" stroke="#0000ff" stroke-width="3.0pt" stroke-dasharray="none" points="300.937,351.886 292.863,351.886 "/>
      <polyline fill="none" stroke="#0000ff" stroke-width="3.0pt" stroke-dasharray="none" points="232.315,313.292 232.315,358.418 "/>
      <polyline fill="none" stroke="#0000ff" stroke-width="3.0pt" stroke-dasharray="none" points="236.352,313.292 228.279,313.292 "/>
      <polyline fill="none" stroke="#0000ff" stroke-width="3.0pt" stroke-dasharray="none" points="236.352,358.418 228.279,358.418 "/>
      <polyline fill="none" stroke="#0000ff" stroke-width="3.0pt" stroke-dasharray="none" points="167.731,193.733 167.731,330.619 "/>
      <polyline fill="none" stroke="#0000ff" stroke-width="3.0pt" stroke-dasharray="none" points="171.767,193.733 163.694,193.733 "/>
      <polyline fill="none" stroke="#0000ff" stroke-width="3.0pt" stroke-dasharray="none" points="171.767,330.619 163.694,330.619 "/>
      <polyline fill="none" stroke="#0000ff" stroke-width="3.0pt" stroke-dasharray="none" points="103.146,123.692 103.146,320.301 "/>
      <polyline fill="none" stroke="#0000ff" stroke-width="3.0pt" stroke-dasharray="none" points="107.183,123.692 99.110,123.692 "/>
      <polyline fill="none" stroke="#0000ff" stroke-width="3.0pt" stroke-dasharray="none" points="107.183,320.301 99.110,320.301 "/>
<g>
</g>
</g>
<g id="ID000007" clip-path="url(#ID000001)" >
      <polyline fill="none" stroke="#0000ff" stroke-width="3.0pt" stroke-dasharray="none" points="506.800,351.602 490.654,351.328 458.362,352.350 426.069,352.489 361.485,348.325 296.900,345.264 232.315,335.855 167.731,262.176 103.146,221.997 "/>
<g>
</g>
</g>
</g><g id="ID000008" clip-path="url(#ID000001)" >
<g>
      <polygon fill="#ff0000" fill-opacity="1.00" stroke="#ff0000" stroke-width="3.0pt" stroke-opacity="1.00" stroke-dasharray="none" points="503.467,298.145 503.467,304.812 510.133,304.812 510.133,298.145 503.467,298.145 "/>
      <polygon fill="#ff0000" fill-opacity="1.00" stroke="#ff0000" stroke-width="3.0pt" stroke-opacity="1.00" stroke-dasharray="none" points="487.321,298.145 487.321,304.812 493.987,304.812 493.987,298.145 487.321,298.145 "/>
      <polygon fill="#ff0000" fill-opacity="1.00" stroke="#ff0000" stroke-width="3.0pt" stroke-opacity="1.00" stroke-dasharray="none" points="455.028,298.145 455.028,304.812 461.695,304.812 461.695,298.145 455.028,298.145 "/>
      <polygon fill="#ff0000" fill-opacity="1.00" stroke="#ff0000" stroke-width="3.0pt" stroke-opacity="1.00" stroke-dasharray="none" points="422.736,298.145 422.736,304.812 429.403,304.812 429.403,298.145 422.736,298.145 "/>
      <polygon fill="#ff0000" fill-opacity="1.00" stroke="#ff0000" stroke-width="3.0pt" stroke-opacity="1.00" stroke-dasharray="none" points="358.151,298.145 358.151,304.812 364.818,304.812 364.818,298.145 358.151,298.145 "/>
      <polygon fill="#ff0000" fill-opacity="1.00" stroke="#ff0000" stroke-width="3.0pt" stroke-opacity="1.00" stroke-dasharray="none" points="293.567,298.145 293.567,304.812 300.233,304.812 300.233,298.145 293.567,298.145 "/>
      <polygon fill="#ff0000" fill-opacity="1.00" stroke="#ff0000" stroke-width="3.0pt" stroke-opacity="1.00" stroke-dasharray="none" points="228.982,298.145 228.982,304.812 235.649,304.812 235.649,298.145 228.982,298.145 "/>
      <polygon fill="#ff0000" fill-opacity="1.00" stroke="#ff0000" stroke-width="3.0pt" stroke-opacity="1.00" stroke-dasharray="none" points="164.397,298.145 164.397,304.812 171.064,304.812 171.064,298.145 164.397,298.145 "/>
      <polygon fill="#ff0000" fill-opacity="1.00" stroke="#ff0000" stroke-width="3.0pt" stroke-opacity="1.00" stroke-dasharray="none" points="99.813,298.145 99.813,304.812 106.479,304.812 106.479,298.145 99.813,298.145 "/>
</g>
</g>
<g id="ID000009" clip-path="url(#ID000001)" >
<g>
      <polygon fill="#0000ff" fill-opacity="1.00" stroke="#0000ff" stroke-width="3.0pt" stroke-opacity="1.00" stroke-dasharray="none" points="503.467,348.269 503.467,354.936 510.133,354.936 510.133,348.269 503.467,348.269 "/>
      <polygon fill="#0000ff" fill-opacity="1.00" stroke="#0000ff" stroke-width="3.0pt" stroke-opacity="1.00" stroke-dasharray="none" points="487.321,347.995 487.321,354.662 493.987,354.662 493.987,347.995 487.321,347.995 "/>
      <polygon fill="#0000ff" fill-opacity="1.00" stroke="#0000ff" stroke-width="3.0pt" stroke-opacity="1.00" stroke-dasharray="none" points="455.028,349.017 455.028,355.684 461.695,355.684 461.695,349.017 455.028,349.017 "/>
      <polygon fill="#0000ff" fill-opacity="1.00" stroke="#0000ff" stroke-width="3.0pt" stroke-opacity="1.00" stroke-dasharray="none" points="422.736,349.155 422.736,355.822 429.403,355.822 429.403,349.155 422.736,349.155 "/>
      <polygon fill="#0000ff" fill-opacity="1.00" stroke="#0000ff" stroke-width="3.0pt" stroke-opacity="1.00" stroke-dasharray="none" points="358.151,344.992 358.151,351.658 364.818,351.658 364.818,344.992 358.151,344.992 "/>
      <polygon fill="#0000ff" fill-opacity="1.00" stroke="#0000ff" stroke-width="3.0pt" stroke-opacity="1.00" stroke-dasharray="none" points="293.567,341.930 293.567,348.597 300.233,348.597 300.233,341.930 293.567,341.930 "/>
      <polygon fill="#0000ff" fill-opacity="1.00" stroke="#0000ff" stroke-width="3.0pt" stroke-opacity="1.00" stroke-dasharray="none" points="228.982,332.522 228.982,339.188 235.649,339.188 235.649,332.522 228.982,332.522 "/>
      <polygon fill="#0000ff" fill-opacity="1.00" stroke="#0000ff" stroke-width="3.0pt" stroke-opacity="1.00" stroke-dasharray="none" points="164.397,258.842 164.397,265.509 171.064,265.509 171.064,258.842 164.397,258.842 "/>
      <polygon fill="#0000ff" fill-opacity="1.00" stroke="#0000ff" stroke-width="3.0pt" stroke-opacity="1.00" stroke-dasharray="none" points="99.813,218.663 99.813,225.330 106.479,225.330 106.479,218.663 99.813,218.663 "/>
</g>
</g>
<g id="ID000010" clip-path="url(#ID000001)" >
      <polyline fill="none" stroke="#000000" stroke-width="1.5pt" stroke-dasharray="8.0,2.0" points="506.800,337.167 87.000,337.167 "/>
<g>
</g>
</g>
<g id="ID000011" clip-path="url(#ID000001)" >
      <polyline fill="none" stroke="#0000ff" stroke-width="1.5pt" stroke-dasharray="none" points="506.800,259.153 490.654,259.153 458.362,259.153 426.069,259.153 361.485,259.153 296.900,259.153 232.315,259.153 167.731,259.153 103.146,259.153 "/>
<g>
</g>
</g>
<g id="ID000012" clip-path="url(#ID000001)" >
      <polyline fill="none" stroke="#000000" stroke-width="1.0pt" stroke-dasharray="8.0,2.0" points="506.800,315.333 87.000,315.333 "/>
<g>
</g>
</g>
<g id="ID000013" >
  <g transform="translate(296.400,415.660)">
    <g transform="rotate(-0.0)">
      <text x="0.000" y="0.000" font-family="Helvetica" text-anchor="middle" font-size="18pt" fill="#000000" >time until impact in sec</text>
    </g>
  </g>
</g>
<g id="ID000014" >
  <g transform="translate(33.024,196.252)">
    <g transform="rotate(-90.0)">
      <text x="0.000" y="0.000" font-family="Helvetica" text-anchor="middle" font-size="18pt" fill="#000000" >error in centimeter</text>
    </g>
  </g>
</g>
<g id="ID000015" >
</g>
<g id="ID000016" >
</g>
<g id="ID000017" >
</g>
    </g>
    <g>
      <polyline fill="none" stroke="#000000" stroke-width="0.5pt" stroke-dasharray="none" points="377.631,359.000 377.631,354.802 "/>
      <polyline fill="none" stroke="#000000" stroke-width="0.5pt" stroke-dasharray="none" points="248.462,359.000 248.462,354.802 "/>
      <polyline fill="none" stroke="#000000" stroke-width="0.5pt" stroke-dasharray="none" points="119.292,359.000 119.292,354.802 "/>
      <polyline fill="none" stroke="#000000" stroke-width="0.5pt" stroke-dasharray="none" points="87.000,359.000 506.800,359.000 "/>
      <polyline fill="none" stroke="#000000" stroke-width="0.5pt" stroke-dasharray="none" points="377.631,31.500 377.631,35.698 "/>
      <polyline fill="none" stroke="#000000" stroke-width="0.5pt" stroke-dasharray="none" points="248.462,31.500 248.462,35.698 "/>
      <polyline fill="none" stroke="#000000" stroke-width="0.5pt" stroke-dasharray="none" points="119.292,31.500 119.292,35.698 "/>
      <polyline fill="none" stroke="#000000" stroke-width="0.5pt" stroke-dasharray="none" points="87.000,31.500 506.800,31.500 "/>
  <g transform="translate(506.800,386.790)">
    <g transform="rotate(-0.0)">
      <text x="0.000" y="0.000" font-family="Helvetica" text-anchor="middle" font-size="18pt" fill="#000000" >0</text>
    </g>
  </g>
  <g transform="translate(377.631,386.790)">
    <g transform="rotate(-0.0)">
      <text x="0.000" y="0.000" font-family="Helvetica" text-anchor="middle" font-size="18pt" fill="#000000" >200</text>
    </g>
  </g>
  <g transform="translate(248.462,386.790)">
    <g transform="rotate(-0.0)">
      <text x="0.000" y="0.000" font-family="Helvetica" text-anchor="middle" font-size="18pt" fill="#000000" >400</text>
    </g>
  </g>
  <g transform="translate(119.292,386.790)">
    <g transform="rotate(-0.0)">
      <text x="0.000" y="0.000" font-family="Helvetica" text-anchor="middle" font-size="18pt" fill="#000000" >600</text>
    </g>
  </g>
      <polyline fill="none" stroke="#000000" stroke-width="0.5pt" stroke-dasharray="none" points="87.000,249.833 91.198,249.833 "/>
      <polyline fill="none" stroke="#000000" stroke-width="0.5pt" stroke-dasharray="none" points="87.000,140.667 91.198,140.667 "/>
      <polyline fill="none" stroke="#000000" stroke-width="0.5pt" stroke-dasharray="none" points="87.000,359.000 87.000,31.500 "/>
      <polyline fill="none" stroke="#000000" stroke-width="0.5pt" stroke-dasharray="none" points="506.800,249.833 502.602,249.833 "/>
      <polyline fill="none" stroke="#000000" stroke-width="0.5pt" stroke-dasharray="none" points="506.800,140.667 502.602,140.667 "/>
      <polyline fill="none" stroke="#000000" stroke-width="0.5pt" stroke-dasharray="none" points="506.800,359.000 506.800,31.500 "/>
  <g transform="translate(78.604,367.100)">
    <g transform="rotate(-0.0)">
      <text x="0.000" y="0.000" font-family="Helvetica" text-anchor="end" font-size="18pt" fill="#000000" >0</text>
    </g>
  </g>
  <g transform="translate(78.604,257.933)">
    <g transform="rotate(-0.0)">
      <text x="0.000" y="0.000" font-family="Helvetica" text-anchor="end" font-size="18pt" fill="#000000" >50</text>
    </g>
  </g>
  <g transform="translate(78.604,148.767)">
    <g transform="rotate(-0.0)">
      <text x="0.000" y="0.000" font-family="Helvetica" text-anchor="end" font-size="18pt" fill="#000000" >100</text>
    </g>
  </g>
  <g transform="translate(78.604,39.600)">
    <g transform="rotate(-0.0)">
      <text x="0.000" y="0.000" font-family="Helvetica" text-anchor="end" font-size="18pt" fill="#000000" >150</text>
    </g>
  </g>
      <polyline fill="none" stroke="#000000" stroke-width="0.5pt" stroke-dasharray="none" points="87.000,359.000 87.000,355.725 "/>
      <polyline fill="none" stroke="#000000" stroke-width="0.5pt" stroke-dasharray="none" points="87.000,359.000 87.000,359.000 "/>
    </g>
  </g>
  <g id ="ID000018">
  <clipPath id="ID000019">
    <rect x="325.750" y="38.750" width="176.500" height="187.500"/>
  </clipPath>
      <polygon fill="#ffffff" fill-opacity="1.00" stroke="none" stroke-width="0.5pt" stroke-opacity="1.00" stroke-dasharray="none" points="325.750,226.250 502.250,226.250 502.250,38.750 325.750,38.750 "/>
      <polygon fill="#ffffff" fill-opacity="1.00" stroke="none" stroke-width="0.5pt" stroke-opacity="1.00" stroke-dasharray="none" points="325.750,38.750 502.250,38.750 502.250,38.750 325.750,38.750 "/>
      <polygon fill="#ffffff" fill-opacity="1.00" stroke="none" stroke-width="0.5pt" stroke-opacity="1.00" stroke-dasharray="none" points="325.750,226.250 325.750,226.250 325.750,38.750 325.750,38.750 "/>
    <g>
<g id="ID000020" >
  <g transform="translate(375.391,68.407)">
    <g transform="rotate(-0.0)">
      <text x="0.000" y="0.000" font-family="Helvetica" text-anchor="start" font-size="18pt" fill="#000000" >LMProMPs</text>
    </g>
  </g>
</g>
<g id="ID000021" clip-path="url(#ID000019)" >
<g id="ID000022" clip-path="url(#ID000019)" >
<g id="ID000023" clip-path="url(#ID000019)" >
      <polyline fill="none" stroke="#ff0000" stroke-width="3.0pt" stroke-dasharray="none" points="333.250,59.250 370.750,59.250 "/>
<g>
</g>
</g>
<g id="ID000024" clip-path="url(#ID000019)" >
<g>
</g>
</g>
</g></g><g id="ID000025" >
  <g transform="translate(375.391,104.504)">
    <g transform="rotate(-0.0)">
      <text x="0.000" y="0.000" font-family="Helvetica" text-anchor="start" font-size="18pt" fill="#000000" >ProMPs</text>
    </g>
  </g>
</g>
<g id="ID000026" clip-path="url(#ID000019)" >
<g id="ID000027" clip-path="url(#ID000019)" >
<g id="ID000028" clip-path="url(#ID000019)" >
      <polyline fill="none" stroke="#0000ff" stroke-width="3.0pt" stroke-dasharray="none" points="333.250,95.875 370.750,95.875 "/>
<g>
</g>
</g>
<g id="ID000029" clip-path="url(#ID000019)" >
<g>
</g>
</g>
</g></g><g id="ID000030" >
  <g transform="translate(375.391,141.603)">
    <g transform="rotate(-0.0)">
      <text x="0.000" y="0.000" font-family="Helvetica" text-anchor="start" font-size="18pt" fill="#000000" >max</text>
    </g>
  </g>
</g>
<g id="ID000031" clip-path="url(#ID000019)" >
      <polyline fill="none" stroke="#0000ff" stroke-width="1.5pt" stroke-dasharray="none" points="333.250,132.500 370.750,132.500 "/>
<g>
</g>
</g>
<g id="ID000032" clip-path="url(#ID000019)" >
<g>
</g>
</g>
<g id="ID000033" >
  <g transform="translate(375.391,178.702)">
    <g transform="rotate(-0.0)">
      <text x="0.000" y="0.000" font-family="Helvetica" text-anchor="start" font-size="18pt" fill="#000000" >20cm</text>
    </g>
  </g>
</g>
<g id="ID000034" clip-path="url(#ID000019)" >
      <polyline fill="none" stroke="#000000" stroke-width="1.0pt" stroke-dasharray="8.0,2.0" points="333.250,169.125 370.750,169.125 "/>
<g>
</g>
</g>
<g id="ID000035" clip-path="url(#ID000019)" >
<g>
</g>
</g>
<g id="ID000036" >
  <g transform="translate(375.391,214.798)">
    <g transform="rotate(-0.0)">
      <text x="0.000" y="0.000" font-family="Helvetica" text-anchor="start" font-size="18pt" fill="#000000" >10cm</text>
    </g>
  </g>
</g>
<g id="ID000037" clip-path="url(#ID000019)" >
      <polyline fill="none" stroke="#000000" stroke-width="1.5pt" stroke-dasharray="8.0,2.0" points="333.250,205.750 370.750,205.750 "/>
<g>
</g>
</g>
<g id="ID000038" clip-path="url(#ID000019)" >
<g>
</g>
</g>
<g id="ID000039" >
</g>
<g id="ID000040" >
</g>
<g id="ID000041" >
</g>
    </g>
    <g>
      <polyline fill="none" stroke="#000000" stroke-width="0.5pt" stroke-dasharray="none" points="325.750,226.250 502.250,226.250 "/>
      <polyline fill="none" stroke="#000000" stroke-width="0.5pt" stroke-dasharray="none" points="325.750,38.750 502.250,38.750 "/>
      <polyline fill="none" stroke="#000000" stroke-width="0.5pt" stroke-dasharray="none" points="325.750,226.250 325.750,38.750 "/>
      <polyline fill="none" stroke="#000000" stroke-width="0.5pt" stroke-dasharray="none" points="502.250,226.250 502.250,38.750 "/>
      <polyline fill="none" stroke="#000000" stroke-width="0.5pt" stroke-dasharray="none" points="325.750,226.250 325.750,224.375 "/>
      <polyline fill="none" stroke="#000000" stroke-width="0.5pt" stroke-dasharray="none" points="325.750,226.250 325.750,226.250 "/>
    </g>
  </g>
  </g>
</svg>
