<?xml version="1.0" encoding="utf-8" standalone="no"?><!DOCTYPE svg PUBLIC "-//W3C//DTD SVG 1.1//EN" "http://www.w3.org/Graphics/SVG/1.1/DTD/svg11.dtd">
<svg preserveAspectRatio="xMinYMin meet" width="100%" height="100%" viewBox="0 0 560.000 420.000"  version="1.1" xmlns="http://www.w3.org/2000/svg" xmlns:xlink="http://www.w3.org/1999/xlink">
  <desc>Matlab Figure Converted by PLOT2SVG written by Juerg Schwizer</desc>
  <g id="topgroup">
  <rect x="0" y="0" width="560.000" height="420.000" fill="#ffffff" stroke="none" />
  <g id ="ID000000">
  <clipPath id="ID000001">
    <rect x="114.000" y="31.500" width="392.800" height="313.500"/>
  </clipPath>
      <polygon fill="#ffffff" fill-opacity="1.00" stroke="none" stroke-width="0.5pt" stroke-opacity="1.00" stroke-dasharray="none" points="114.000,345.000 506.800,345.000 506.800,31.500 114.000,31.500 "/>
      <polygon fill="#ffffff" fill-opacity="1.00" stroke="none" stroke-width="0.5pt" stroke-opacity="1.00" stroke-dasharray="none" points="114.000,345.000 506.800,345.000 506.800,345.000 114.000,345.000 "/>
      <polygon fill="#ffffff" fill-opacity="1.00" stroke="none" stroke-width="0.5pt" stroke-opacity="1.00" stroke-dasharray="none" points="114.000,345.000 114.000,345.000 114.000,31.500 114.000,31.500 "/>
    <g>
<g id="ID000002" clip-path="url(#ID000001)" >
<g>
<circle cx="349.864" cy="213.098" r="5.000" fill="#ff0000" stroke="none" stroke-width="3.0pt" />
<circle cx="258.964" cy="205.600" r="5.000" fill="#ff0000" stroke="none" stroke-width="3.0pt" />
<circle cx="323.854" cy="163.110" r="5.000" fill="#ff0000" stroke="none" stroke-width="3.0pt" />
<circle cx="416.839" cy="208.046" r="5.000" fill="#ff0000" stroke="none" stroke-width="3.0pt" />
<circle cx="208.386" cy="192.580" r="5.000" fill="#ff0000" stroke="none" stroke-width="3.0pt" />
<circle cx="156.832" cy="229.602" r="5.000" fill="#ff0000" stroke="none" stroke-width="3.0pt" />
<circle cx="278.443" cy="246.431" r="5.000" fill="#ff0000" stroke="none" stroke-width="3.0pt" />
<circle cx="199.725" cy="182.895" r="5.000" fill="#ff0000" stroke="none" stroke-width="3.0pt" />
<circle cx="219.759" cy="203.047" r="5.000" fill="#ff0000" stroke="none" stroke-width="3.0pt" />
<circle cx="327.605" cy="209.197" r="5.000" fill="#ff0000" stroke="none" stroke-width="3.0pt" />
<circle cx="322.866" cy="198.532" r="5.000" fill="#ff0000" stroke="none" stroke-width="3.0pt" />
<circle cx="374.936" cy="309.186" r="5.000" fill="#ff0000" stroke="none" stroke-width="3.0pt" />
</g>
</g>
<g id="ID000003" clip-path="url(#ID000001)" >
<g>
<circle cx="141.894" cy="146.600" r="5.000" fill="#0000ff" stroke="none" stroke-width="3.0pt" />
<circle cx="278.342" cy="190.359" r="5.000" fill="#0000ff" stroke="none" stroke-width="3.0pt" />
<circle cx="284.980" cy="267.972" r="5.000" fill="#0000ff" stroke="none" stroke-width="3.0pt" />
<circle cx="295.600" cy="181.186" r="5.000" fill="#0000ff" stroke="none" stroke-width="3.0pt" />
<circle cx="209.459" cy="183.561" r="5.000" fill="#0000ff" stroke="none" stroke-width="3.0pt" />
<circle cx="202.337" cy="150.117" r="5.000" fill="#0000ff" stroke="none" stroke-width="3.0pt" />
<circle cx="376.572" cy="266.230" r="5.000" fill="#0000ff" stroke="none" stroke-width="3.0pt" />
<circle cx="389.173" cy="270.554" r="5.000" fill="#0000ff" stroke="none" stroke-width="3.0pt" />
</g>
</g>
<g id="ID000004" >
  <g transform="translate(309.401,417.276)">
    <g transform="rotate(-0.0)">
      <text x="0.000" y="0.000" font-family="Helvetica" text-anchor="middle" font-size="26pt" fill="#000000" >latent dim. 2</text>
    </g>
  </g>
</g>
<g id="ID000005" >
  <g transform="translate(41.034,189.252)">
    <g transform="rotate(-90.0)">
      <text x="0.000" y="0.000" font-family="Helvetica" text-anchor="middle" font-size="26pt" fill="#000000" >latent dim. 3</text>
    </g>
  </g>
</g>
<g id="ID000006" >
</g>
    </g>
    <g>
      <polyline fill="none" stroke="#000000" stroke-width="0.5pt" stroke-dasharray="none" points="128.673,345.000 128.673,341.072 "/>
      <polyline fill="none" stroke="#000000" stroke-width="0.5pt" stroke-dasharray="none" points="205.017,345.000 205.017,341.072 "/>
      <polyline fill="none" stroke="#000000" stroke-width="0.5pt" stroke-dasharray="none" points="281.362,345.000 281.362,341.072 "/>
      <polyline fill="none" stroke="#000000" stroke-width="0.5pt" stroke-dasharray="none" points="357.706,345.000 357.706,341.072 "/>
      <polyline fill="none" stroke="#000000" stroke-width="0.5pt" stroke-dasharray="none" points="434.051,345.000 434.051,341.072 "/>
      <polyline fill="none" stroke="#000000" stroke-width="0.5pt" stroke-dasharray="none" points="114.000,345.000 506.800,345.000 "/>
      <polyline fill="none" stroke="#000000" stroke-width="0.5pt" stroke-dasharray="none" points="128.673,31.500 128.673,35.428 "/>
      <polyline fill="none" stroke="#000000" stroke-width="0.5pt" stroke-dasharray="none" points="205.017,31.500 205.017,35.428 "/>
      <polyline fill="none" stroke="#000000" stroke-width="0.5pt" stroke-dasharray="none" points="281.362,31.500 281.362,35.428 "/>
      <polyline fill="none" stroke="#000000" stroke-width="0.5pt" stroke-dasharray="none" points="357.706,31.500 357.706,35.428 "/>
      <polyline fill="none" stroke="#000000" stroke-width="0.5pt" stroke-dasharray="none" points="434.051,31.500 434.051,35.428 "/>
      <polyline fill="none" stroke="#000000" stroke-width="0.5pt" stroke-dasharray="none" points="114.000,31.500 506.800,31.500 "/>
  <g transform="translate(128.673,381.950)">
    <g transform="rotate(-0.0)">
      <text x="0.000" y="0.000" font-family="Helvetica" text-anchor="middle" font-size="26pt" fill="#000000" >-0.4</text>
    </g>
  </g>
  <g transform="translate(205.017,381.950)">
    <g transform="rotate(-0.0)">
      <text x="0.000" y="0.000" font-family="Helvetica" text-anchor="middle" font-size="26pt" fill="#000000" >-0.2</text>
    </g>
  </g>
  <g transform="translate(281.362,381.950)">
    <g transform="rotate(-0.0)">
      <text x="0.000" y="0.000" font-family="Helvetica" text-anchor="middle" font-size="26pt" fill="#000000" >0</text>
    </g>
  </g>
  <g transform="translate(357.706,381.950)">
    <g transform="rotate(-0.0)">
      <text x="0.000" y="0.000" font-family="Helvetica" text-anchor="middle" font-size="26pt" fill="#000000" >0.2</text>
    </g>
  </g>
  <g transform="translate(434.051,381.950)">
    <g transform="rotate(-0.0)">
      <text x="0.000" y="0.000" font-family="Helvetica" text-anchor="middle" font-size="26pt" fill="#000000" >0.4</text>
    </g>
  </g>
      <polyline fill="none" stroke="#000000" stroke-width="0.5pt" stroke-dasharray="none" points="114.000,333.289 117.928,333.289 "/>
      <polyline fill="none" stroke="#000000" stroke-width="0.5pt" stroke-dasharray="none" points="114.000,272.358 117.928,272.358 "/>
      <polyline fill="none" stroke="#000000" stroke-width="0.5pt" stroke-dasharray="none" points="114.000,211.426 117.928,211.426 "/>
      <polyline fill="none" stroke="#000000" stroke-width="0.5pt" stroke-dasharray="none" points="114.000,150.494 117.928,150.494 "/>
      <polyline fill="none" stroke="#000000" stroke-width="0.5pt" stroke-dasharray="none" points="114.000,89.562 117.928,89.562 "/>
      <polyline fill="none" stroke="#000000" stroke-width="0.5pt" stroke-dasharray="none" points="114.000,345.000 114.000,31.500 "/>
      <polyline fill="none" stroke="#000000" stroke-width="0.5pt" stroke-dasharray="none" points="506.800,333.289 502.872,333.289 "/>
      <polyline fill="none" stroke="#000000" stroke-width="0.5pt" stroke-dasharray="none" points="506.800,272.358 502.872,272.358 "/>
      <polyline fill="none" stroke="#000000" stroke-width="0.5pt" stroke-dasharray="none" points="506.800,211.426 502.872,211.426 "/>
      <polyline fill="none" stroke="#000000" stroke-width="0.5pt" stroke-dasharray="none" points="506.800,150.494 502.872,150.494 "/>
      <polyline fill="none" stroke="#000000" stroke-width="0.5pt" stroke-dasharray="none" points="506.800,89.562 502.872,89.562 "/>
      <polyline fill="none" stroke="#000000" stroke-width="0.5pt" stroke-dasharray="none" points="506.800,345.000 506.800,31.500 "/>
  <g transform="translate(106.144,344.989)">
    <g transform="rotate(-0.0)">
      <text x="0.000" y="0.000" font-family="Helvetica" text-anchor="end" font-size="26pt" fill="#000000" >-0.4</text>
    </g>
  </g>
  <g transform="translate(106.144,284.058)">
    <g transform="rotate(-0.0)">
      <text x="0.000" y="0.000" font-family="Helvetica" text-anchor="end" font-size="26pt" fill="#000000" >-0.2</text>
    </g>
  </g>
  <g transform="translate(106.144,223.126)">
    <g transform="rotate(-0.0)">
      <text x="0.000" y="0.000" font-family="Helvetica" text-anchor="end" font-size="26pt" fill="#000000" >0</text>
    </g>
  </g>
  <g transform="translate(106.144,162.194)">
    <g transform="rotate(-0.0)">
      <text x="0.000" y="0.000" font-family="Helvetica" text-anchor="end" font-size="26pt" fill="#000000" >0.2</text>
    </g>
  </g>
  <g transform="translate(106.144,101.262)">
    <g transform="rotate(-0.0)">
      <text x="0.000" y="0.000" font-family="Helvetica" text-anchor="end" font-size="26pt" fill="#000000" >0.4</text>
    </g>
  </g>
      <polyline fill="none" stroke="#000000" stroke-width="0.5pt" stroke-dasharray="none" points="114.000,345.000 114.000,341.865 "/>
      <polyline fill="none" stroke="#000000" stroke-width="0.5pt" stroke-dasharray="none" points="114.000,345.000 114.000,345.000 "/>
    </g>
  </g>
  </g>
</svg>
