<?xml version="1.0" encoding="utf-8" standalone="no"?><!DOCTYPE svg PUBLIC "-//W3C//DTD SVG 1.1//EN" "http://www.w3.org/Graphics/SVG/1.1/DTD/svg11.dtd">
<svg preserveAspectRatio="xMinYMin meet" width="100%" height="100%" viewBox="0 0 560.000 420.000"  version="1.1" xmlns="http://www.w3.org/2000/svg" xmlns:xlink="http://www.w3.org/1999/xlink">
  <desc>Matlab Figure Converted by PLOT2SVG written by Juerg Schwizer</desc>
  <g id="topgroup">
  <rect x="0" y="0" width="560.000" height="420.000" fill="#ffffff" stroke="none" />
  <g id ="ID000000">
  <clipPath id="ID000001">
    <rect x="114.000" y="31.500" width="392.800" height="313.500"/>
  </clipPath>
      <polygon fill="#ffffff" fill-opacity="1.00" stroke="none" stroke-width="0.5pt" stroke-opacity="1.00" stroke-dasharray="none" points="114.000,345.000 506.800,345.000 506.800,31.500 114.000,31.500 "/>
      <polygon fill="#ffffff" fill-opacity="1.00" stroke="none" stroke-width="0.5pt" stroke-opacity="1.00" stroke-dasharray="none" points="114.000,345.000 506.800,345.000 506.800,345.000 114.000,345.000 "/>
      <polygon fill="#ffffff" fill-opacity="1.00" stroke="none" stroke-width="0.5pt" stroke-opacity="1.00" stroke-dasharray="none" points="114.000,345.000 114.000,345.000 114.000,31.500 114.000,31.500 "/>
    <g>
<g id="ID000002" clip-path="url(#ID000001)" >
<g>
<circle cx="199.885" cy="156.753" r="5.000" fill="#ff0000" stroke="none" stroke-width="3.0pt" />
<circle cx="190.020" cy="229.302" r="5.000" fill="#ff0000" stroke="none" stroke-width="3.0pt" />
<circle cx="184.902" cy="177.512" r="5.000" fill="#ff0000" stroke="none" stroke-width="3.0pt" />
<circle cx="234.938" cy="103.299" r="5.000" fill="#ff0000" stroke="none" stroke-width="3.0pt" />
<circle cx="261.042" cy="269.669" r="5.000" fill="#ff0000" stroke="none" stroke-width="3.0pt" />
<circle cx="267.817" cy="310.815" r="5.000" fill="#ff0000" stroke="none" stroke-width="3.0pt" />
<circle cx="325.401" cy="213.755" r="5.000" fill="#ff0000" stroke="none" stroke-width="3.0pt" />
<circle cx="219.585" cy="276.582" r="5.000" fill="#ff0000" stroke="none" stroke-width="3.0pt" />
<circle cx="208.713" cy="260.592" r="5.000" fill="#ff0000" stroke="none" stroke-width="3.0pt" />
<circle cx="233.825" cy="174.519" r="5.000" fill="#ff0000" stroke="none" stroke-width="3.0pt" />
<circle cx="245.081" cy="178.301" r="5.000" fill="#ff0000" stroke="none" stroke-width="3.0pt" />
<circle cx="205.415" cy="136.743" r="5.000" fill="#ff0000" stroke="none" stroke-width="3.0pt" />
</g>
</g>
<g id="ID000003" clip-path="url(#ID000001)" >
<g>
<circle cx="204.537" cy="322.738" r="5.000" fill="#0000ff" stroke="none" stroke-width="3.0pt" />
<circle cx="411.044" cy="213.836" r="5.000" fill="#0000ff" stroke="none" stroke-width="3.0pt" />
<circle cx="379.987" cy="208.538" r="5.000" fill="#0000ff" stroke="none" stroke-width="3.0pt" />
<circle cx="469.227" cy="200.062" r="5.000" fill="#0000ff" stroke="none" stroke-width="3.0pt" />
<circle cx="426.999" cy="268.812" r="5.000" fill="#0000ff" stroke="none" stroke-width="3.0pt" />
<circle cx="342.553" cy="274.497" r="5.000" fill="#0000ff" stroke="none" stroke-width="3.0pt" />
<circle cx="315.028" cy="135.437" r="5.000" fill="#0000ff" stroke="none" stroke-width="3.0pt" />
<circle cx="292.988" cy="125.380" r="5.000" fill="#0000ff" stroke="none" stroke-width="3.0pt" />
</g>
</g>
<g id="ID000004" clip-path="url(#ID000001)" >
      <polyline fill="none" stroke="#000000" stroke-width="3.0pt" stroke-dasharray="none" points="175.256,333.869 488.013,92.486 "/>
<g>
</g>
</g>
<g id="ID000005" clip-path="url(#ID000001)" >
<g>
<circle cx="175.256" cy="333.869" r="5.000" fill="#000000" stroke="#000000" stroke-width="3.0pt" />
</g>
</g>
<g id="ID000006" clip-path="url(#ID000001)" >
<g>
      <polygon fill="#000000" fill-opacity="1.00" stroke="#000000" stroke-width="3.0pt" stroke-opacity="1.00" stroke-dasharray="none" points="246.779,266.857 246.779,280.190 260.112,280.190 260.112,266.857 246.779,266.857 "/>
</g>
</g>
<g id="ID000007" clip-path="url(#ID000001)" >
<g>
      <polygon fill="#000000" fill-opacity="1.00" stroke="#000000" stroke-width="3.0pt" stroke-opacity="1.00" stroke-dasharray="none" points="326.921,213.178 331.635,219.844 336.349,213.178 331.635,206.511 326.921,213.178 "/>
</g>
</g>
<g id="ID000008" clip-path="url(#ID000001)" >
<g>
      <polygon fill="#000000" fill-opacity="1.00" stroke="#000000" stroke-width="3.0pt" stroke-opacity="1.00" stroke-dasharray="none" points="403.157,156.679 416.491,156.679 409.824,145.132 403.157,156.679 "/>
</g>
</g>
<g id="ID000009" clip-path="url(#ID000001)" >
<g>
      <polygon fill="#000000" fill-opacity="1.00" stroke="#000000" stroke-width="3.0pt" stroke-opacity="1.00" stroke-dasharray="none" points="488.013,87.930 489.036,91.078 492.347,91.078 489.669,93.024 490.691,96.172 488.013,94.227 485.335,96.172 486.358,93.024 483.680,91.078 486.991,91.078 488.013,87.930 "/>
</g>
</g>
<g id="ID000010" >
  <g transform="translate(309.401,417.276)">
    <g transform="rotate(-0.0)">
      <text x="0.000" y="0.000" font-family="Helvetica" text-anchor="middle" font-size="26pt" fill="#000000" >latent dim. 1</text>
    </g>
  </g>
</g>
<g id="ID000011" >
  <g transform="translate(41.034,189.252)">
    <g transform="rotate(-90.0)">
      <text x="0.000" y="0.000" font-family="Helvetica" text-anchor="middle" font-size="26pt" fill="#000000" >latent dim. 2</text>
    </g>
  </g>
</g>
<g id="ID000012" >
</g>
    </g>
    <g>
      <polyline fill="none" stroke="#000000" stroke-width="0.5pt" stroke-dasharray="none" points="128.673,345.000 128.673,341.072 "/>
      <polyline fill="none" stroke="#000000" stroke-width="0.5pt" stroke-dasharray="none" points="205.017,345.000 205.017,341.072 "/>
      <polyline fill="none" stroke="#000000" stroke-width="0.5pt" stroke-dasharray="none" points="281.362,345.000 281.362,341.072 "/>
      <polyline fill="none" stroke="#000000" stroke-width="0.5pt" stroke-dasharray="none" points="357.706,345.000 357.706,341.072 "/>
      <polyline fill="none" stroke="#000000" stroke-width="0.5pt" stroke-dasharray="none" points="434.051,345.000 434.051,341.072 "/>
      <polyline fill="none" stroke="#000000" stroke-width="0.5pt" stroke-dasharray="none" points="114.000,345.000 506.800,345.000 "/>
      <polyline fill="none" stroke="#000000" stroke-width="0.5pt" stroke-dasharray="none" points="128.673,31.500 128.673,35.428 "/>
      <polyline fill="none" stroke="#000000" stroke-width="0.5pt" stroke-dasharray="none" points="205.017,31.500 205.017,35.428 "/>
      <polyline fill="none" stroke="#000000" stroke-width="0.5pt" stroke-dasharray="none" points="281.362,31.500 281.362,35.428 "/>
      <polyline fill="none" stroke="#000000" stroke-width="0.5pt" stroke-dasharray="none" points="357.706,31.500 357.706,35.428 "/>
      <polyline fill="none" stroke="#000000" stroke-width="0.5pt" stroke-dasharray="none" points="434.051,31.500 434.051,35.428 "/>
      <polyline fill="none" stroke="#000000" stroke-width="0.5pt" stroke-dasharray="none" points="114.000,31.500 506.800,31.500 "/>
  <g transform="translate(128.673,381.950)">
    <g transform="rotate(-0.0)">
      <text x="0.000" y="0.000" font-family="Helvetica" text-anchor="middle" font-size="26pt" fill="#000000" >-0.4</text>
    </g>
  </g>
  <g transform="translate(205.017,381.950)">
    <g transform="rotate(-0.0)">
      <text x="0.000" y="0.000" font-family="Helvetica" text-anchor="middle" font-size="26pt" fill="#000000" >-0.2</text>
    </g>
  </g>
  <g transform="translate(281.362,381.950)">
    <g transform="rotate(-0.0)">
      <text x="0.000" y="0.000" font-family="Helvetica" text-anchor="middle" font-size="26pt" fill="#000000" >0</text>
    </g>
  </g>
  <g transform="translate(357.706,381.950)">
    <g transform="rotate(-0.0)">
      <text x="0.000" y="0.000" font-family="Helvetica" text-anchor="middle" font-size="26pt" fill="#000000" >0.2</text>
    </g>
  </g>
  <g transform="translate(434.051,381.950)">
    <g transform="rotate(-0.0)">
      <text x="0.000" y="0.000" font-family="Helvetica" text-anchor="middle" font-size="26pt" fill="#000000" >0.4</text>
    </g>
  </g>
      <polyline fill="none" stroke="#000000" stroke-width="0.5pt" stroke-dasharray="none" points="114.000,333.289 117.928,333.289 "/>
      <polyline fill="none" stroke="#000000" stroke-width="0.5pt" stroke-dasharray="none" points="114.000,272.358 117.928,272.358 "/>
      <polyline fill="none" stroke="#000000" stroke-width="0.5pt" stroke-dasharray="none" points="114.000,211.426 117.928,211.426 "/>
      <polyline fill="none" stroke="#000000" stroke-width="0.5pt" stroke-dasharray="none" points="114.000,150.494 117.928,150.494 "/>
      <polyline fill="none" stroke="#000000" stroke-width="0.5pt" stroke-dasharray="none" points="114.000,89.562 117.928,89.562 "/>
      <polyline fill="none" stroke="#000000" stroke-width="0.5pt" stroke-dasharray="none" points="114.000,345.000 114.000,31.500 "/>
      <polyline fill="none" stroke="#000000" stroke-width="0.5pt" stroke-dasharray="none" points="506.800,333.289 502.872,333.289 "/>
      <polyline fill="none" stroke="#000000" stroke-width="0.5pt" stroke-dasharray="none" points="506.800,272.358 502.872,272.358 "/>
      <polyline fill="none" stroke="#000000" stroke-width="0.5pt" stroke-dasharray="none" points="506.800,211.426 502.872,211.426 "/>
      <polyline fill="none" stroke="#000000" stroke-width="0.5pt" stroke-dasharray="none" points="506.800,150.494 502.872,150.494 "/>
      <polyline fill="none" stroke="#000000" stroke-width="0.5pt" stroke-dasharray="none" points="506.800,89.562 502.872,89.562 "/>
      <polyline fill="none" stroke="#000000" stroke-width="0.5pt" stroke-dasharray="none" points="506.800,345.000 506.800,31.500 "/>
  <g transform="translate(106.144,344.989)">
    <g transform="rotate(-0.0)">
      <text x="0.000" y="0.000" font-family="Helvetica" text-anchor="end" font-size="26pt" fill="#000000" >-0.4</text>
    </g>
  </g>
  <g transform="translate(106.144,284.058)">
    <g transform="rotate(-0.0)">
      <text x="0.000" y="0.000" font-family="Helvetica" text-anchor="end" font-size="26pt" fill="#000000" >-0.2</text>
    </g>
  </g>
  <g transform="translate(106.144,223.126)">
    <g transform="rotate(-0.0)">
      <text x="0.000" y="0.000" font-family="Helvetica" text-anchor="end" font-size="26pt" fill="#000000" >0</text>
    </g>
  </g>
  <g transform="translate(106.144,162.194)">
    <g transform="rotate(-0.0)">
      <text x="0.000" y="0.000" font-family="Helvetica" text-anchor="end" font-size="26pt" fill="#000000" >0.2</text>
    </g>
  </g>
  <g transform="translate(106.144,101.262)">
    <g transform="rotate(-0.0)">
      <text x="0.000" y="0.000" font-family="Helvetica" text-anchor="end" font-size="26pt" fill="#000000" >0.4</text>
    </g>
  </g>
      <polyline fill="none" stroke="#000000" stroke-width="0.5pt" stroke-dasharray="none" points="114.000,345.000 114.000,341.865 "/>
      <polyline fill="none" stroke="#000000" stroke-width="0.5pt" stroke-dasharray="none" points="114.000,345.000 114.000,345.000 "/>
    </g>
  </g>
  </g>
</svg>
