<?xml version="1.0" encoding="utf-8" standalone="no"?><!DOCTYPE svg PUBLIC "-//W3C//DTD SVG 1.1//EN" "http://www.w3.org/Graphics/SVG/1.1/DTD/svg11.dtd">
<svg preserveAspectRatio="xMinYMin meet" width="100%" height="100%" viewBox="0 0 560.000 420.000"  version="1.1" xmlns="http://www.w3.org/2000/svg" xmlns:xlink="http://www.w3.org/1999/xlink">
  <desc>Matlab Figure Converted by PLOT2SVG written by Juerg Schwizer</desc>
  <g id="topgroup">
  <rect x="0" y="0" width="560.000" height="420.000" fill="#ffffff" stroke="none" />
  <g id ="ID000000">
  <clipPath id="ID000001">
    <rect x="114.000" y="31.500" width="392.800" height="313.500"/>
  </clipPath>
      <polygon fill="#ffffff" fill-opacity="1.00" stroke="none" stroke-width="0.5pt" stroke-opacity="1.00" stroke-dasharray="none" points="114.000,345.000 506.800,345.000 506.800,31.500 114.000,31.500 "/>
      <polygon fill="#ffffff" fill-opacity="1.00" stroke="none" stroke-width="0.5pt" stroke-opacity="1.00" stroke-dasharray="none" points="114.000,31.500 506.800,31.500 506.800,31.500 114.000,31.500 "/>
      <polygon fill="#ffffff" fill-opacity="1.00" stroke="none" stroke-width="0.5pt" stroke-opacity="1.00" stroke-dasharray="none" points="114.000,345.000 114.000,345.000 114.000,31.500 114.000,31.500 "/>
    <g>
<g id="ID000002" clip-path="url(#ID000001)" >
<g>
<circle cx="-6219.938" cy="-858905.582" r="5.000" fill="#ff0000" stroke="none" stroke-width="3.0pt" />
<circle cx="295019.297" cy="2536125.667" r="5.000" fill="#ff0000" stroke="none" stroke-width="3.0pt" />
<circle cx="169257.975" cy="3646313.943" r="5.000" fill="#ff0000" stroke="none" stroke-width="3.0pt" />
<circle cx="25790.753" cy="222463.556" r="5.000" fill="#ff0000" stroke="none" stroke-width="3.0pt" />
<circle cx="123443.375" cy="-2936345.494" r="5.000" fill="#ff0000" stroke="none" stroke-width="3.0pt" />
<circle cx="-686.617" cy="-916992.059" r="5.000" fill="#ff0000" stroke="none" stroke-width="3.0pt" />
<circle cx="107605.251" cy="-2287321.829" r="5.000" fill="#ff0000" stroke="none" stroke-width="3.0pt" />
<circle cx="57266.049" cy="-1544425.217" r="5.000" fill="#ff0000" stroke="none" stroke-width="3.0pt" />
<circle cx="-32060.087" cy="-1898806.394" r="5.000" fill="#ff0000" stroke="none" stroke-width="3.0pt" />
<circle cx="-41596.671" cy="-2373924.328" r="5.000" fill="#ff0000" stroke="none" stroke-width="3.0pt" />
</g>
</g>
<g id="ID000003" clip-path="url(#ID000001)" >
<g>
<circle cx="-59209.583" cy="-1017794.361" r="5.000" fill="#0000ff" stroke="none" stroke-width="3.0pt" />
<circle cx="-107579.601" cy="1055748.882" r="5.000" fill="#0000ff" stroke="none" stroke-width="3.0pt" />
<circle cx="21299.183" cy="1554371.050" r="5.000" fill="#0000ff" stroke="none" stroke-width="3.0pt" />
<circle cx="-59707.683" cy="-449787.680" r="5.000" fill="#0000ff" stroke="none" stroke-width="3.0pt" />
<circle cx="-93070.459" cy="702409.515" r="5.000" fill="#0000ff" stroke="none" stroke-width="3.0pt" />
<circle cx="-116120.774" cy="1925193.171" r="5.000" fill="#0000ff" stroke="none" stroke-width="3.0pt" />
<circle cx="-52345.960" cy="-51556.092" r="5.000" fill="#0000ff" stroke="none" stroke-width="3.0pt" />
<circle cx="-43991.080" cy="1740633.464" r="5.000" fill="#0000ff" stroke="none" stroke-width="3.0pt" />
<circle cx="-75410.989" cy="735231.840" r="5.000" fill="#0000ff" stroke="none" stroke-width="3.0pt" />
<circle cx="-53605.333" cy="-1258625.395" r="5.000" fill="#0000ff" stroke="none" stroke-width="3.0pt" />
<circle cx="-16558.452" cy="-1302141.669" r="5.000" fill="#0000ff" stroke="none" stroke-width="3.0pt" />
<circle cx="-145393.921" cy="754959.297" r="5.000" fill="#0000ff" stroke="none" stroke-width="3.0pt" />
</g>
</g>
<g id="ID000004" >
  <g transform="translate(309.401,417.276)">
    <g transform="rotate(-0.0)">
      <text x="0.000" y="0.000" font-family="Helvetica" text-anchor="middle" font-size="26pt" fill="#000000" >latent dim. 2</text>
    </g>
  </g>
</g>
<g id="ID000005" >
  <g transform="translate(41.034,189.252)">
    <g transform="rotate(-90.0)">
      <text x="0.000" y="0.000" font-family="Helvetica" text-anchor="middle" font-size="26pt" fill="#000000" >latent dim. 3</text>
    </g>
  </g>
</g>
<g id="ID000006" >
</g>
    </g>
    <g>
      <polyline fill="none" stroke="#000000" stroke-width="0.5pt" stroke-dasharray="none" points="310.400,345.000 310.400,341.072 "/>
      <polyline fill="none" stroke="#000000" stroke-width="0.5pt" stroke-dasharray="none" points="114.000,345.000 506.800,345.000 "/>
      <polyline fill="none" stroke="#000000" stroke-width="0.5pt" stroke-dasharray="none" points="310.400,31.500 310.400,35.428 "/>
      <polyline fill="none" stroke="#000000" stroke-width="0.5pt" stroke-dasharray="none" points="114.000,31.500 506.800,31.500 "/>
  <g transform="translate(114.000,381.950)">
    <g transform="rotate(-0.0)">
      <text x="0.000" y="0.000" font-family="Helvetica" text-anchor="middle" font-size="26pt" fill="#000000" >-1</text>
    </g>
  </g>
  <g transform="translate(310.400,381.950)">
    <g transform="rotate(-0.0)">
      <text x="0.000" y="0.000" font-family="Helvetica" text-anchor="middle" font-size="26pt" fill="#000000" >0</text>
    </g>
  </g>
  <g transform="translate(506.800,381.950)">
    <g transform="rotate(-0.0)">
      <text x="0.000" y="0.000" font-family="Helvetica" text-anchor="middle" font-size="26pt" fill="#000000" >1</text>
    </g>
  </g>
      <polyline fill="none" stroke="#000000" stroke-width="0.5pt" stroke-dasharray="none" points="114.000,266.625 117.928,266.625 "/>
      <polyline fill="none" stroke="#000000" stroke-width="0.5pt" stroke-dasharray="none" points="114.000,188.250 117.928,188.250 "/>
      <polyline fill="none" stroke="#000000" stroke-width="0.5pt" stroke-dasharray="none" points="114.000,109.875 117.928,109.875 "/>
      <polyline fill="none" stroke="#000000" stroke-width="0.5pt" stroke-dasharray="none" points="114.000,345.000 114.000,31.500 "/>
      <polyline fill="none" stroke="#000000" stroke-width="0.5pt" stroke-dasharray="none" points="506.800,266.625 502.872,266.625 "/>
      <polyline fill="none" stroke="#000000" stroke-width="0.5pt" stroke-dasharray="none" points="506.800,188.250 502.872,188.250 "/>
      <polyline fill="none" stroke="#000000" stroke-width="0.5pt" stroke-dasharray="none" points="506.800,109.875 502.872,109.875 "/>
      <polyline fill="none" stroke="#000000" stroke-width="0.5pt" stroke-dasharray="none" points="506.800,345.000 506.800,31.500 "/>
  <g transform="translate(106.144,356.700)">
    <g transform="rotate(-0.0)">
      <text x="0.000" y="0.000" font-family="Helvetica" text-anchor="end" font-size="26pt" fill="#000000" >-1</text>
    </g>
  </g>
  <g transform="translate(106.144,278.325)">
    <g transform="rotate(-0.0)">
      <text x="0.000" y="0.000" font-family="Helvetica" text-anchor="end" font-size="26pt" fill="#000000" >-0.5</text>
    </g>
  </g>
  <g transform="translate(106.144,199.950)">
    <g transform="rotate(-0.0)">
      <text x="0.000" y="0.000" font-family="Helvetica" text-anchor="end" font-size="26pt" fill="#000000" >0</text>
    </g>
  </g>
  <g transform="translate(106.144,121.575)">
    <g transform="rotate(-0.0)">
      <text x="0.000" y="0.000" font-family="Helvetica" text-anchor="end" font-size="26pt" fill="#000000" >0.5</text>
    </g>
  </g>
  <g transform="translate(106.144,43.200)">
    <g transform="rotate(-0.0)">
      <text x="0.000" y="0.000" font-family="Helvetica" text-anchor="end" font-size="26pt" fill="#000000" >1</text>
    </g>
  </g>
      <polyline fill="none" stroke="#000000" stroke-width="0.5pt" stroke-dasharray="none" points="114.000,345.000 114.000,341.865 "/>
      <polyline fill="none" stroke="#000000" stroke-width="0.5pt" stroke-dasharray="none" points="114.000,345.000 114.000,345.000 "/>
    </g>
  </g>
  </g>
</svg>
