<?xml version="1.0" encoding="utf-8" standalone="no"?><!DOCTYPE svg PUBLIC "-//W3C//DTD SVG 1.1//EN" "http://www.w3.org/Graphics/SVG/1.1/DTD/svg11.dtd">
<svg preserveAspectRatio="xMinYMin meet" width="100%" height="100%" viewBox="0 0 560.000 420.000"  version="1.1" xmlns="http://www.w3.org/2000/svg" xmlns:xlink="http://www.w3.org/1999/xlink">
  <desc>Matlab Figure Converted by PLOT2SVG written by Juerg Schwizer</desc>
  <g id="topgroup">
  <rect x="0" y="0" width="560.000" height="420.000" fill="#ffffff" stroke="none" />
  <g id ="ID000000">
  <clipPath id="ID000001">
    <rect x="87.000" y="31.500" width="419.800" height="327.500"/>
  </clipPath>
      <polygon fill="#ffffff" fill-opacity="1.00" stroke="none" stroke-width="0.5pt" stroke-opacity="1.00" stroke-dasharray="none" points="87.000,359.000 506.800,359.000 506.800,31.500 87.000,31.500 "/>
      <polygon fill="#ffffff" fill-opacity="1.00" stroke="none" stroke-width="0.5pt" stroke-opacity="1.00" stroke-dasharray="none" points="87.000,31.500 506.800,31.500 506.800,31.500 87.000,31.500 "/>
      <polygon fill="#ffffff" fill-opacity="1.00" stroke="none" stroke-width="0.5pt" stroke-opacity="1.00" stroke-dasharray="none" points="87.000,359.000 87.000,359.000 87.000,31.500 87.000,31.500 "/>
    <g>
<g id="ID000002" clip-path="url(#ID000001)" >
<g id="ID000003" clip-path="url(#ID000001)" >
      <polyline fill="none" stroke="#ff0000" stroke-width="3.0pt" stroke-dasharray="none" points="506.800,312.738 506.800,346.154 "/>
      <polyline fill="none" stroke="#ff0000" stroke-width="3.0pt" stroke-dasharray="none" points="510.837,312.738 502.763,312.738 "/>
      <polyline fill="none" stroke="#ff0000" stroke-width="3.0pt" stroke-dasharray="none" points="510.837,346.154 502.763,346.154 "/>
      <polyline fill="none" stroke="#ff0000" stroke-width="3.0pt" stroke-dasharray="none" points="490.654,312.163 490.654,345.636 "/>
      <polyline fill="none" stroke="#ff0000" stroke-width="3.0pt" stroke-dasharray="none" points="494.690,312.163 486.617,312.163 "/>
      <polyline fill="none" stroke="#ff0000" stroke-width="3.0pt" stroke-dasharray="none" points="494.690,345.636 486.617,345.636 "/>
      <polyline fill="none" stroke="#ff0000" stroke-width="3.0pt" stroke-dasharray="none" points="458.362,305.911 458.362,342.858 "/>
      <polyline fill="none" stroke="#ff0000" stroke-width="3.0pt" stroke-dasharray="none" points="462.398,305.911 454.325,305.911 "/>
      <polyline fill="none" stroke="#ff0000" stroke-width="3.0pt" stroke-dasharray="none" points="462.398,342.858 454.325,342.858 "/>
      <polyline fill="none" stroke="#ff0000" stroke-width="3.0pt" stroke-dasharray="none" points="426.069,303.612 426.069,342.331 "/>
      <polyline fill="none" stroke="#ff0000" stroke-width="3.0pt" stroke-dasharray="none" points="430.106,303.612 422.033,303.612 "/>
      <polyline fill="none" stroke="#ff0000" stroke-width="3.0pt" stroke-dasharray="none" points="430.106,342.331 422.033,342.331 "/>
      <polyline fill="none" stroke="#ff0000" stroke-width="3.0pt" stroke-dasharray="none" points="361.485,292.196 361.485,342.036 "/>
      <polyline fill="none" stroke="#ff0000" stroke-width="3.0pt" stroke-dasharray="none" points="365.521,292.196 357.448,292.196 "/>
      <polyline fill="none" stroke="#ff0000" stroke-width="3.0pt" stroke-dasharray="none" points="365.521,342.036 357.448,342.036 "/>
      <polyline fill="none" stroke="#ff0000" stroke-width="3.0pt" stroke-dasharray="none" points="296.900,283.652 296.900,336.418 "/>
      <polyline fill="none" stroke="#ff0000" stroke-width="3.0pt" stroke-dasharray="none" points="300.937,283.652 292.863,283.652 "/>
      <polyline fill="none" stroke="#ff0000" stroke-width="3.0pt" stroke-dasharray="none" points="300.937,336.418 292.863,336.418 "/>
      <polyline fill="none" stroke="#ff0000" stroke-width="3.0pt" stroke-dasharray="none" points="232.315,272.652 232.315,334.338 "/>
      <polyline fill="none" stroke="#ff0000" stroke-width="3.0pt" stroke-dasharray="none" points="236.352,272.652 228.279,272.652 "/>
      <polyline fill="none" stroke="#ff0000" stroke-width="3.0pt" stroke-dasharray="none" points="236.352,334.338 228.279,334.338 "/>
      <polyline fill="none" stroke="#ff0000" stroke-width="3.0pt" stroke-dasharray="none" points="167.731,250.551 167.731,332.310 "/>
      <polyline fill="none" stroke="#ff0000" stroke-width="3.0pt" stroke-dasharray="none" points="171.767,250.551 163.694,250.551 "/>
      <polyline fill="none" stroke="#ff0000" stroke-width="3.0pt" stroke-dasharray="none" points="171.767,332.310 163.694,332.310 "/>
      <polyline fill="none" stroke="#ff0000" stroke-width="3.0pt" stroke-dasharray="none" points="103.146,220.669 103.146,318.600 "/>
      <polyline fill="none" stroke="#ff0000" stroke-width="3.0pt" stroke-dasharray="none" points="107.183,220.669 99.110,220.669 "/>
      <polyline fill="none" stroke="#ff0000" stroke-width="3.0pt" stroke-dasharray="none" points="107.183,318.600 99.110,318.600 "/>
<g>
</g>
</g>
<g id="ID000004" clip-path="url(#ID000001)" >
      <polyline fill="none" stroke="#ff0000" stroke-width="3.0pt" stroke-dasharray="none" points="506.800,329.446 490.654,328.900 458.362,324.385 426.069,322.971 361.485,317.116 296.900,310.035 232.315,303.495 167.731,291.430 103.146,269.635 "/>
<g>
</g>
</g>
</g><g id="ID000005" clip-path="url(#ID000001)" >
<g id="ID000006" clip-path="url(#ID000001)" >
      <polyline fill="none" stroke="#0000ff" stroke-width="3.0pt" stroke-dasharray="none" points="506.800,328.060 506.800,355.305 "/>
      <polyline fill="none" stroke="#0000ff" stroke-width="3.0pt" stroke-dasharray="none" points="510.837,328.060 502.763,328.060 "/>
      <polyline fill="none" stroke="#0000ff" stroke-width="3.0pt" stroke-dasharray="none" points="510.837,355.305 502.763,355.305 "/>
      <polyline fill="none" stroke="#0000ff" stroke-width="3.0pt" stroke-dasharray="none" points="490.654,327.377 490.654,354.937 "/>
      <polyline fill="none" stroke="#0000ff" stroke-width="3.0pt" stroke-dasharray="none" points="494.690,327.377 486.617,327.377 "/>
      <polyline fill="none" stroke="#0000ff" stroke-width="3.0pt" stroke-dasharray="none" points="494.690,354.937 486.617,354.937 "/>
      <polyline fill="none" stroke="#0000ff" stroke-width="3.0pt" stroke-dasharray="none" points="458.362,324.218 458.362,347.560 "/>
      <polyline fill="none" stroke="#0000ff" stroke-width="3.0pt" stroke-dasharray="none" points="462.398,324.218 454.325,324.218 "/>
      <polyline fill="none" stroke="#0000ff" stroke-width="3.0pt" stroke-dasharray="none" points="462.398,347.560 454.325,347.560 "/>
      <polyline fill="none" stroke="#0000ff" stroke-width="3.0pt" stroke-dasharray="none" points="426.069,323.738 426.069,346.409 "/>
      <polyline fill="none" stroke="#0000ff" stroke-width="3.0pt" stroke-dasharray="none" points="430.106,323.738 422.033,323.738 "/>
      <polyline fill="none" stroke="#0000ff" stroke-width="3.0pt" stroke-dasharray="none" points="430.106,346.409 422.033,346.409 "/>
      <polyline fill="none" stroke="#0000ff" stroke-width="3.0pt" stroke-dasharray="none" points="361.485,308.721 361.485,349.602 "/>
      <polyline fill="none" stroke="#0000ff" stroke-width="3.0pt" stroke-dasharray="none" points="365.521,308.721 357.448,308.721 "/>
      <polyline fill="none" stroke="#0000ff" stroke-width="3.0pt" stroke-dasharray="none" points="365.521,349.602 357.448,349.602 "/>
      <polyline fill="none" stroke="#0000ff" stroke-width="3.0pt" stroke-dasharray="none" points="296.900,292.245 296.900,347.150 "/>
      <polyline fill="none" stroke="#0000ff" stroke-width="3.0pt" stroke-dasharray="none" points="300.937,292.245 292.863,292.245 "/>
      <polyline fill="none" stroke="#0000ff" stroke-width="3.0pt" stroke-dasharray="none" points="300.937,347.150 292.863,347.150 "/>
      <polyline fill="none" stroke="#0000ff" stroke-width="3.0pt" stroke-dasharray="none" points="232.315,262.278 232.315,325.832 "/>
      <polyline fill="none" stroke="#0000ff" stroke-width="3.0pt" stroke-dasharray="none" points="236.352,262.278 228.279,262.278 "/>
      <polyline fill="none" stroke="#0000ff" stroke-width="3.0pt" stroke-dasharray="none" points="236.352,325.832 228.279,325.832 "/>
      <polyline fill="none" stroke="#0000ff" stroke-width="3.0pt" stroke-dasharray="none" points="167.731,180.579 167.731,308.804 "/>
      <polyline fill="none" stroke="#0000ff" stroke-width="3.0pt" stroke-dasharray="none" points="171.767,180.579 163.694,180.579 "/>
      <polyline fill="none" stroke="#0000ff" stroke-width="3.0pt" stroke-dasharray="none" points="171.767,308.804 163.694,308.804 "/>
      <polyline fill="none" stroke="#0000ff" stroke-width="3.0pt" stroke-dasharray="none" points="103.146,78.982 103.146,244.200 "/>
      <polyline fill="none" stroke="#0000ff" stroke-width="3.0pt" stroke-dasharray="none" points="107.183,78.982 99.110,78.982 "/>
      <polyline fill="none" stroke="#0000ff" stroke-width="3.0pt" stroke-dasharray="none" points="107.183,244.200 99.110,244.200 "/>
<g>
</g>
</g>
<g id="ID000007" clip-path="url(#ID000001)" >
      <polyline fill="none" stroke="#0000ff" stroke-width="3.0pt" stroke-dasharray="none" points="506.800,341.683 490.654,341.157 458.362,335.889 426.069,335.073 361.485,329.162 296.900,319.697 232.315,294.055 167.731,244.692 103.146,161.591 "/>
<g>
</g>
</g>
</g><g id="ID000008" clip-path="url(#ID000001)" >
<g>
      <polygon fill="#ff0000" fill-opacity="1.00" stroke="#ff0000" stroke-width="3.0pt" stroke-opacity="1.00" stroke-dasharray="none" points="503.467,326.112 503.467,332.779 510.133,332.779 510.133,326.112 503.467,326.112 "/>
      <polygon fill="#ff0000" fill-opacity="1.00" stroke="#ff0000" stroke-width="3.0pt" stroke-opacity="1.00" stroke-dasharray="none" points="487.321,325.566 487.321,332.233 493.987,332.233 493.987,325.566 487.321,325.566 "/>
      <polygon fill="#ff0000" fill-opacity="1.00" stroke="#ff0000" stroke-width="3.0pt" stroke-opacity="1.00" stroke-dasharray="none" points="455.028,321.051 455.028,327.718 461.695,327.718 461.695,321.051 455.028,321.051 "/>
      <polygon fill="#ff0000" fill-opacity="1.00" stroke="#ff0000" stroke-width="3.0pt" stroke-opacity="1.00" stroke-dasharray="none" points="422.736,319.638 422.736,326.305 429.403,326.305 429.403,319.638 422.736,319.638 "/>
      <polygon fill="#ff0000" fill-opacity="1.00" stroke="#ff0000" stroke-width="3.0pt" stroke-opacity="1.00" stroke-dasharray="none" points="358.151,313.783 358.151,320.450 364.818,320.450 364.818,313.783 358.151,313.783 "/>
      <polygon fill="#ff0000" fill-opacity="1.00" stroke="#ff0000" stroke-width="3.0pt" stroke-opacity="1.00" stroke-dasharray="none" points="293.567,306.702 293.567,313.368 300.233,313.368 300.233,306.702 293.567,306.702 "/>
      <polygon fill="#ff0000" fill-opacity="1.00" stroke="#ff0000" stroke-width="3.0pt" stroke-opacity="1.00" stroke-dasharray="none" points="228.982,300.162 228.982,306.828 235.649,306.828 235.649,300.162 228.982,300.162 "/>
      <polygon fill="#ff0000" fill-opacity="1.00" stroke="#ff0000" stroke-width="3.0pt" stroke-opacity="1.00" stroke-dasharray="none" points="164.397,288.097 164.397,294.764 171.064,294.764 171.064,288.097 164.397,288.097 "/>
      <polygon fill="#ff0000" fill-opacity="1.00" stroke="#ff0000" stroke-width="3.0pt" stroke-opacity="1.00" stroke-dasharray="none" points="99.813,266.301 99.813,272.968 106.479,272.968 106.479,266.301 99.813,266.301 "/>
</g>
</g>
<g id="ID000009" clip-path="url(#ID000001)" >
<g>
      <polygon fill="#0000ff" fill-opacity="1.00" stroke="#0000ff" stroke-width="3.0pt" stroke-opacity="1.00" stroke-dasharray="none" points="503.467,338.349 503.467,345.016 510.133,345.016 510.133,338.349 503.467,338.349 "/>
      <polygon fill="#0000ff" fill-opacity="1.00" stroke="#0000ff" stroke-width="3.0pt" stroke-opacity="1.00" stroke-dasharray="none" points="487.321,337.824 487.321,344.490 493.987,344.490 493.987,337.824 487.321,337.824 "/>
      <polygon fill="#0000ff" fill-opacity="1.00" stroke="#0000ff" stroke-width="3.0pt" stroke-opacity="1.00" stroke-dasharray="none" points="455.028,332.556 455.028,339.223 461.695,339.223 461.695,332.556 455.028,332.556 "/>
      <polygon fill="#0000ff" fill-opacity="1.00" stroke="#0000ff" stroke-width="3.0pt" stroke-opacity="1.00" stroke-dasharray="none" points="422.736,331.740 422.736,338.407 429.403,338.407 429.403,331.740 422.736,331.740 "/>
      <polygon fill="#0000ff" fill-opacity="1.00" stroke="#0000ff" stroke-width="3.0pt" stroke-opacity="1.00" stroke-dasharray="none" points="358.151,325.828 358.151,332.495 364.818,332.495 364.818,325.828 358.151,325.828 "/>
      <polygon fill="#0000ff" fill-opacity="1.00" stroke="#0000ff" stroke-width="3.0pt" stroke-opacity="1.00" stroke-dasharray="none" points="293.567,316.364 293.567,323.031 300.233,323.031 300.233,316.364 293.567,316.364 "/>
      <polygon fill="#0000ff" fill-opacity="1.00" stroke="#0000ff" stroke-width="3.0pt" stroke-opacity="1.00" stroke-dasharray="none" points="228.982,290.722 228.982,297.389 235.649,297.389 235.649,290.722 228.982,290.722 "/>
      <polygon fill="#0000ff" fill-opacity="1.00" stroke="#0000ff" stroke-width="3.0pt" stroke-opacity="1.00" stroke-dasharray="none" points="164.397,241.358 164.397,248.025 171.064,248.025 171.064,241.358 164.397,241.358 "/>
      <polygon fill="#0000ff" fill-opacity="1.00" stroke="#0000ff" stroke-width="3.0pt" stroke-opacity="1.00" stroke-dasharray="none" points="99.813,158.258 99.813,164.924 106.479,164.924 106.479,158.258 99.813,158.258 "/>
</g>
</g>
<g id="ID000010" clip-path="url(#ID000001)" >
      <polyline fill="none" stroke="#000000" stroke-width="1.5pt" stroke-dasharray="8.0,2.0" points="506.800,337.167 87.000,337.167 "/>
<g>
</g>
</g>
<g id="ID000011" clip-path="url(#ID000001)" >
      <polyline fill="none" stroke="#0000ff" stroke-width="1.5pt" stroke-dasharray="none" points="506.800,297.143 490.654,297.143 458.362,288.311 426.069,285.539 361.485,265.379 296.900,254.356 232.315,226.901 167.731,211.286 103.146,161.345 "/>
<g>
</g>
</g>
<g id="ID000012" clip-path="url(#ID000001)" >
      <polyline fill="none" stroke="#000000" stroke-width="1.0pt" stroke-dasharray="8.0,2.0" points="506.800,315.333 87.000,315.333 "/>
<g>
</g>
</g>
<g id="ID000013" >
  <g transform="translate(296.400,415.660)">
    <g transform="rotate(-0.0)">
      <text x="0.000" y="0.000" font-family="Helvetica" text-anchor="middle" font-size="18pt" fill="#000000" >time until impact in sec</text>
    </g>
  </g>
</g>
<g id="ID000014" >
  <g transform="translate(33.024,196.252)">
    <g transform="rotate(-90.0)">
      <text x="0.000" y="0.000" font-family="Helvetica" text-anchor="middle" font-size="18pt" fill="#000000" >error in centimeter</text>
    </g>
  </g>
</g>
<g id="ID000015" >
</g>
<g id="ID000016" >
</g>
<g id="ID000017" >
</g>
    </g>
    <g>
      <polyline fill="none" stroke="#000000" stroke-width="0.5pt" stroke-dasharray="none" points="377.631,359.000 377.631,354.802 "/>
      <polyline fill="none" stroke="#000000" stroke-width="0.5pt" stroke-dasharray="none" points="248.462,359.000 248.462,354.802 "/>
      <polyline fill="none" stroke="#000000" stroke-width="0.5pt" stroke-dasharray="none" points="119.292,359.000 119.292,354.802 "/>
      <polyline fill="none" stroke="#000000" stroke-width="0.5pt" stroke-dasharray="none" points="87.000,359.000 506.800,359.000 "/>
      <polyline fill="none" stroke="#000000" stroke-width="0.5pt" stroke-dasharray="none" points="377.631,31.500 377.631,35.698 "/>
      <polyline fill="none" stroke="#000000" stroke-width="0.5pt" stroke-dasharray="none" points="248.462,31.500 248.462,35.698 "/>
      <polyline fill="none" stroke="#000000" stroke-width="0.5pt" stroke-dasharray="none" points="119.292,31.500 119.292,35.698 "/>
      <polyline fill="none" stroke="#000000" stroke-width="0.5pt" stroke-dasharray="none" points="87.000,31.500 506.800,31.500 "/>
  <g transform="translate(506.800,386.790)">
    <g transform="rotate(-0.0)">
      <text x="0.000" y="0.000" font-family="Helvetica" text-anchor="middle" font-size="18pt" fill="#000000" >0</text>
    </g>
  </g>
  <g transform="translate(377.631,386.790)">
    <g transform="rotate(-0.0)">
      <text x="0.000" y="0.000" font-family="Helvetica" text-anchor="middle" font-size="18pt" fill="#000000" >200</text>
    </g>
  </g>
  <g transform="translate(248.462,386.790)">
    <g transform="rotate(-0.0)">
      <text x="0.000" y="0.000" font-family="Helvetica" text-anchor="middle" font-size="18pt" fill="#000000" >400</text>
    </g>
  </g>
  <g transform="translate(119.292,386.790)">
    <g transform="rotate(-0.0)">
      <text x="0.000" y="0.000" font-family="Helvetica" text-anchor="middle" font-size="18pt" fill="#000000" >600</text>
    </g>
  </g>
      <polyline fill="none" stroke="#000000" stroke-width="0.5pt" stroke-dasharray="none" points="87.000,249.833 91.198,249.833 "/>
      <polyline fill="none" stroke="#000000" stroke-width="0.5pt" stroke-dasharray="none" points="87.000,140.667 91.198,140.667 "/>
      <polyline fill="none" stroke="#000000" stroke-width="0.5pt" stroke-dasharray="none" points="87.000,359.000 87.000,31.500 "/>
      <polyline fill="none" stroke="#000000" stroke-width="0.5pt" stroke-dasharray="none" points="506.800,249.833 502.602,249.833 "/>
      <polyline fill="none" stroke="#000000" stroke-width="0.5pt" stroke-dasharray="none" points="506.800,140.667 502.602,140.667 "/>
      <polyline fill="none" stroke="#000000" stroke-width="0.5pt" stroke-dasharray="none" points="506.800,359.000 506.800,31.500 "/>
  <g transform="translate(78.604,367.100)">
    <g transform="rotate(-0.0)">
      <text x="0.000" y="0.000" font-family="Helvetica" text-anchor="end" font-size="18pt" fill="#000000" >0</text>
    </g>
  </g>
  <g transform="translate(78.604,257.933)">
    <g transform="rotate(-0.0)">
      <text x="0.000" y="0.000" font-family="Helvetica" text-anchor="end" font-size="18pt" fill="#000000" >50</text>
    </g>
  </g>
  <g transform="translate(78.604,148.767)">
    <g transform="rotate(-0.0)">
      <text x="0.000" y="0.000" font-family="Helvetica" text-anchor="end" font-size="18pt" fill="#000000" >100</text>
    </g>
  </g>
  <g transform="translate(78.604,39.600)">
    <g transform="rotate(-0.0)">
      <text x="0.000" y="0.000" font-family="Helvetica" text-anchor="end" font-size="18pt" fill="#000000" >150</text>
    </g>
  </g>
      <polyline fill="none" stroke="#000000" stroke-width="0.5pt" stroke-dasharray="none" points="87.000,359.000 87.000,355.725 "/>
      <polyline fill="none" stroke="#000000" stroke-width="0.5pt" stroke-dasharray="none" points="87.000,359.000 87.000,359.000 "/>
    </g>
  </g>
  <g id ="ID000018">
  <clipPath id="ID000019">
    <rect x="325.750" y="38.750" width="176.500" height="187.500"/>
  </clipPath>
      <polygon fill="#ffffff" fill-opacity="1.00" stroke="none" stroke-width="0.5pt" stroke-opacity="1.00" stroke-dasharray="none" points="325.750,226.250 502.250,226.250 502.250,38.750 325.750,38.750 "/>
      <polygon fill="#ffffff" fill-opacity="1.00" stroke="none" stroke-width="0.5pt" stroke-opacity="1.00" stroke-dasharray="none" points="325.750,38.750 502.250,38.750 502.250,38.750 325.750,38.750 "/>
      <polygon fill="#ffffff" fill-opacity="1.00" stroke="none" stroke-width="0.5pt" stroke-opacity="1.00" stroke-dasharray="none" points="325.750,226.250 325.750,226.250 325.750,38.750 325.750,38.750 "/>
    <g>
<g id="ID000020" >
  <g transform="translate(375.391,68.407)">
    <g transform="rotate(-0.0)">
      <text x="0.000" y="0.000" font-family="Helvetica" text-anchor="start" font-size="18pt" fill="#000000" >LMProMPs</text>
    </g>
  </g>
</g>
<g id="ID000021" clip-path="url(#ID000019)" >
<g id="ID000022" clip-path="url(#ID000019)" >
<g id="ID000023" clip-path="url(#ID000019)" >
      <polyline fill="none" stroke="#ff0000" stroke-width="3.0pt" stroke-dasharray="none" points="333.250,59.250 370.750,59.250 "/>
<g>
</g>
</g>
<g id="ID000024" clip-path="url(#ID000019)" >
<g>
</g>
</g>
</g></g><g id="ID000025" >
  <g transform="translate(375.391,104.504)">
    <g transform="rotate(-0.0)">
      <text x="0.000" y="0.000" font-family="Helvetica" text-anchor="start" font-size="18pt" fill="#000000" >ProMPs</text>
    </g>
  </g>
</g>
<g id="ID000026" clip-path="url(#ID000019)" >
<g id="ID000027" clip-path="url(#ID000019)" >
<g id="ID000028" clip-path="url(#ID000019)" >
      <polyline fill="none" stroke="#0000ff" stroke-width="3.0pt" stroke-dasharray="none" points="333.250,95.875 370.750,95.875 "/>
<g>
</g>
</g>
<g id="ID000029" clip-path="url(#ID000019)" >
<g>
</g>
</g>
</g></g><g id="ID000030" >
  <g transform="translate(375.391,141.603)">
    <g transform="rotate(-0.0)">
      <text x="0.000" y="0.000" font-family="Helvetica" text-anchor="start" font-size="18pt" fill="#000000" >max</text>
    </g>
  </g>
</g>
<g id="ID000031" clip-path="url(#ID000019)" >
      <polyline fill="none" stroke="#0000ff" stroke-width="1.5pt" stroke-dasharray="none" points="333.250,132.500 370.750,132.500 "/>
<g>
</g>
</g>
<g id="ID000032" clip-path="url(#ID000019)" >
<g>
</g>
</g>
<g id="ID000033" >
  <g transform="translate(375.391,178.702)">
    <g transform="rotate(-0.0)">
      <text x="0.000" y="0.000" font-family="Helvetica" text-anchor="start" font-size="18pt" fill="#000000" >20cm</text>
    </g>
  </g>
</g>
<g id="ID000034" clip-path="url(#ID000019)" >
      <polyline fill="none" stroke="#000000" stroke-width="1.0pt" stroke-dasharray="8.0,2.0" points="333.250,169.125 370.750,169.125 "/>
<g>
</g>
</g>
<g id="ID000035" clip-path="url(#ID000019)" >
<g>
</g>
</g>
<g id="ID000036" >
  <g transform="translate(375.391,214.798)">
    <g transform="rotate(-0.0)">
      <text x="0.000" y="0.000" font-family="Helvetica" text-anchor="start" font-size="18pt" fill="#000000" >10cm</text>
    </g>
  </g>
</g>
<g id="ID000037" clip-path="url(#ID000019)" >
      <polyline fill="none" stroke="#000000" stroke-width="1.5pt" stroke-dasharray="8.0,2.0" points="333.250,205.750 370.750,205.750 "/>
<g>
</g>
</g>
<g id="ID000038" clip-path="url(#ID000019)" >
<g>
</g>
</g>
<g id="ID000039" >
</g>
<g id="ID000040" >
</g>
<g id="ID000041" >
</g>
    </g>
    <g>
      <polyline fill="none" stroke="#000000" stroke-width="0.5pt" stroke-dasharray="none" points="325.750,226.250 502.250,226.250 "/>
      <polyline fill="none" stroke="#000000" stroke-width="0.5pt" stroke-dasharray="none" points="325.750,38.750 502.250,38.750 "/>
      <polyline fill="none" stroke="#000000" stroke-width="0.5pt" stroke-dasharray="none" points="325.750,226.250 325.750,38.750 "/>
      <polyline fill="none" stroke="#000000" stroke-width="0.5pt" stroke-dasharray="none" points="502.250,226.250 502.250,38.750 "/>
      <polyline fill="none" stroke="#000000" stroke-width="0.5pt" stroke-dasharray="none" points="325.750,226.250 325.750,224.375 "/>
      <polyline fill="none" stroke="#000000" stroke-width="0.5pt" stroke-dasharray="none" points="325.750,226.250 325.750,226.250 "/>
    </g>
  </g>
  </g>
</svg>
