<?xml version="1.0" encoding="utf-8" standalone="no"?><!DOCTYPE svg PUBLIC "-//W3C//DTD SVG 1.1//EN" "http://www.w3.org/Graphics/SVG/1.1/DTD/svg11.dtd">
<svg preserveAspectRatio="xMinYMin meet" width="100%" height="100%" viewBox="0 0 560.000 420.000"  version="1.1" xmlns="http://www.w3.org/2000/svg" xmlns:xlink="http://www.w3.org/1999/xlink">
  <desc>Matlab Figure Converted by PLOT2SVG written by Juerg Schwizer</desc>
  <g id="topgroup">
  <rect x="0" y="0" width="560.000" height="420.000" fill="#ffffff" stroke="none" />
  <g id ="ID000000">
  <clipPath id="ID000001">
    <rect x="114.000" y="31.500" width="392.800" height="313.500"/>
  </clipPath>
      <polygon fill="#ffffff" fill-opacity="1.00" stroke="none" stroke-width="0.5pt" stroke-opacity="1.00" stroke-dasharray="none" points="114.000,345.000 506.800,345.000 506.800,31.500 114.000,31.500 "/>
      <polygon fill="#ffffff" fill-opacity="1.00" stroke="none" stroke-width="0.5pt" stroke-opacity="1.00" stroke-dasharray="none" points="114.000,31.500 506.800,31.500 506.800,31.500 114.000,31.500 "/>
      <polygon fill="#ffffff" fill-opacity="1.00" stroke="none" stroke-width="0.5pt" stroke-opacity="1.00" stroke-dasharray="none" points="114.000,345.000 114.000,345.000 114.000,31.500 114.000,31.500 "/>
    <g>
<g id="ID000002" clip-path="url(#ID000001)" >
<g>
<circle cx="456.607" cy="374.224" r="5.000" fill="#ff0000" stroke="none" stroke-width="3.0pt" />
<circle cx="-228.622" cy="-1594.396" r="5.000" fill="#ff0000" stroke="none" stroke-width="3.0pt" />
<circle cx="-69.089" cy="-1277.171" r="5.000" fill="#ff0000" stroke="none" stroke-width="3.0pt" />
<circle cx="1056.612" cy="-862.207" r="5.000" fill="#ff0000" stroke="none" stroke-width="3.0pt" />
<circle cx="766.828" cy="-748.272" r="5.000" fill="#ff0000" stroke="none" stroke-width="3.0pt" />
<circle cx="498.200" cy="-433.651" r="5.000" fill="#ff0000" stroke="none" stroke-width="3.0pt" />
<circle cx="-8.592" cy="-1051.343" r="5.000" fill="#ff0000" stroke="none" stroke-width="3.0pt" />
<circle cx="44.993" cy="-367.728" r="5.000" fill="#ff0000" stroke="none" stroke-width="3.0pt" />
<circle cx="559.421" cy="670.059" r="5.000" fill="#ff0000" stroke="none" stroke-width="3.0pt" />
<circle cx="372.410" cy="969.757" r="5.000" fill="#ff0000" stroke="none" stroke-width="3.0pt" />
</g>
</g>
<g id="ID000003" clip-path="url(#ID000001)" >
<g>
<circle cx="-63.131" cy="1445.836" r="5.000" fill="#0000ff" stroke="none" stroke-width="3.0pt" />
<circle cx="116.875" cy="1021.512" r="5.000" fill="#0000ff" stroke="none" stroke-width="3.0pt" />
<circle cx="1134.935" cy="862.991" r="5.000" fill="#0000ff" stroke="none" stroke-width="3.0pt" />
<circle cx="-156.247" cy="1515.292" r="5.000" fill="#0000ff" stroke="none" stroke-width="3.0pt" />
<circle cx="218.990" cy="188.575" r="5.000" fill="#0000ff" stroke="none" stroke-width="3.0pt" />
<circle cx="116.396" cy="-42.688" r="5.000" fill="#0000ff" stroke="none" stroke-width="3.0pt" />
<circle cx="477.964" cy="-34.632" r="5.000" fill="#0000ff" stroke="none" stroke-width="3.0pt" />
<circle cx="585.606" cy="335.336" r="5.000" fill="#0000ff" stroke="none" stroke-width="3.0pt" />
<circle cx="-114.613" cy="787.800" r="5.000" fill="#0000ff" stroke="none" stroke-width="3.0pt" />
<circle cx="83.805" cy="1167.745" r="5.000" fill="#0000ff" stroke="none" stroke-width="3.0pt" />
<circle cx="-69.223" cy="998.197" r="5.000" fill="#0000ff" stroke="none" stroke-width="3.0pt" />
<circle cx="642.830" cy="1417.562" r="5.000" fill="#0000ff" stroke="none" stroke-width="3.0pt" />
</g>
</g>
<g id="ID000004" clip-path="url(#ID000001)" >
      <polyline fill="none" stroke="#000000" stroke-width="3.0pt" stroke-dasharray="none" points="212.200,109.875 408.600,266.625 "/>
<g>
</g>
</g>
<g id="ID000005" clip-path="url(#ID000001)" >
<g>
<circle cx="212.200" cy="109.875" r="5.000" fill="#000000" stroke="#000000" stroke-width="3.0pt" />
</g>
</g>
<g id="ID000006" clip-path="url(#ID000001)" >
<g>
      <polygon fill="#000000" fill-opacity="1.00" stroke="#000000" stroke-width="3.0pt" stroke-opacity="1.00" stroke-dasharray="none" points="254.633,142.396 254.633,155.729 267.967,155.729 267.967,142.396 254.633,142.396 "/>
</g>
</g>
<g id="ID000007" clip-path="url(#ID000001)" >
<g>
      <polygon fill="#000000" fill-opacity="1.00" stroke="#000000" stroke-width="3.0pt" stroke-opacity="1.00" stroke-dasharray="none" points="305.686,188.250 310.400,194.917 315.114,188.250 310.400,181.583 305.686,188.250 "/>
</g>
</g>
<g id="ID000008" clip-path="url(#ID000001)" >
<g>
      <polygon fill="#000000" fill-opacity="1.00" stroke="#000000" stroke-width="3.0pt" stroke-opacity="1.00" stroke-dasharray="none" points="352.833,231.284 366.167,231.284 359.500,219.738 352.833,231.284 "/>
</g>
</g>
<g id="ID000009" clip-path="url(#ID000001)" >
<g>
      <polygon fill="#000000" fill-opacity="1.00" stroke="#000000" stroke-width="3.0pt" stroke-opacity="1.00" stroke-dasharray="none" points="408.600,262.069 409.623,265.217 412.933,265.217 410.255,267.163 411.278,270.311 408.600,268.365 405.922,270.311 406.945,267.163 404.267,265.217 407.577,265.217 408.600,262.069 "/>
</g>
</g>
<g id="ID000010" >
  <g transform="translate(309.401,417.276)">
    <g transform="rotate(-0.0)">
      <text x="0.000" y="0.000" font-family="Helvetica" text-anchor="middle" font-size="26pt" fill="#000000" >latent dim. 1</text>
    </g>
  </g>
</g>
<g id="ID000011" >
  <g transform="translate(41.034,189.252)">
    <g transform="rotate(-90.0)">
      <text x="0.000" y="0.000" font-family="Helvetica" text-anchor="middle" font-size="26pt" fill="#000000" >latent dim. 2</text>
    </g>
  </g>
</g>
<g id="ID000012" >
</g>
    </g>
    <g>
      <polyline fill="none" stroke="#000000" stroke-width="0.5pt" stroke-dasharray="none" points="310.400,345.000 310.400,341.072 "/>
      <polyline fill="none" stroke="#000000" stroke-width="0.5pt" stroke-dasharray="none" points="114.000,345.000 506.800,345.000 "/>
      <polyline fill="none" stroke="#000000" stroke-width="0.5pt" stroke-dasharray="none" points="310.400,31.500 310.400,35.428 "/>
      <polyline fill="none" stroke="#000000" stroke-width="0.5pt" stroke-dasharray="none" points="114.000,31.500 506.800,31.500 "/>
  <g transform="translate(114.000,381.950)">
    <g transform="rotate(-0.0)">
      <text x="0.000" y="0.000" font-family="Helvetica" text-anchor="middle" font-size="26pt" fill="#000000" >-1</text>
    </g>
  </g>
  <g transform="translate(310.400,381.950)">
    <g transform="rotate(-0.0)">
      <text x="0.000" y="0.000" font-family="Helvetica" text-anchor="middle" font-size="26pt" fill="#000000" >0</text>
    </g>
  </g>
  <g transform="translate(506.800,381.950)">
    <g transform="rotate(-0.0)">
      <text x="0.000" y="0.000" font-family="Helvetica" text-anchor="middle" font-size="26pt" fill="#000000" >1</text>
    </g>
  </g>
      <polyline fill="none" stroke="#000000" stroke-width="0.5pt" stroke-dasharray="none" points="114.000,266.625 117.928,266.625 "/>
      <polyline fill="none" stroke="#000000" stroke-width="0.5pt" stroke-dasharray="none" points="114.000,188.250 117.928,188.250 "/>
      <polyline fill="none" stroke="#000000" stroke-width="0.5pt" stroke-dasharray="none" points="114.000,109.875 117.928,109.875 "/>
      <polyline fill="none" stroke="#000000" stroke-width="0.5pt" stroke-dasharray="none" points="114.000,345.000 114.000,31.500 "/>
      <polyline fill="none" stroke="#000000" stroke-width="0.5pt" stroke-dasharray="none" points="506.800,266.625 502.872,266.625 "/>
      <polyline fill="none" stroke="#000000" stroke-width="0.5pt" stroke-dasharray="none" points="506.800,188.250 502.872,188.250 "/>
      <polyline fill="none" stroke="#000000" stroke-width="0.5pt" stroke-dasharray="none" points="506.800,109.875 502.872,109.875 "/>
      <polyline fill="none" stroke="#000000" stroke-width="0.5pt" stroke-dasharray="none" points="506.800,345.000 506.800,31.500 "/>
  <g transform="translate(106.144,356.700)">
    <g transform="rotate(-0.0)">
      <text x="0.000" y="0.000" font-family="Helvetica" text-anchor="end" font-size="26pt" fill="#000000" >-1</text>
    </g>
  </g>
  <g transform="translate(106.144,278.325)">
    <g transform="rotate(-0.0)">
      <text x="0.000" y="0.000" font-family="Helvetica" text-anchor="end" font-size="26pt" fill="#000000" >-0.5</text>
    </g>
  </g>
  <g transform="translate(106.144,199.950)">
    <g transform="rotate(-0.0)">
      <text x="0.000" y="0.000" font-family="Helvetica" text-anchor="end" font-size="26pt" fill="#000000" >0</text>
    </g>
  </g>
  <g transform="translate(106.144,121.575)">
    <g transform="rotate(-0.0)">
      <text x="0.000" y="0.000" font-family="Helvetica" text-anchor="end" font-size="26pt" fill="#000000" >0.5</text>
    </g>
  </g>
  <g transform="translate(106.144,43.200)">
    <g transform="rotate(-0.0)">
      <text x="0.000" y="0.000" font-family="Helvetica" text-anchor="end" font-size="26pt" fill="#000000" >1</text>
    </g>
  </g>
      <polyline fill="none" stroke="#000000" stroke-width="0.5pt" stroke-dasharray="none" points="114.000,345.000 114.000,341.865 "/>
      <polyline fill="none" stroke="#000000" stroke-width="0.5pt" stroke-dasharray="none" points="114.000,345.000 114.000,345.000 "/>
    </g>
  </g>
  </g>
</svg>
