<?xml version="1.0" encoding="utf-8" standalone="no"?><!DOCTYPE svg PUBLIC "-//W3C//DTD SVG 1.1//EN" "http://www.w3.org/Graphics/SVG/1.1/DTD/svg11.dtd">
<svg preserveAspectRatio="xMinYMin meet" width="100%" height="100%" viewBox="0 0 560.000 420.000"  version="1.1" xmlns="http://www.w3.org/2000/svg" xmlns:xlink="http://www.w3.org/1999/xlink">
  <desc>Matlab Figure Converted by PLOT2SVG written by Juerg Schwizer</desc>
  <g id="topgroup">
  <rect x="0" y="0" width="560.000" height="420.000" fill="#ffffff" stroke="none" />
  <g id ="ID000000">
  <clipPath id="ID000001">
    <rect x="114.000" y="31.500" width="392.800" height="313.500"/>
  </clipPath>
      <polygon fill="#ffffff" fill-opacity="1.00" stroke="none" stroke-width="0.5pt" stroke-opacity="1.00" stroke-dasharray="none" points="114.000,345.000 506.800,345.000 506.800,31.500 114.000,31.500 "/>
      <polygon fill="#ffffff" fill-opacity="1.00" stroke="none" stroke-width="0.5pt" stroke-opacity="1.00" stroke-dasharray="none" points="114.000,345.000 506.800,345.000 506.800,345.000 114.000,345.000 "/>
      <polygon fill="#ffffff" fill-opacity="1.00" stroke="none" stroke-width="0.5pt" stroke-opacity="1.00" stroke-dasharray="none" points="114.000,345.000 114.000,345.000 114.000,31.500 114.000,31.500 "/>
    <g>
<g id="ID000002" clip-path="url(#ID000001)" >
<g id="ID000003" clip-path="url(#ID000001)" >
      <polygon fill="#0000ff" fill-opacity="1.00" stroke="#000000" stroke-width="1.5pt" stroke-opacity="1.00" stroke-dasharray="none" points="125.765,188.250 125.765,192.414 128.801,192.414 128.801,188.250 "/>
      <polygon fill="#0000ff" fill-opacity="1.00" stroke="#000000" stroke-width="1.5pt" stroke-opacity="1.00" stroke-dasharray="none" points="142.843,188.250 142.843,244.597 145.879,244.597 145.879,188.250 "/>
      <polygon fill="#0000ff" fill-opacity="1.00" stroke="#000000" stroke-width="1.5pt" stroke-opacity="1.00" stroke-dasharray="none" points="159.922,188.250 159.922,209.448 162.958,209.448 162.958,188.250 "/>
      <polygon fill="#0000ff" fill-opacity="1.00" stroke="#000000" stroke-width="1.5pt" stroke-opacity="1.00" stroke-dasharray="none" points="177.000,188.250 177.000,66.574 180.036,66.574 180.036,188.250 "/>
      <polygon fill="#0000ff" fill-opacity="1.00" stroke="#000000" stroke-width="1.5pt" stroke-opacity="1.00" stroke-dasharray="none" points="194.078,188.250 194.078,236.223 197.114,236.223 197.114,188.250 "/>
      <polygon fill="#0000ff" fill-opacity="1.00" stroke="#000000" stroke-width="1.5pt" stroke-opacity="1.00" stroke-dasharray="none" points="211.156,188.250 211.156,181.719 214.192,181.719 214.192,188.250 "/>
      <polygon fill="#0000ff" fill-opacity="1.00" stroke="#000000" stroke-width="1.5pt" stroke-opacity="1.00" stroke-dasharray="none" points="228.235,188.250 228.235,335.180 231.271,335.180 231.271,188.250 "/>
      <polygon fill="#0000ff" fill-opacity="1.00" stroke="#000000" stroke-width="1.5pt" stroke-opacity="1.00" stroke-dasharray="none" points="245.313,188.250 245.313,280.753 248.349,280.753 248.349,188.250 "/>
      <polygon fill="#0000ff" fill-opacity="1.00" stroke="#000000" stroke-width="1.5pt" stroke-opacity="1.00" stroke-dasharray="none" points="262.391,188.250 262.391,62.557 265.427,62.557 265.427,188.250 "/>
      <polygon fill="#0000ff" fill-opacity="1.00" stroke="#000000" stroke-width="1.5pt" stroke-opacity="1.00" stroke-dasharray="none" points="279.469,188.250 279.469,142.869 282.506,142.869 282.506,188.250 "/>
      <polygon fill="#0000ff" fill-opacity="1.00" stroke="#000000" stroke-width="1.5pt" stroke-opacity="1.00" stroke-dasharray="none" points="296.548,188.250 296.548,160.258 299.584,160.258 299.584,188.250 "/>
      <polygon fill="#0000ff" fill-opacity="1.00" stroke="#000000" stroke-width="1.5pt" stroke-opacity="1.00" stroke-dasharray="none" points="313.626,188.250 313.626,244.689 316.662,244.689 316.662,188.250 "/>
      <polygon fill="#0000ff" fill-opacity="1.00" stroke="#000000" stroke-width="1.5pt" stroke-opacity="1.00" stroke-dasharray="none" points="330.704,188.250 330.704,233.580 333.740,233.580 333.740,188.250 "/>
      <polygon fill="#0000ff" fill-opacity="1.00" stroke="#000000" stroke-width="1.5pt" stroke-opacity="1.00" stroke-dasharray="none" points="347.782,188.250 347.782,192.494 350.819,192.494 350.819,188.250 "/>
      <polygon fill="#0000ff" fill-opacity="1.00" stroke="#000000" stroke-width="1.5pt" stroke-opacity="1.00" stroke-dasharray="none" points="364.861,188.250 364.861,151.335 367.897,151.335 367.897,188.250 "/>
      <polygon fill="#0000ff" fill-opacity="1.00" stroke="#000000" stroke-width="1.5pt" stroke-opacity="1.00" stroke-dasharray="none" points="381.939,188.250 381.939,139.048 384.975,139.048 384.975,188.250 "/>
      <polygon fill="#0000ff" fill-opacity="1.00" stroke="#000000" stroke-width="1.5pt" stroke-opacity="1.00" stroke-dasharray="none" points="399.017,188.250 399.017,235.474 402.053,235.474 402.053,188.250 "/>
      <polygon fill="#0000ff" fill-opacity="1.00" stroke="#000000" stroke-width="1.5pt" stroke-opacity="1.00" stroke-dasharray="none" points="416.095,188.250 416.095,212.136 419.132,212.136 419.132,188.250 "/>
      <polygon fill="#0000ff" fill-opacity="1.00" stroke="#000000" stroke-width="1.5pt" stroke-opacity="1.00" stroke-dasharray="none" points="433.174,188.250 433.174,237.688 436.210,237.688 436.210,188.250 "/>
      <polygon fill="#0000ff" fill-opacity="1.00" stroke="#000000" stroke-width="1.5pt" stroke-opacity="1.00" stroke-dasharray="none" points="450.252,188.250 450.252,118.429 453.288,118.429 453.288,188.250 "/>
      <polygon fill="#0000ff" fill-opacity="1.00" stroke="#000000" stroke-width="1.5pt" stroke-opacity="1.00" stroke-dasharray="none" points="467.330,188.250 467.330,143.247 470.366,143.247 470.366,188.250 "/>
      <polygon fill="#0000ff" fill-opacity="1.00" stroke="#000000" stroke-width="1.5pt" stroke-opacity="1.00" stroke-dasharray="none" points="484.409,188.250 484.409,175.497 487.445,175.497 487.445,188.250 "/>
</g>
</g><g id="ID000004" clip-path="url(#ID000001)" >
      <polyline fill="none" stroke="#000000" stroke-width="0.5pt" stroke-dasharray="none" points="114.000,188.250 506.800,188.250 "/>
<g>
</g>
</g>
<g id="ID000005" clip-path="url(#ID000001)" >
<g id="ID000006" clip-path="url(#ID000001)" >
      <polygon fill="#007f00" fill-opacity="1.00" stroke="#000000" stroke-width="1.5pt" stroke-opacity="1.00" stroke-dasharray="none" points="129.560,188.250 129.560,181.844 132.596,181.844 132.596,188.250 "/>
      <polygon fill="#007f00" fill-opacity="1.00" stroke="#000000" stroke-width="1.5pt" stroke-opacity="1.00" stroke-dasharray="none" points="146.638,188.250 146.638,204.110 149.675,204.110 149.675,188.250 "/>
      <polygon fill="#007f00" fill-opacity="1.00" stroke="#000000" stroke-width="1.5pt" stroke-opacity="1.00" stroke-dasharray="none" points="163.717,188.250 163.717,205.028 166.753,205.028 166.753,188.250 "/>
      <polygon fill="#007f00" fill-opacity="1.00" stroke="#000000" stroke-width="1.5pt" stroke-opacity="1.00" stroke-dasharray="none" points="180.795,188.250 180.795,202.578 183.831,202.578 183.831,188.250 "/>
      <polygon fill="#007f00" fill-opacity="1.00" stroke="#000000" stroke-width="1.5pt" stroke-opacity="1.00" stroke-dasharray="none" points="197.873,188.250 197.873,221.391 200.909,221.391 200.909,188.250 "/>
      <polygon fill="#007f00" fill-opacity="1.00" stroke="#000000" stroke-width="1.5pt" stroke-opacity="1.00" stroke-dasharray="none" points="214.951,188.250 214.951,205.826 217.988,205.826 217.988,188.250 "/>
      <polygon fill="#007f00" fill-opacity="1.00" stroke="#000000" stroke-width="1.5pt" stroke-opacity="1.00" stroke-dasharray="none" points="232.030,188.250 232.030,163.347 235.066,163.347 235.066,188.250 "/>
      <polygon fill="#007f00" fill-opacity="1.00" stroke="#000000" stroke-width="1.5pt" stroke-opacity="1.00" stroke-dasharray="none" points="249.108,188.250 249.108,163.817 252.144,163.817 252.144,188.250 "/>
      <polygon fill="#007f00" fill-opacity="1.00" stroke="#000000" stroke-width="1.5pt" stroke-opacity="1.00" stroke-dasharray="none" points="266.186,188.250 266.186,150.507 269.222,150.507 269.222,188.250 "/>
      <polygon fill="#007f00" fill-opacity="1.00" stroke="#000000" stroke-width="1.5pt" stroke-opacity="1.00" stroke-dasharray="none" points="283.265,188.250 283.265,154.375 286.301,154.375 286.301,188.250 "/>
      <polygon fill="#007f00" fill-opacity="1.00" stroke="#000000" stroke-width="1.5pt" stroke-opacity="1.00" stroke-dasharray="none" points="300.343,188.250 300.343,160.166 303.379,160.166 303.379,188.250 "/>
      <polygon fill="#007f00" fill-opacity="1.00" stroke="#000000" stroke-width="1.5pt" stroke-opacity="1.00" stroke-dasharray="none" points="317.421,188.250 317.421,158.775 320.457,158.775 320.457,188.250 "/>
      <polygon fill="#007f00" fill-opacity="1.00" stroke="#000000" stroke-width="1.5pt" stroke-opacity="1.00" stroke-dasharray="none" points="334.499,188.250 334.499,185.723 337.535,185.723 337.535,188.250 "/>
      <polygon fill="#007f00" fill-opacity="1.00" stroke="#000000" stroke-width="1.5pt" stroke-opacity="1.00" stroke-dasharray="none" points="351.578,188.250 351.578,201.021 354.614,201.021 354.614,188.250 "/>
      <polygon fill="#007f00" fill-opacity="1.00" stroke="#000000" stroke-width="1.5pt" stroke-opacity="1.00" stroke-dasharray="none" points="368.656,188.250 368.656,190.269 371.692,190.269 371.692,188.250 "/>
      <polygon fill="#007f00" fill-opacity="1.00" stroke="#000000" stroke-width="1.5pt" stroke-opacity="1.00" stroke-dasharray="none" points="385.734,188.250 385.734,207.475 388.770,207.475 388.770,188.250 "/>
      <polygon fill="#007f00" fill-opacity="1.00" stroke="#000000" stroke-width="1.5pt" stroke-opacity="1.00" stroke-dasharray="none" points="402.812,188.250 402.812,212.433 405.849,212.433 405.849,188.250 "/>
      <polygon fill="#007f00" fill-opacity="1.00" stroke="#000000" stroke-width="1.5pt" stroke-opacity="1.00" stroke-dasharray="none" points="419.891,188.250 419.891,214.701 422.927,214.701 422.927,188.250 "/>
      <polygon fill="#007f00" fill-opacity="1.00" stroke="#000000" stroke-width="1.5pt" stroke-opacity="1.00" stroke-dasharray="none" points="436.969,188.250 436.969,206.820 440.005,206.820 440.005,188.250 "/>
      <polygon fill="#007f00" fill-opacity="1.00" stroke="#000000" stroke-width="1.5pt" stroke-opacity="1.00" stroke-dasharray="none" points="454.047,188.250 454.047,207.732 457.083,207.732 457.083,188.250 "/>
      <polygon fill="#007f00" fill-opacity="1.00" stroke="#000000" stroke-width="1.5pt" stroke-opacity="1.00" stroke-dasharray="none" points="471.125,188.250 471.125,186.905 474.162,186.905 474.162,188.250 "/>
      <polygon fill="#007f00" fill-opacity="1.00" stroke="#000000" stroke-width="1.5pt" stroke-opacity="1.00" stroke-dasharray="none" points="488.204,188.250 488.204,182.344 491.240,182.344 491.240,188.250 "/>
</g>
</g><g id="ID000007" clip-path="url(#ID000001)" >
<g id="ID000008" clip-path="url(#ID000001)" >
      <polygon fill="#ff0000" fill-opacity="1.00" stroke="#000000" stroke-width="1.5pt" stroke-opacity="1.00" stroke-dasharray="none" points="133.355,188.250 133.355,38.317 136.391,38.317 136.391,188.250 "/>
      <polygon fill="#ff0000" fill-opacity="1.00" stroke="#000000" stroke-width="1.5pt" stroke-opacity="1.00" stroke-dasharray="none" points="150.434,188.250 150.434,34.089 153.470,34.089 153.470,188.250 "/>
      <polygon fill="#ff0000" fill-opacity="1.00" stroke="#000000" stroke-width="1.5pt" stroke-opacity="1.00" stroke-dasharray="none" points="167.512,188.250 167.512,125.774 170.548,125.774 170.548,188.250 "/>
      <polygon fill="#ff0000" fill-opacity="1.00" stroke="#000000" stroke-width="1.5pt" stroke-opacity="1.00" stroke-dasharray="none" points="184.590,188.250 184.590,257.244 187.626,257.244 187.626,188.250 "/>
      <polygon fill="#ff0000" fill-opacity="1.00" stroke="#000000" stroke-width="1.5pt" stroke-opacity="1.00" stroke-dasharray="none" points="201.668,188.250 201.668,164.366 204.705,164.366 204.705,188.250 "/>
      <polygon fill="#ff0000" fill-opacity="1.00" stroke="#000000" stroke-width="1.5pt" stroke-opacity="1.00" stroke-dasharray="none" points="218.747,188.250 218.747,294.013 221.783,294.013 221.783,188.250 "/>
      <polygon fill="#ff0000" fill-opacity="1.00" stroke="#000000" stroke-width="1.5pt" stroke-opacity="1.00" stroke-dasharray="none" points="235.825,188.250 235.825,300.188 238.861,300.188 238.861,188.250 "/>
      <polygon fill="#ff0000" fill-opacity="1.00" stroke="#000000" stroke-width="1.5pt" stroke-opacity="1.00" stroke-dasharray="none" points="252.903,188.250 252.903,294.502 255.939,294.502 255.939,188.250 "/>
      <polygon fill="#ff0000" fill-opacity="1.00" stroke="#000000" stroke-width="1.5pt" stroke-opacity="1.00" stroke-dasharray="none" points="269.981,188.250 269.981,231.956 273.018,231.956 273.018,188.250 "/>
      <polygon fill="#ff0000" fill-opacity="1.00" stroke="#000000" stroke-width="1.5pt" stroke-opacity="1.00" stroke-dasharray="none" points="287.060,188.250 287.060,139.785 290.096,139.785 290.096,188.250 "/>
      <polygon fill="#ff0000" fill-opacity="1.00" stroke="#000000" stroke-width="1.5pt" stroke-opacity="1.00" stroke-dasharray="none" points="304.138,188.250 304.138,125.856 307.174,125.856 307.174,188.250 "/>
      <polygon fill="#ff0000" fill-opacity="1.00" stroke="#000000" stroke-width="1.5pt" stroke-opacity="1.00" stroke-dasharray="none" points="321.216,188.250 321.216,145.563 324.252,145.563 324.252,188.250 "/>
      <polygon fill="#ff0000" fill-opacity="1.00" stroke="#000000" stroke-width="1.5pt" stroke-opacity="1.00" stroke-dasharray="none" points="338.294,188.250 338.294,215.142 341.331,215.142 341.331,188.250 "/>
      <polygon fill="#ff0000" fill-opacity="1.00" stroke="#000000" stroke-width="1.5pt" stroke-opacity="1.00" stroke-dasharray="none" points="355.373,188.250 355.373,310.538 358.409,310.538 358.409,188.250 "/>
      <polygon fill="#ff0000" fill-opacity="1.00" stroke="#000000" stroke-width="1.5pt" stroke-opacity="1.00" stroke-dasharray="none" points="372.451,188.250 372.451,287.062 375.487,287.062 375.487,188.250 "/>
      <polygon fill="#ff0000" fill-opacity="1.00" stroke="#000000" stroke-width="1.5pt" stroke-opacity="1.00" stroke-dasharray="none" points="389.529,188.250 389.529,334.983 392.565,334.983 392.565,188.250 "/>
      <polygon fill="#ff0000" fill-opacity="1.00" stroke="#000000" stroke-width="1.5pt" stroke-opacity="1.00" stroke-dasharray="none" points="406.608,188.250 406.608,203.763 409.644,203.763 409.644,188.250 "/>
      <polygon fill="#ff0000" fill-opacity="1.00" stroke="#000000" stroke-width="1.5pt" stroke-opacity="1.00" stroke-dasharray="none" points="423.686,188.250 423.686,176.029 426.722,176.029 426.722,188.250 "/>
      <polygon fill="#ff0000" fill-opacity="1.00" stroke="#000000" stroke-width="1.5pt" stroke-opacity="1.00" stroke-dasharray="none" points="440.764,188.250 440.764,124.332 443.800,124.332 443.800,188.250 "/>
      <polygon fill="#ff0000" fill-opacity="1.00" stroke="#000000" stroke-width="1.5pt" stroke-opacity="1.00" stroke-dasharray="none" points="457.842,188.250 457.842,166.312 460.878,166.312 460.878,188.250 "/>
      <polygon fill="#ff0000" fill-opacity="1.00" stroke="#000000" stroke-width="1.5pt" stroke-opacity="1.00" stroke-dasharray="none" points="474.921,188.250 474.921,132.370 477.957,132.370 477.957,188.250 "/>
      <polygon fill="#ff0000" fill-opacity="1.00" stroke="#000000" stroke-width="1.5pt" stroke-opacity="1.00" stroke-dasharray="none" points="491.999,188.250 491.999,-0.358 495.035,-0.358 495.035,188.250 "/>
</g>
</g><g id="ID000009" >
  <g transform="translate(309.401,417.276)">
    <g transform="rotate(-0.0)">
      <text x="0.000" y="0.000" font-family="Helvetica" text-anchor="middle" font-size="26pt" fill="#000000" >trajectory index</text>
    </g>
  </g>
</g>
<g id="ID000010" >
  <g transform="translate(41.034,189.252)">
    <g transform="rotate(-90.0)">
      <text x="0.000" y="0.000" font-family="Helvetica" text-anchor="middle" font-size="26pt" fill="#000000" >latent variable</text>
    </g>
  </g>
</g>
<g id="ID000011" >
</g>
<g id="ID000012" >
</g>
<g id="ID000013" >
</g>
    </g>
    <g>
      <polyline fill="none" stroke="#000000" stroke-width="0.5pt" stroke-dasharray="none" points="284.783,345.000 284.783,341.072 "/>
      <polyline fill="none" stroke="#000000" stroke-width="0.5pt" stroke-dasharray="none" points="455.565,345.000 455.565,341.072 "/>
      <polyline fill="none" stroke="#000000" stroke-width="0.5pt" stroke-dasharray="none" points="114.000,345.000 506.800,345.000 "/>
      <polyline fill="none" stroke="#000000" stroke-width="0.5pt" stroke-dasharray="none" points="284.783,31.500 284.783,35.428 "/>
      <polyline fill="none" stroke="#000000" stroke-width="0.5pt" stroke-dasharray="none" points="455.565,31.500 455.565,35.428 "/>
      <polyline fill="none" stroke="#000000" stroke-width="0.5pt" stroke-dasharray="none" points="114.000,31.500 506.800,31.500 "/>
  <g transform="translate(114.000,381.950)">
    <g transform="rotate(-0.0)">
      <text x="0.000" y="0.000" font-family="Helvetica" text-anchor="middle" font-size="26pt" fill="#000000" >0</text>
    </g>
  </g>
  <g transform="translate(284.783,381.950)">
    <g transform="rotate(-0.0)">
      <text x="0.000" y="0.000" font-family="Helvetica" text-anchor="middle" font-size="26pt" fill="#000000" >10</text>
    </g>
  </g>
  <g transform="translate(455.565,381.950)">
    <g transform="rotate(-0.0)">
      <text x="0.000" y="0.000" font-family="Helvetica" text-anchor="middle" font-size="26pt" fill="#000000" >20</text>
    </g>
  </g>
      <polyline fill="none" stroke="#000000" stroke-width="0.5pt" stroke-dasharray="none" points="114.000,318.875 117.928,318.875 "/>
      <polyline fill="none" stroke="#000000" stroke-width="0.5pt" stroke-dasharray="none" points="114.000,188.250 117.928,188.250 "/>
      <polyline fill="none" stroke="#000000" stroke-width="0.5pt" stroke-dasharray="none" points="114.000,57.625 117.928,57.625 "/>
      <polyline fill="none" stroke="#000000" stroke-width="0.5pt" stroke-dasharray="none" points="114.000,345.000 114.000,31.500 "/>
      <polyline fill="none" stroke="#000000" stroke-width="0.5pt" stroke-dasharray="none" points="506.800,318.875 502.872,318.875 "/>
      <polyline fill="none" stroke="#000000" stroke-width="0.5pt" stroke-dasharray="none" points="506.800,188.250 502.872,188.250 "/>
      <polyline fill="none" stroke="#000000" stroke-width="0.5pt" stroke-dasharray="none" points="506.800,57.625 502.872,57.625 "/>
      <polyline fill="none" stroke="#000000" stroke-width="0.5pt" stroke-dasharray="none" points="506.800,345.000 506.800,31.500 "/>
  <g transform="translate(106.144,330.575)">
    <g transform="rotate(-0.0)">
      <text x="0.000" y="0.000" font-family="Helvetica" text-anchor="end" font-size="26pt" fill="#000000" >-0.5</text>
    </g>
  </g>
  <g transform="translate(106.144,199.950)">
    <g transform="rotate(-0.0)">
      <text x="0.000" y="0.000" font-family="Helvetica" text-anchor="end" font-size="26pt" fill="#000000" >0</text>
    </g>
  </g>
  <g transform="translate(106.144,69.325)">
    <g transform="rotate(-0.0)">
      <text x="0.000" y="0.000" font-family="Helvetica" text-anchor="end" font-size="26pt" fill="#000000" >0.5</text>
    </g>
  </g>
      <polyline fill="none" stroke="#000000" stroke-width="0.5pt" stroke-dasharray="none" points="114.000,345.000 114.000,341.865 "/>
      <polyline fill="none" stroke="#000000" stroke-width="0.5pt" stroke-dasharray="none" points="114.000,345.000 114.000,345.000 "/>
    </g>
  </g>
  <g id ="ID000014">
  <clipPath id="ID000015">
    <rect x="282.750" y="38.750" width="219.500" height="43.625"/>
  </clipPath>
      <polygon fill="#ffffff" fill-opacity="1.00" stroke="none" stroke-width="0.5pt" stroke-opacity="1.00" stroke-dasharray="none" points="282.750,82.375 502.250,82.375 502.250,38.750 282.750,38.750 "/>
      <polygon fill="#ffffff" fill-opacity="1.00" stroke="none" stroke-width="0.5pt" stroke-opacity="1.00" stroke-dasharray="none" points="282.750,38.750 502.250,38.750 502.250,38.750 282.750,38.750 "/>
      <polygon fill="#ffffff" fill-opacity="1.00" stroke="none" stroke-width="0.5pt" stroke-opacity="1.00" stroke-dasharray="none" points="282.750,82.375 282.750,82.375 282.750,38.750 282.750,38.750 "/>
    <g>
<g id="ID000016" >
  <g transform="translate(332.363,69.677)">
    <g transform="rotate(-0.0)">
      <text x="0.000" y="0.000" font-family="Helvetica" text-anchor="start" font-size="18pt" fill="#000000" ><tspan>h</tspan><tspan dy="-9.0pt" font-size="13pt">1</tspan><tspan dy="9.0pt" font-size="18pt"></tspan></text>
    </g>
  </g>
</g>
<g id="ID000017" clip-path="url(#ID000015)" >
<g id="ID000018" clip-path="url(#ID000015)" >
      <polygon fill="#0000ff" fill-opacity="1.00" stroke="#000000" stroke-width="1.5pt" stroke-opacity="1.00" stroke-dasharray="none" points="290.250,75.138 290.250,45.363 327.750,45.363 327.750,75.138 290.250,75.138 "/>
</g>
</g><g id="ID000019" >
  <g transform="translate(404.527,69.677)">
    <g transform="rotate(-0.0)">
      <text x="0.000" y="0.000" font-family="Helvetica" text-anchor="start" font-size="18pt" fill="#000000" ><tspan>h</tspan><tspan dy="-9.0pt" font-size="13pt">2</tspan><tspan dy="9.0pt" font-size="18pt"></tspan></text>
    </g>
  </g>
</g>
<g id="ID000020" clip-path="url(#ID000015)" >
<g id="ID000021" clip-path="url(#ID000015)" >
      <polygon fill="#007f00" fill-opacity="1.00" stroke="#000000" stroke-width="1.5pt" stroke-opacity="1.00" stroke-dasharray="none" points="361.750,75.138 361.750,45.363 399.250,45.363 399.250,75.138 361.750,75.138 "/>
</g>
</g><g id="ID000022" >
  <g transform="translate(475.689,69.677)">
    <g transform="rotate(-0.0)">
      <text x="0.000" y="0.000" font-family="Helvetica" text-anchor="start" font-size="18pt" fill="#000000" ><tspan>h</tspan><tspan dy="-9.0pt" font-size="13pt">3</tspan><tspan dy="9.0pt" font-size="18pt"></tspan></text>
    </g>
  </g>
</g>
<g id="ID000023" clip-path="url(#ID000015)" >
<g id="ID000024" clip-path="url(#ID000015)" >
      <polygon fill="#ff0000" fill-opacity="1.00" stroke="#000000" stroke-width="1.5pt" stroke-opacity="1.00" stroke-dasharray="none" points="433.250,75.138 433.250,45.363 470.750,45.363 470.750,75.138 433.250,75.138 "/>
</g>
</g><g id="ID000025" >
</g>
<g id="ID000026" >
</g>
<g id="ID000027" >
</g>
    </g>
    <g>
      <polyline fill="none" stroke="#000000" stroke-width="0.5pt" stroke-dasharray="none" points="282.750,82.375 502.250,82.375 "/>
      <polyline fill="none" stroke="#000000" stroke-width="0.5pt" stroke-dasharray="none" points="282.750,38.750 502.250,38.750 "/>
      <polyline fill="none" stroke="#000000" stroke-width="0.5pt" stroke-dasharray="none" points="282.750,82.375 282.750,38.750 "/>
      <polyline fill="none" stroke="#000000" stroke-width="0.5pt" stroke-dasharray="none" points="502.250,82.375 502.250,38.750 "/>
      <polyline fill="none" stroke="#000000" stroke-width="0.5pt" stroke-dasharray="none" points="282.750,82.375 282.750,81.939 "/>
      <polyline fill="none" stroke="#000000" stroke-width="0.5pt" stroke-dasharray="none" points="282.750,82.375 282.750,82.375 "/>
    </g>
  </g>
  </g>
</svg>
