<?xml version="1.0" encoding="utf-8" standalone="no"?><!DOCTYPE svg PUBLIC "-//W3C//DTD SVG 1.1//EN" "http://www.w3.org/Graphics/SVG/1.1/DTD/svg11.dtd">
<svg preserveAspectRatio="xMinYMin meet" width="100%" height="100%" viewBox="0 0 560.000 420.000"  version="1.1" xmlns="http://www.w3.org/2000/svg" xmlns:xlink="http://www.w3.org/1999/xlink">
  <desc>Matlab Figure Converted by PLOT2SVG written by Juerg Schwizer</desc>
  <g id="topgroup">
  <rect x="0" y="0" width="560.000" height="420.000" fill="#ffffff" stroke="none" />
  <g id ="ID000000">
  <clipPath id="ID000001">
    <rect x="114.000" y="31.500" width="392.800" height="313.500"/>
  </clipPath>
      <polygon fill="#ffffff" fill-opacity="1.00" stroke="none" stroke-width="0.5pt" stroke-opacity="1.00" stroke-dasharray="none" points="114.000,345.000 506.800,345.000 506.800,31.500 114.000,31.500 "/>
      <polygon fill="#ffffff" fill-opacity="1.00" stroke="none" stroke-width="0.5pt" stroke-opacity="1.00" stroke-dasharray="none" points="114.000,31.500 506.800,31.500 506.800,31.500 114.000,31.500 "/>
      <polygon fill="#ffffff" fill-opacity="1.00" stroke="none" stroke-width="0.5pt" stroke-opacity="1.00" stroke-dasharray="none" points="114.000,345.000 114.000,345.000 114.000,31.500 114.000,31.500 "/>
    <g>
<g id="ID000002" clip-path="url(#ID000001)" >
<g>
<circle cx="10496.421" cy="385498148.295" r="5.000" fill="#ff0000" stroke="none" stroke-width="3.0pt" />
<circle cx="-36096.368" cy="-61629363.418" r="5.000" fill="#ff0000" stroke="none" stroke-width="3.0pt" />
<circle cx="-38280.517" cy="123996894.237" r="5.000" fill="#ff0000" stroke="none" stroke-width="3.0pt" />
<circle cx="17788.002" cy="136335673.849" r="5.000" fill="#ff0000" stroke="none" stroke-width="3.0pt" />
<circle cx="18564.811" cy="17489930.593" r="5.000" fill="#ff0000" stroke="none" stroke-width="3.0pt" />
<circle cx="-5129.767" cy="268339711.466" r="5.000" fill="#ff0000" stroke="none" stroke-width="3.0pt" />
<circle cx="-32574.706" cy="12926922.593" r="5.000" fill="#ff0000" stroke="none" stroke-width="3.0pt" />
<circle cx="-15140.385" cy="-236166746.092" r="5.000" fill="#ff0000" stroke="none" stroke-width="3.0pt" />
<circle cx="20729.891" cy="2661157.485" r="5.000" fill="#ff0000" stroke="none" stroke-width="3.0pt" />
<circle cx="13898.265" cy="328913396.110" r="5.000" fill="#ff0000" stroke="none" stroke-width="3.0pt" />
</g>
</g>
<g id="ID000003" clip-path="url(#ID000001)" >
<g>
<circle cx="-4153.224" cy="258265041.607" r="5.000" fill="#0000ff" stroke="none" stroke-width="3.0pt" />
<circle cx="-1719.368" cy="213960041.040" r="5.000" fill="#0000ff" stroke="none" stroke-width="3.0pt" />
<circle cx="66972.159" cy="-103163322.558" r="5.000" fill="#0000ff" stroke="none" stroke-width="3.0pt" />
<circle cx="-168.227" cy="-174674844.863" r="5.000" fill="#0000ff" stroke="none" stroke-width="3.0pt" />
<circle cx="-12390.079" cy="-270150387.204" r="5.000" fill="#0000ff" stroke="none" stroke-width="3.0pt" />
<circle cx="-30496.453" cy="-144860112.283" r="5.000" fill="#0000ff" stroke="none" stroke-width="3.0pt" />
<circle cx="-466.125" cy="-231146244.222" r="5.000" fill="#0000ff" stroke="none" stroke-width="3.0pt" />
<circle cx="14535.404" cy="-286740734.366" r="5.000" fill="#0000ff" stroke="none" stroke-width="3.0pt" />
<circle cx="-19955.594" cy="-74257437.708" r="5.000" fill="#0000ff" stroke="none" stroke-width="3.0pt" />
<circle cx="6184.378" cy="-219978220.776" r="5.000" fill="#0000ff" stroke="none" stroke-width="3.0pt" />
<circle cx="-3781.940" cy="-72166596.492" r="5.000" fill="#0000ff" stroke="none" stroke-width="3.0pt" />
<circle cx="28414.522" cy="105425328.934" r="5.000" fill="#0000ff" stroke="none" stroke-width="3.0pt" />
</g>
</g>
<g id="ID000004" >
  <g transform="translate(309.401,417.276)">
    <g transform="rotate(-0.0)">
      <text x="0.000" y="0.000" font-family="Helvetica" text-anchor="middle" font-size="26pt" fill="#000000" >latent dim. 1</text>
    </g>
  </g>
</g>
<g id="ID000005" >
  <g transform="translate(41.034,189.252)">
    <g transform="rotate(-90.0)">
      <text x="0.000" y="0.000" font-family="Helvetica" text-anchor="middle" font-size="26pt" fill="#000000" >latent dim. 4</text>
    </g>
  </g>
</g>
<g id="ID000006" >
</g>
    </g>
    <g>
      <polyline fill="none" stroke="#000000" stroke-width="0.5pt" stroke-dasharray="none" points="310.400,345.000 310.400,341.072 "/>
      <polyline fill="none" stroke="#000000" stroke-width="0.5pt" stroke-dasharray="none" points="114.000,345.000 506.800,345.000 "/>
      <polyline fill="none" stroke="#000000" stroke-width="0.5pt" stroke-dasharray="none" points="310.400,31.500 310.400,35.428 "/>
      <polyline fill="none" stroke="#000000" stroke-width="0.5pt" stroke-dasharray="none" points="114.000,31.500 506.800,31.500 "/>
  <g transform="translate(114.000,381.950)">
    <g transform="rotate(-0.0)">
      <text x="0.000" y="0.000" font-family="Helvetica" text-anchor="middle" font-size="26pt" fill="#000000" >-1</text>
    </g>
  </g>
  <g transform="translate(310.400,381.950)">
    <g transform="rotate(-0.0)">
      <text x="0.000" y="0.000" font-family="Helvetica" text-anchor="middle" font-size="26pt" fill="#000000" >0</text>
    </g>
  </g>
  <g transform="translate(506.800,381.950)">
    <g transform="rotate(-0.0)">
      <text x="0.000" y="0.000" font-family="Helvetica" text-anchor="middle" font-size="26pt" fill="#000000" >1</text>
    </g>
  </g>
      <polyline fill="none" stroke="#000000" stroke-width="0.5pt" stroke-dasharray="none" points="114.000,266.625 117.928,266.625 "/>
      <polyline fill="none" stroke="#000000" stroke-width="0.5pt" stroke-dasharray="none" points="114.000,188.250 117.928,188.250 "/>
      <polyline fill="none" stroke="#000000" stroke-width="0.5pt" stroke-dasharray="none" points="114.000,109.875 117.928,109.875 "/>
      <polyline fill="none" stroke="#000000" stroke-width="0.5pt" stroke-dasharray="none" points="114.000,345.000 114.000,31.500 "/>
      <polyline fill="none" stroke="#000000" stroke-width="0.5pt" stroke-dasharray="none" points="506.800,266.625 502.872,266.625 "/>
      <polyline fill="none" stroke="#000000" stroke-width="0.5pt" stroke-dasharray="none" points="506.800,188.250 502.872,188.250 "/>
      <polyline fill="none" stroke="#000000" stroke-width="0.5pt" stroke-dasharray="none" points="506.800,109.875 502.872,109.875 "/>
      <polyline fill="none" stroke="#000000" stroke-width="0.5pt" stroke-dasharray="none" points="506.800,345.000 506.800,31.500 "/>
  <g transform="translate(106.144,356.700)">
    <g transform="rotate(-0.0)">
      <text x="0.000" y="0.000" font-family="Helvetica" text-anchor="end" font-size="26pt" fill="#000000" >-1</text>
    </g>
  </g>
  <g transform="translate(106.144,278.325)">
    <g transform="rotate(-0.0)">
      <text x="0.000" y="0.000" font-family="Helvetica" text-anchor="end" font-size="26pt" fill="#000000" >-0.5</text>
    </g>
  </g>
  <g transform="translate(106.144,199.950)">
    <g transform="rotate(-0.0)">
      <text x="0.000" y="0.000" font-family="Helvetica" text-anchor="end" font-size="26pt" fill="#000000" >0</text>
    </g>
  </g>
  <g transform="translate(106.144,121.575)">
    <g transform="rotate(-0.0)">
      <text x="0.000" y="0.000" font-family="Helvetica" text-anchor="end" font-size="26pt" fill="#000000" >0.5</text>
    </g>
  </g>
  <g transform="translate(106.144,43.200)">
    <g transform="rotate(-0.0)">
      <text x="0.000" y="0.000" font-family="Helvetica" text-anchor="end" font-size="26pt" fill="#000000" >1</text>
    </g>
  </g>
      <polyline fill="none" stroke="#000000" stroke-width="0.5pt" stroke-dasharray="none" points="114.000,345.000 114.000,341.865 "/>
      <polyline fill="none" stroke="#000000" stroke-width="0.5pt" stroke-dasharray="none" points="114.000,345.000 114.000,345.000 "/>
    </g>
  </g>
  </g>
</svg>
