<?xml version="1.0" encoding="utf-8" standalone="no"?><!DOCTYPE svg PUBLIC "-//W3C//DTD SVG 1.1//EN" "http://www.w3.org/Graphics/SVG/1.1/DTD/svg11.dtd">
<svg preserveAspectRatio="xMinYMin meet" width="100%" height="100%" viewBox="0 0 560.000 420.000"  version="1.1" xmlns="http://www.w3.org/2000/svg" xmlns:xlink="http://www.w3.org/1999/xlink">
  <desc>Matlab Figure Converted by PLOT2SVG written by Juerg Schwizer</desc>
  <g id="topgroup">
  <rect x="0" y="0" width="560.000" height="420.000" fill="#ffffff" stroke="none" />
  <g id ="ID000000">
  <clipPath id="ID000001">
    <rect x="92.000" y="31.500" width="414.800" height="309.500"/>
  </clipPath>
      <polygon fill="#ffffff" fill-opacity="1.00" stroke="none" stroke-width="0.5pt" stroke-opacity="1.00" stroke-dasharray="none" points="92.000,341.000 506.800,341.000 506.800,31.500 92.000,31.500 "/>
      <polygon fill="#ffffff" fill-opacity="1.00" stroke="none" stroke-width="0.5pt" stroke-opacity="1.00" stroke-dasharray="none" points="92.000,31.500 506.800,31.500 506.800,31.500 92.000,31.500 "/>
      <polygon fill="#ffffff" fill-opacity="1.00" stroke="none" stroke-width="0.5pt" stroke-opacity="1.00" stroke-dasharray="none" points="92.000,341.000 92.000,341.000 92.000,31.500 92.000,31.500 "/>
    <g>
<g id="ID000002" clip-path="url(#ID000001)" >
<g id="ID000003" clip-path="url(#ID000001)" >
      <polygon fill="#00008f" fill-opacity="1.00" stroke="#000000" stroke-width="0.5pt" stroke-opacity="1.00" stroke-dasharray="none" points="111.145,144.045 111.145,147.111 136.671,147.111 136.671,144.045 "/>
      <polygon fill="#00008f" fill-opacity="1.00" stroke="#000000" stroke-width="0.5pt" stroke-opacity="1.00" stroke-dasharray="none" points="143.052,144.045 143.052,144.795 168.578,144.795 168.578,144.045 "/>
      <polygon fill="#00008f" fill-opacity="1.00" stroke="#000000" stroke-width="0.5pt" stroke-opacity="1.00" stroke-dasharray="none" points="174.960,144.045 174.960,136.884 200.486,136.884 200.486,144.045 "/>
      <polygon fill="#00008f" fill-opacity="1.00" stroke="#000000" stroke-width="0.5pt" stroke-opacity="1.00" stroke-dasharray="none" points="206.868,144.045 206.868,163.899 232.394,163.899 232.394,144.045 "/>
      <polygon fill="#00008f" fill-opacity="1.00" stroke="#000000" stroke-width="0.5pt" stroke-opacity="1.00" stroke-dasharray="none" points="238.775,144.045 238.775,155.829 264.302,155.829 264.302,144.045 "/>
      <polygon fill="#00008f" fill-opacity="1.00" stroke="#000000" stroke-width="0.5pt" stroke-opacity="1.00" stroke-dasharray="none" points="270.683,144.045 270.683,143.745 296.209,143.745 296.209,144.045 "/>
      <polygon fill="#00008f" fill-opacity="1.00" stroke="#000000" stroke-width="0.5pt" stroke-opacity="1.00" stroke-dasharray="none" points="302.591,144.045 302.591,135.559 328.117,135.559 328.117,144.045 "/>
      <polygon fill="#00008f" fill-opacity="1.00" stroke="#000000" stroke-width="0.5pt" stroke-opacity="1.00" stroke-dasharray="none" points="334.498,144.045 334.498,151.153 360.025,151.153 360.025,144.045 "/>
      <polygon fill="#00008f" fill-opacity="1.00" stroke="#000000" stroke-width="0.5pt" stroke-opacity="1.00" stroke-dasharray="none" points="366.406,144.045 366.406,287.643 391.932,287.643 391.932,144.045 "/>
      <polygon fill="#00008f" fill-opacity="1.00" stroke="#000000" stroke-width="0.5pt" stroke-opacity="1.00" stroke-dasharray="none" points="398.314,144.045 398.314,152.841 423.840,152.841 423.840,144.045 "/>
      <polygon fill="#00008f" fill-opacity="1.00" stroke="#000000" stroke-width="0.5pt" stroke-opacity="1.00" stroke-dasharray="none" points="430.222,144.045 430.222,149.026 455.748,149.026 455.748,144.045 "/>
      <polygon fill="#00008f" fill-opacity="1.00" stroke="#000000" stroke-width="0.5pt" stroke-opacity="1.00" stroke-dasharray="none" points="462.129,144.045 462.129,133.564 487.655,133.564 487.655,144.045 "/>
</g>
</g><g id="ID000004" clip-path="url(#ID000001)" >
      <polyline fill="none" stroke="#000000" stroke-width="0.5pt" stroke-dasharray="none" points="92.000,144.045 506.800,144.045 "/>
<g>
</g>
</g>
<g id="ID000005" clip-path="url(#ID000001)" >
<g id="ID000006" clip-path="url(#ID000001)" >
      <polyline fill="none" stroke="#000000" stroke-width="3.0pt" stroke-dasharray="none" points="123.908,141.986 123.908,152.236 "/>
      <polyline fill="none" stroke="#000000" stroke-width="3.0pt" stroke-dasharray="none" points="120.398,141.986 127.418,141.986 "/>
      <polyline fill="none" stroke="#000000" stroke-width="3.0pt" stroke-dasharray="none" points="120.398,152.236 127.418,152.236 "/>
      <polyline fill="none" stroke="#000000" stroke-width="3.0pt" stroke-dasharray="none" points="155.815,131.628 155.815,157.961 "/>
      <polyline fill="none" stroke="#000000" stroke-width="3.0pt" stroke-dasharray="none" points="152.306,131.628 159.325,131.628 "/>
      <polyline fill="none" stroke="#000000" stroke-width="3.0pt" stroke-dasharray="none" points="152.306,157.961 159.325,157.961 "/>
      <polyline fill="none" stroke="#000000" stroke-width="3.0pt" stroke-dasharray="none" points="187.723,128.236 187.723,145.532 "/>
      <polyline fill="none" stroke="#000000" stroke-width="3.0pt" stroke-dasharray="none" points="184.213,128.236 191.233,128.236 "/>
      <polyline fill="none" stroke="#000000" stroke-width="3.0pt" stroke-dasharray="none" points="184.213,145.532 191.233,145.532 "/>
      <polyline fill="none" stroke="#000000" stroke-width="3.0pt" stroke-dasharray="none" points="219.631,155.695 219.631,172.103 "/>
      <polyline fill="none" stroke="#000000" stroke-width="3.0pt" stroke-dasharray="none" points="216.121,155.695 223.141,155.695 "/>
      <polyline fill="none" stroke="#000000" stroke-width="3.0pt" stroke-dasharray="none" points="216.121,172.103 223.141,172.103 "/>
      <polyline fill="none" stroke="#000000" stroke-width="3.0pt" stroke-dasharray="none" points="251.538,150.794 251.538,160.865 "/>
      <polyline fill="none" stroke="#000000" stroke-width="3.0pt" stroke-dasharray="none" points="248.029,150.794 255.048,150.794 "/>
      <polyline fill="none" stroke="#000000" stroke-width="3.0pt" stroke-dasharray="none" points="248.029,160.865 255.048,160.865 "/>
      <polyline fill="none" stroke="#000000" stroke-width="3.0pt" stroke-dasharray="none" points="283.446,131.451 283.446,156.039 "/>
      <polyline fill="none" stroke="#000000" stroke-width="3.0pt" stroke-dasharray="none" points="279.936,131.451 286.956,131.451 "/>
      <polyline fill="none" stroke="#000000" stroke-width="3.0pt" stroke-dasharray="none" points="279.936,156.039 286.956,156.039 "/>
      <polyline fill="none" stroke="#000000" stroke-width="3.0pt" stroke-dasharray="none" points="315.354,128.330 315.354,142.787 "/>
      <polyline fill="none" stroke="#000000" stroke-width="3.0pt" stroke-dasharray="none" points="311.844,128.330 318.864,128.330 "/>
      <polyline fill="none" stroke="#000000" stroke-width="3.0pt" stroke-dasharray="none" points="311.844,142.787 318.864,142.787 "/>
      <polyline fill="none" stroke="#000000" stroke-width="3.0pt" stroke-dasharray="none" points="347.262,137.614 347.262,164.692 "/>
      <polyline fill="none" stroke="#000000" stroke-width="3.0pt" stroke-dasharray="none" points="343.752,137.614 350.771,137.614 "/>
      <polyline fill="none" stroke="#000000" stroke-width="3.0pt" stroke-dasharray="none" points="343.752,164.692 350.771,164.692 "/>
      <polyline fill="none" stroke="#000000" stroke-width="3.0pt" stroke-dasharray="none" points="379.169,257.005 379.169,318.281 "/>
      <polyline fill="none" stroke="#000000" stroke-width="3.0pt" stroke-dasharray="none" points="375.659,257.005 382.679,257.005 "/>
      <polyline fill="none" stroke="#000000" stroke-width="3.0pt" stroke-dasharray="none" points="375.659,318.281 382.679,318.281 "/>
      <polyline fill="none" stroke="#000000" stroke-width="3.0pt" stroke-dasharray="none" points="411.077,90.231 411.077,215.451 "/>
      <polyline fill="none" stroke="#000000" stroke-width="3.0pt" stroke-dasharray="none" points="407.567,90.231 414.587,90.231 "/>
      <polyline fill="none" stroke="#000000" stroke-width="3.0pt" stroke-dasharray="none" points="407.567,215.451 414.587,215.451 "/>
      <polyline fill="none" stroke="#000000" stroke-width="3.0pt" stroke-dasharray="none" points="442.985,113.308 442.985,184.744 "/>
      <polyline fill="none" stroke="#000000" stroke-width="3.0pt" stroke-dasharray="none" points="439.475,113.308 446.494,113.308 "/>
      <polyline fill="none" stroke="#000000" stroke-width="3.0pt" stroke-dasharray="none" points="439.475,184.744 446.494,184.744 "/>
      <polyline fill="none" stroke="#000000" stroke-width="3.0pt" stroke-dasharray="none" points="474.892,97.163 474.892,169.965 "/>
      <polyline fill="none" stroke="#000000" stroke-width="3.0pt" stroke-dasharray="none" points="471.382,97.163 478.402,97.163 "/>
      <polyline fill="none" stroke="#000000" stroke-width="3.0pt" stroke-dasharray="none" points="471.382,169.965 478.402,169.965 "/>
<g>
</g>
</g>
<g id="ID000007" clip-path="url(#ID000001)" >
<g>
</g>
</g>
</g><g id="ID000008" >
  <g transform="translate(298.400,418.182)">
    <g transform="rotate(-0.0)">
      <text x="0.000" y="0.000" font-family="Helvetica" text-anchor="middle" font-size="28pt" fill="#000000" >weight index</text>
    </g>
  </g>
</g>
<g id="ID000009" >
  <g transform="translate(43.520,187.252)">
    <g transform="rotate(-90.0)">
      <text x="0.000" y="0.000" font-family="Helvetica" text-anchor="middle" font-size="28pt" fill="#000000" >weights</text>
    </g>
  </g>
</g>
<g id="ID000010" >
</g>
<g id="ID000011" >
</g>
<g id="ID000012" >
</g>
    </g>
    <g>
      <polyline fill="none" stroke="#000000" stroke-width="0.5pt" stroke-dasharray="none" points="123.908,341.000 123.908,336.852 "/>
      <polyline fill="none" stroke="#000000" stroke-width="0.5pt" stroke-dasharray="none" points="283.446,341.000 283.446,336.852 "/>
      <polyline fill="none" stroke="#000000" stroke-width="0.5pt" stroke-dasharray="none" points="474.892,341.000 474.892,336.852 "/>
      <polyline fill="none" stroke="#000000" stroke-width="0.5pt" stroke-dasharray="none" points="92.000,341.000 506.800,341.000 "/>
  <g transform="translate(123.908,380.230)">
    <g transform="rotate(-0.0)">
      <text x="0.000" y="0.000" font-family="Helvetica" text-anchor="middle" font-size="28pt" fill="#000000" >1</text>
    </g>
  </g>
  <g transform="translate(283.446,380.230)">
    <g transform="rotate(-0.0)">
      <text x="0.000" y="0.000" font-family="Helvetica" text-anchor="middle" font-size="28pt" fill="#000000" >6</text>
    </g>
  </g>
  <g transform="translate(474.892,380.230)">
    <g transform="rotate(-0.0)">
      <text x="0.000" y="0.000" font-family="Helvetica" text-anchor="middle" font-size="28pt" fill="#000000" >12</text>
    </g>
  </g>
      <polyline fill="none" stroke="#000000" stroke-width="0.5pt" stroke-dasharray="none" points="92.000,312.864 96.148,312.864 "/>
      <polyline fill="none" stroke="#000000" stroke-width="0.5pt" stroke-dasharray="none" points="92.000,256.591 96.148,256.591 "/>
      <polyline fill="none" stroke="#000000" stroke-width="0.5pt" stroke-dasharray="none" points="92.000,200.318 96.148,200.318 "/>
      <polyline fill="none" stroke="#000000" stroke-width="0.5pt" stroke-dasharray="none" points="92.000,144.045 96.148,144.045 "/>
      <polyline fill="none" stroke="#000000" stroke-width="0.5pt" stroke-dasharray="none" points="92.000,87.773 96.148,87.773 "/>
      <polyline fill="none" stroke="#000000" stroke-width="0.5pt" stroke-dasharray="none" points="92.000,31.500 96.148,31.500 "/>
      <polyline fill="none" stroke="#000000" stroke-width="0.5pt" stroke-dasharray="none" points="92.000,341.000 92.000,31.500 "/>
  <g transform="translate(83.704,325.464)">
    <g transform="rotate(-0.0)">
      <text x="0.000" y="0.000" font-family="Helvetica" text-anchor="end" font-size="28pt" fill="#000000" >-6</text>
    </g>
  </g>
  <g transform="translate(83.704,269.191)">
    <g transform="rotate(-0.0)">
      <text x="0.000" y="0.000" font-family="Helvetica" text-anchor="end" font-size="28pt" fill="#000000" >-4</text>
    </g>
  </g>
  <g transform="translate(83.704,212.918)">
    <g transform="rotate(-0.0)">
      <text x="0.000" y="0.000" font-family="Helvetica" text-anchor="end" font-size="28pt" fill="#000000" >-2</text>
    </g>
  </g>
  <g transform="translate(83.704,156.645)">
    <g transform="rotate(-0.0)">
      <text x="0.000" y="0.000" font-family="Helvetica" text-anchor="end" font-size="28pt" fill="#000000" >0</text>
    </g>
  </g>
  <g transform="translate(83.704,100.373)">
    <g transform="rotate(-0.0)">
      <text x="0.000" y="0.000" font-family="Helvetica" text-anchor="end" font-size="28pt" fill="#000000" >2</text>
    </g>
  </g>
  <g transform="translate(83.704,44.100)">
    <g transform="rotate(-0.0)">
      <text x="0.000" y="0.000" font-family="Helvetica" text-anchor="end" font-size="28pt" fill="#000000" >4</text>
    </g>
  </g>
      <polyline fill="none" stroke="#000000" stroke-width="0.5pt" stroke-dasharray="none" points="92.000,341.000 92.000,337.905 "/>
      <polyline fill="none" stroke="#000000" stroke-width="0.5pt" stroke-dasharray="none" points="92.000,341.000 92.000,337.905 "/>
      <polyline fill="none" stroke="#000000" stroke-width="0.5pt" stroke-dasharray="none" points="92.000,341.000 92.000,337.905 "/>
      <polyline fill="none" stroke="#000000" stroke-width="0.5pt" stroke-dasharray="none" points="92.000,341.000 92.000,341.000 "/>
    </g>
  </g>
  <g id ="ID000013">
  <clipPath id="ID000014">
    <rect x="236.750" y="38.750" width="265.500" height="41.000"/>
  </clipPath>
      <polygon fill="#ffffff" fill-opacity="1.00" stroke="none" stroke-width="0.5pt" stroke-opacity="1.00" stroke-dasharray="none" points="236.750,79.750 502.250,79.750 502.250,38.750 236.750,38.750 "/>
      <polygon fill="#ffffff" fill-opacity="1.00" stroke="none" stroke-width="0.5pt" stroke-opacity="1.00" stroke-dasharray="none" points="236.750,38.750 502.250,38.750 502.250,38.750 236.750,38.750 "/>
      <polygon fill="#ffffff" fill-opacity="1.00" stroke="none" stroke-width="0.5pt" stroke-opacity="1.00" stroke-dasharray="none" points="236.750,79.750 236.750,79.750 236.750,38.750 236.750,38.750 "/>
    <g>
<g id="ID000015" >
  <g transform="translate(286.343,69.250)">
    <g transform="rotate(-0.0)">
      <text x="0.000" y="0.000" font-family="Helvetica" text-anchor="start" font-size="20pt" fill="#000000" >ProMPs Prior dim 2</text>
    </g>
  </g>
</g>
<g id="ID000016" clip-path="url(#ID000014)" >
<g id="ID000017" clip-path="url(#ID000014)" >
      <polygon fill="#00008f" fill-opacity="1.00" stroke="#000000" stroke-width="0.5pt" stroke-opacity="1.00" stroke-dasharray="none" points="244.250,73.338 244.250,45.163 281.750,45.163 281.750,73.338 244.250,73.338 "/>
</g>
</g><g id="ID000018" >
</g>
<g id="ID000019" >
</g>
<g id="ID000020" >
</g>
    </g>
    <g>
      <polyline fill="none" stroke="#000000" stroke-width="0.5pt" stroke-dasharray="none" points="236.750,79.750 502.250,79.750 "/>
      <polyline fill="none" stroke="#000000" stroke-width="0.5pt" stroke-dasharray="none" points="236.750,38.750 502.250,38.750 "/>
      <polyline fill="none" stroke="#000000" stroke-width="0.5pt" stroke-dasharray="none" points="236.750,79.750 236.750,38.750 "/>
      <polyline fill="none" stroke="#000000" stroke-width="0.5pt" stroke-dasharray="none" points="502.250,79.750 502.250,38.750 "/>
      <polyline fill="none" stroke="#000000" stroke-width="0.5pt" stroke-dasharray="none" points="236.750,79.750 236.750,79.340 "/>
      <polyline fill="none" stroke="#000000" stroke-width="0.5pt" stroke-dasharray="none" points="236.750,79.750 236.750,79.750 "/>
    </g>
  </g>
  </g>
</svg>
