<?xml version="1.0" encoding="utf-8" standalone="no"?><!DOCTYPE svg PUBLIC "-//W3C//DTD SVG 1.1//EN" "http://www.w3.org/Graphics/SVG/1.1/DTD/svg11.dtd">
<svg preserveAspectRatio="xMinYMin meet" width="100%" height="100%" viewBox="0 0 560.000 420.000"  version="1.1" xmlns="http://www.w3.org/2000/svg" xmlns:xlink="http://www.w3.org/1999/xlink">
  <desc>Matlab Figure Converted by PLOT2SVG written by Juerg Schwizer</desc>
  <g id="topgroup">
  <rect x="0" y="0" width="560.000" height="420.000" fill="#ffffff" stroke="none" />
  <g id ="ID000000">
  <clipPath id="ID000001">
    <rect x="87.000" y="31.500" width="419.800" height="313.500"/>
  </clipPath>
      <polygon fill="#ffffff" fill-opacity="1.00" stroke="none" stroke-width="0.5pt" stroke-opacity="1.00" stroke-dasharray="none" points="87.000,345.000 506.800,345.000 506.800,31.500 87.000,31.500 "/>
      <polygon fill="#ffffff" fill-opacity="1.00" stroke="none" stroke-width="0.5pt" stroke-opacity="1.00" stroke-dasharray="none" points="87.000,31.500 506.800,31.500 506.800,31.500 87.000,31.500 "/>
      <polygon fill="#ffffff" fill-opacity="1.00" stroke="none" stroke-width="0.5pt" stroke-opacity="1.00" stroke-dasharray="none" points="87.000,345.000 87.000,345.000 87.000,31.500 87.000,31.500 "/>
    <g>
<g id="ID000002" clip-path="url(#ID000001)" >
<g id="ID000003" clip-path="url(#ID000001)" >
      <polygon fill="#00008f" fill-opacity="1.00" stroke="#000000" stroke-width="0.5pt" stroke-opacity="1.00" stroke-dasharray="none" points="103.792,136.000 103.792,141.366 126.181,141.366 126.181,136.000 "/>
      <polygon fill="#00008f" fill-opacity="1.00" stroke="#000000" stroke-width="0.5pt" stroke-opacity="1.00" stroke-dasharray="none" points="131.779,136.000 131.779,141.470 154.168,141.470 154.168,136.000 "/>
      <polygon fill="#00008f" fill-opacity="1.00" stroke="#000000" stroke-width="0.5pt" stroke-opacity="1.00" stroke-dasharray="none" points="159.765,136.000 159.765,127.814 182.155,127.814 182.155,136.000 "/>
      <polygon fill="#00008f" fill-opacity="1.00" stroke="#000000" stroke-width="0.5pt" stroke-opacity="1.00" stroke-dasharray="none" points="187.752,136.000 187.752,172.068 210.141,172.068 210.141,136.000 "/>
      <polygon fill="#00008f" fill-opacity="1.00" stroke="#000000" stroke-width="0.5pt" stroke-opacity="1.00" stroke-dasharray="none" points="215.739,136.000 215.739,157.144 238.128,157.144 238.128,136.000 "/>
      <polygon fill="#00008f" fill-opacity="1.00" stroke="#000000" stroke-width="0.5pt" stroke-opacity="1.00" stroke-dasharray="none" points="243.725,136.000 243.725,153.645 266.115,153.645 266.115,136.000 "/>
      <polygon fill="#00008f" fill-opacity="1.00" stroke="#000000" stroke-width="0.5pt" stroke-opacity="1.00" stroke-dasharray="none" points="271.712,136.000 271.712,130.754 294.101,130.754 294.101,136.000 "/>
      <polygon fill="#00008f" fill-opacity="1.00" stroke="#000000" stroke-width="0.5pt" stroke-opacity="1.00" stroke-dasharray="none" points="299.699,136.000 299.699,135.779 322.088,135.779 322.088,136.000 "/>
      <polygon fill="#00008f" fill-opacity="1.00" stroke="#000000" stroke-width="0.5pt" stroke-opacity="1.00" stroke-dasharray="none" points="327.685,136.000 327.685,314.711 350.075,314.711 350.075,136.000 "/>
      <polygon fill="#00008f" fill-opacity="1.00" stroke="#000000" stroke-width="0.5pt" stroke-opacity="1.00" stroke-dasharray="none" points="355.672,136.000 355.672,175.498 378.061,175.498 378.061,136.000 "/>
      <polygon fill="#00008f" fill-opacity="1.00" stroke="#000000" stroke-width="0.5pt" stroke-opacity="1.00" stroke-dasharray="none" points="383.659,136.000 383.659,133.008 406.048,133.008 406.048,136.000 "/>
      <polygon fill="#00008f" fill-opacity="1.00" stroke="#000000" stroke-width="0.5pt" stroke-opacity="1.00" stroke-dasharray="none" points="411.645,136.000 411.645,159.326 434.035,159.326 434.035,136.000 "/>
</g>
</g><g id="ID000004" clip-path="url(#ID000001)" >
      <polyline fill="none" stroke="#000000" stroke-width="0.5pt" stroke-dasharray="none" points="87.000,136.000 506.800,136.000 "/>
<g>
</g>
</g>
<g id="ID000005" clip-path="url(#ID000001)" >
<g id="ID000006" clip-path="url(#ID000001)" >
      <polyline fill="none" stroke="#000000" stroke-width="3.0pt" stroke-dasharray="none" points="114.987,137.338 114.987,145.394 "/>
      <polyline fill="none" stroke="#000000" stroke-width="3.0pt" stroke-dasharray="none" points="111.908,137.338 118.065,137.338 "/>
      <polyline fill="none" stroke="#000000" stroke-width="3.0pt" stroke-dasharray="none" points="111.908,145.394 118.065,145.394 "/>
      <polyline fill="none" stroke="#000000" stroke-width="3.0pt" stroke-dasharray="none" points="142.973,137.274 142.973,145.666 "/>
      <polyline fill="none" stroke="#000000" stroke-width="3.0pt" stroke-dasharray="none" points="139.895,137.274 146.052,137.274 "/>
      <polyline fill="none" stroke="#000000" stroke-width="3.0pt" stroke-dasharray="none" points="139.895,145.666 146.052,145.666 "/>
      <polyline fill="none" stroke="#000000" stroke-width="3.0pt" stroke-dasharray="none" points="170.960,123.788 170.960,131.840 "/>
      <polyline fill="none" stroke="#000000" stroke-width="3.0pt" stroke-dasharray="none" points="167.881,123.788 174.039,123.788 "/>
      <polyline fill="none" stroke="#000000" stroke-width="3.0pt" stroke-dasharray="none" points="167.881,131.840 174.039,131.840 "/>
      <polyline fill="none" stroke="#000000" stroke-width="3.0pt" stroke-dasharray="none" points="198.947,168.027 198.947,176.110 "/>
      <polyline fill="none" stroke="#000000" stroke-width="3.0pt" stroke-dasharray="none" points="195.868,168.027 202.025,168.027 "/>
      <polyline fill="none" stroke="#000000" stroke-width="3.0pt" stroke-dasharray="none" points="195.868,176.110 202.025,176.110 "/>
      <polyline fill="none" stroke="#000000" stroke-width="3.0pt" stroke-dasharray="none" points="226.933,153.116 226.933,161.171 "/>
      <polyline fill="none" stroke="#000000" stroke-width="3.0pt" stroke-dasharray="none" points="223.855,153.116 230.012,153.116 "/>
      <polyline fill="none" stroke="#000000" stroke-width="3.0pt" stroke-dasharray="none" points="223.855,161.171 230.012,161.171 "/>
      <polyline fill="none" stroke="#000000" stroke-width="3.0pt" stroke-dasharray="none" points="254.920,149.542 254.920,157.748 "/>
      <polyline fill="none" stroke="#000000" stroke-width="3.0pt" stroke-dasharray="none" points="251.841,149.542 257.999,149.542 "/>
      <polyline fill="none" stroke="#000000" stroke-width="3.0pt" stroke-dasharray="none" points="251.841,157.748 257.999,157.748 "/>
      <polyline fill="none" stroke="#000000" stroke-width="3.0pt" stroke-dasharray="none" points="282.907,126.699 282.907,134.809 "/>
      <polyline fill="none" stroke="#000000" stroke-width="3.0pt" stroke-dasharray="none" points="279.828,126.699 285.985,126.699 "/>
      <polyline fill="none" stroke="#000000" stroke-width="3.0pt" stroke-dasharray="none" points="279.828,134.809 285.985,134.809 "/>
      <polyline fill="none" stroke="#000000" stroke-width="3.0pt" stroke-dasharray="none" points="310.893,131.566 310.893,139.992 "/>
      <polyline fill="none" stroke="#000000" stroke-width="3.0pt" stroke-dasharray="none" points="307.815,131.566 313.972,131.566 "/>
      <polyline fill="none" stroke="#000000" stroke-width="3.0pt" stroke-dasharray="none" points="307.815,139.992 313.972,139.992 "/>
      <polyline fill="none" stroke="#000000" stroke-width="3.0pt" stroke-dasharray="none" points="338.880,310.630 338.880,318.792 "/>
      <polyline fill="none" stroke="#000000" stroke-width="3.0pt" stroke-dasharray="none" points="335.801,310.630 341.959,310.630 "/>
      <polyline fill="none" stroke="#000000" stroke-width="3.0pt" stroke-dasharray="none" points="335.801,318.792 341.959,318.792 "/>
      <polyline fill="none" stroke="#000000" stroke-width="3.0pt" stroke-dasharray="none" points="366.867,171.028 366.867,179.968 "/>
      <polyline fill="none" stroke="#000000" stroke-width="3.0pt" stroke-dasharray="none" points="363.788,171.028 369.945,171.028 "/>
      <polyline fill="none" stroke="#000000" stroke-width="3.0pt" stroke-dasharray="none" points="363.788,179.968 369.945,179.968 "/>
      <polyline fill="none" stroke="#000000" stroke-width="3.0pt" stroke-dasharray="none" points="394.853,128.397 394.853,137.619 "/>
      <polyline fill="none" stroke="#000000" stroke-width="3.0pt" stroke-dasharray="none" points="391.775,128.397 397.932,128.397 "/>
      <polyline fill="none" stroke="#000000" stroke-width="3.0pt" stroke-dasharray="none" points="391.775,137.619 397.932,137.619 "/>
      <polyline fill="none" stroke="#000000" stroke-width="3.0pt" stroke-dasharray="none" points="422.840,155.236 422.840,163.416 "/>
      <polyline fill="none" stroke="#000000" stroke-width="3.0pt" stroke-dasharray="none" points="419.761,155.236 425.919,155.236 "/>
      <polyline fill="none" stroke="#000000" stroke-width="3.0pt" stroke-dasharray="none" points="419.761,163.416 425.919,163.416 "/>
<g>
</g>
</g>
<g id="ID000007" clip-path="url(#ID000001)" >
<g>
</g>
</g>
</g><g id="ID000008" >
  <g transform="translate(296.400,417.276)">
    <g transform="rotate(-0.0)">
      <text x="0.000" y="0.000" font-family="Helvetica" text-anchor="middle" font-size="26pt" fill="#000000" >weight index</text>
    </g>
  </g>
</g>
<g id="ID000009" >
  <g transform="translate(41.019,189.252)">
    <g transform="rotate(-90.0)">
      <text x="0.000" y="0.000" font-family="Helvetica" text-anchor="middle" font-size="26pt" fill="#000000" >weights</text>
    </g>
  </g>
</g>
<g id="ID000010" >
</g>
<g id="ID000011" >
</g>
<g id="ID000012" >
</g>
    </g>
    <g>
      <polyline fill="none" stroke="#000000" stroke-width="0.5pt" stroke-dasharray="none" points="114.987,345.000 114.987,340.802 "/>
      <polyline fill="none" stroke="#000000" stroke-width="0.5pt" stroke-dasharray="none" points="254.920,345.000 254.920,340.802 "/>
      <polyline fill="none" stroke="#000000" stroke-width="0.5pt" stroke-dasharray="none" points="422.840,345.000 422.840,340.802 "/>
      <polyline fill="none" stroke="#000000" stroke-width="0.5pt" stroke-dasharray="none" points="87.000,345.000 506.800,345.000 "/>
  <g transform="translate(114.987,381.950)">
    <g transform="rotate(-0.0)">
      <text x="0.000" y="0.000" font-family="Helvetica" text-anchor="middle" font-size="26pt" fill="#000000" >1</text>
    </g>
  </g>
  <g transform="translate(254.920,381.950)">
    <g transform="rotate(-0.0)">
      <text x="0.000" y="0.000" font-family="Helvetica" text-anchor="middle" font-size="26pt" fill="#000000" >6</text>
    </g>
  </g>
  <g transform="translate(422.840,381.950)">
    <g transform="rotate(-0.0)">
      <text x="0.000" y="0.000" font-family="Helvetica" text-anchor="middle" font-size="26pt" fill="#000000" >12</text>
    </g>
  </g>
      <polyline fill="none" stroke="#000000" stroke-width="0.5pt" stroke-dasharray="none" points="87.000,345.000 91.198,345.000 "/>
      <polyline fill="none" stroke="#000000" stroke-width="0.5pt" stroke-dasharray="none" points="87.000,240.500 91.198,240.500 "/>
      <polyline fill="none" stroke="#000000" stroke-width="0.5pt" stroke-dasharray="none" points="87.000,136.000 91.198,136.000 "/>
      <polyline fill="none" stroke="#000000" stroke-width="0.5pt" stroke-dasharray="none" points="87.000,31.500 91.198,31.500 "/>
      <polyline fill="none" stroke="#000000" stroke-width="0.5pt" stroke-dasharray="none" points="87.000,345.000 87.000,31.500 "/>
  <g transform="translate(78.604,356.700)">
    <g transform="rotate(-0.0)">
      <text x="0.000" y="0.000" font-family="Helvetica" text-anchor="end" font-size="26pt" fill="#000000" >-4</text>
    </g>
  </g>
  <g transform="translate(78.604,252.200)">
    <g transform="rotate(-0.0)">
      <text x="0.000" y="0.000" font-family="Helvetica" text-anchor="end" font-size="26pt" fill="#000000" >-2</text>
    </g>
  </g>
  <g transform="translate(78.604,147.700)">
    <g transform="rotate(-0.0)">
      <text x="0.000" y="0.000" font-family="Helvetica" text-anchor="end" font-size="26pt" fill="#000000" >0</text>
    </g>
  </g>
  <g transform="translate(78.604,43.200)">
    <g transform="rotate(-0.0)">
      <text x="0.000" y="0.000" font-family="Helvetica" text-anchor="end" font-size="26pt" fill="#000000" >2</text>
    </g>
  </g>
      <polyline fill="none" stroke="#000000" stroke-width="0.5pt" stroke-dasharray="none" points="87.000,345.000 87.000,341.865 "/>
      <polyline fill="none" stroke="#000000" stroke-width="0.5pt" stroke-dasharray="none" points="87.000,345.000 87.000,341.865 "/>
      <polyline fill="none" stroke="#000000" stroke-width="0.5pt" stroke-dasharray="none" points="87.000,345.000 87.000,341.865 "/>
      <polyline fill="none" stroke="#000000" stroke-width="0.5pt" stroke-dasharray="none" points="87.000,345.000 87.000,345.000 "/>
    </g>
  </g>
  <g id ="ID000013">
  <clipPath id="ID000014">
    <rect x="285.750" y="38.750" width="216.500" height="27.000"/>
  </clipPath>
      <polygon fill="#ffffff" fill-opacity="1.00" stroke="none" stroke-width="0.5pt" stroke-opacity="1.00" stroke-dasharray="none" points="285.750,65.750 502.250,65.750 502.250,38.750 285.750,38.750 "/>
      <polygon fill="#ffffff" fill-opacity="1.00" stroke="none" stroke-width="0.5pt" stroke-opacity="1.00" stroke-dasharray="none" points="285.750,38.750 502.250,38.750 502.250,38.750 285.750,38.750 "/>
      <polygon fill="#ffffff" fill-opacity="1.00" stroke="none" stroke-width="0.5pt" stroke-opacity="1.00" stroke-dasharray="none" points="285.750,65.750 285.750,65.750 285.750,38.750 285.750,38.750 "/>
    <g>
<g id="ID000015" >
  <g transform="translate(335.365,58.650)">
    <g transform="rotate(-0.0)">
      <text x="0.000" y="0.000" font-family="Helvetica" text-anchor="start" font-size="12pt" fill="#000000" >LDPM Prior dim 4 h dim 5</text>
    </g>
  </g>
</g>
<g id="ID000016" clip-path="url(#ID000014)" >
<g id="ID000017" clip-path="url(#ID000014)" >
      <polygon fill="#00008f" fill-opacity="1.00" stroke="#000000" stroke-width="0.5pt" stroke-opacity="1.00" stroke-dasharray="none" points="293.250,60.738 293.250,43.763 330.750,43.763 330.750,60.738 293.250,60.738 "/>
</g>
</g><g id="ID000018" >
</g>
<g id="ID000019" >
</g>
<g id="ID000020" >
</g>
    </g>
    <g>
      <polyline fill="none" stroke="#000000" stroke-width="0.5pt" stroke-dasharray="none" points="285.750,65.750 502.250,65.750 "/>
      <polyline fill="none" stroke="#000000" stroke-width="0.5pt" stroke-dasharray="none" points="285.750,38.750 502.250,38.750 "/>
      <polyline fill="none" stroke="#000000" stroke-width="0.5pt" stroke-dasharray="none" points="285.750,65.750 285.750,38.750 "/>
      <polyline fill="none" stroke="#000000" stroke-width="0.5pt" stroke-dasharray="none" points="502.250,65.750 502.250,38.750 "/>
      <polyline fill="none" stroke="#000000" stroke-width="0.5pt" stroke-dasharray="none" points="285.750,65.750 285.750,65.480 "/>
      <polyline fill="none" stroke="#000000" stroke-width="0.5pt" stroke-dasharray="none" points="285.750,65.750 285.750,65.750 "/>
    </g>
  </g>
  </g>
</svg>
