<?xml version="1.0" encoding="utf-8" standalone="no"?><!DOCTYPE svg PUBLIC "-//W3C//DTD SVG 1.1//EN" "http://www.w3.org/Graphics/SVG/1.1/DTD/svg11.dtd">
<svg preserveAspectRatio="xMinYMin meet" width="100%" height="100%" viewBox="0 0 560.000 420.000"  version="1.1" xmlns="http://www.w3.org/2000/svg" xmlns:xlink="http://www.w3.org/1999/xlink">
  <desc>Matlab Figure Converted by PLOT2SVG written by Juerg Schwizer</desc>
  <g id="topgroup">
  <rect x="0" y="0" width="560.000" height="420.000" fill="#ffffff" stroke="none" />
  <g id ="ID000000">
  <clipPath id="ID000001">
    <rect x="114.000" y="31.500" width="392.800" height="313.500"/>
  </clipPath>
      <polygon fill="#ffffff" fill-opacity="1.00" stroke="none" stroke-width="0.5pt" stroke-opacity="1.00" stroke-dasharray="none" points="114.000,345.000 506.800,345.000 506.800,31.500 114.000,31.500 "/>
      <polygon fill="#ffffff" fill-opacity="1.00" stroke="none" stroke-width="0.5pt" stroke-opacity="1.00" stroke-dasharray="none" points="114.000,345.000 506.800,345.000 506.800,345.000 114.000,345.000 "/>
      <polygon fill="#ffffff" fill-opacity="1.00" stroke="none" stroke-width="0.5pt" stroke-opacity="1.00" stroke-dasharray="none" points="114.000,345.000 114.000,345.000 114.000,31.500 114.000,31.500 "/>
    <g>
<g id="ID000002" clip-path="url(#ID000001)" >
<g>
<circle cx="231.655" cy="189.463" r="5.000" fill="#ff0000" stroke="none" stroke-width="3.0pt" />
<circle cx="235.524" cy="188.100" r="5.000" fill="#ff0000" stroke="none" stroke-width="3.0pt" />
<circle cx="241.638" cy="243.075" r="5.000" fill="#ff0000" stroke="none" stroke-width="3.0pt" />
<circle cx="233.165" cy="182.814" r="5.000" fill="#ff0000" stroke="none" stroke-width="3.0pt" />
<circle cx="295.388" cy="206.186" r="5.000" fill="#ff0000" stroke="none" stroke-width="3.0pt" />
<circle cx="301.850" cy="150.004" r="5.000" fill="#ff0000" stroke="none" stroke-width="3.0pt" />
<circle cx="342.300" cy="137.283" r="5.000" fill="#ff0000" stroke="none" stroke-width="3.0pt" />
<circle cx="267.046" cy="221.942" r="5.000" fill="#ff0000" stroke="none" stroke-width="3.0pt" />
<circle cx="244.502" cy="206.614" r="5.000" fill="#ff0000" stroke="none" stroke-width="3.0pt" />
<circle cx="247.708" cy="207.172" r="5.000" fill="#ff0000" stroke="none" stroke-width="3.0pt" />
<circle cx="266.007" cy="216.525" r="5.000" fill="#ff0000" stroke="none" stroke-width="3.0pt" />
<circle cx="224.113" cy="97.467" r="5.000" fill="#ff0000" stroke="none" stroke-width="3.0pt" />
</g>
</g>
<g id="ID000003" clip-path="url(#ID000001)" >
<g>
<circle cx="285.653" cy="286.645" r="5.000" fill="#0000ff" stroke="none" stroke-width="3.0pt" />
<circle cx="441.692" cy="213.643" r="5.000" fill="#0000ff" stroke="none" stroke-width="3.0pt" />
<circle cx="403.396" cy="116.596" r="5.000" fill="#0000ff" stroke="none" stroke-width="3.0pt" />
<circle cx="473.995" cy="202.140" r="5.000" fill="#0000ff" stroke="none" stroke-width="3.0pt" />
<circle cx="453.578" cy="199.153" r="5.000" fill="#0000ff" stroke="none" stroke-width="3.0pt" />
<circle cx="372.252" cy="251.706" r="5.000" fill="#0000ff" stroke="none" stroke-width="3.0pt" />
<circle cx="322.239" cy="130.685" r="5.000" fill="#0000ff" stroke="none" stroke-width="3.0pt" />
<circle cx="305.775" cy="136.522" r="5.000" fill="#0000ff" stroke="none" stroke-width="3.0pt" />
</g>
</g>
<g id="ID000004" >
  <g transform="translate(309.401,417.276)">
    <g transform="rotate(-0.0)">
      <text x="0.000" y="0.000" font-family="Helvetica" text-anchor="middle" font-size="26pt" fill="#000000" >latent dim. 2</text>
    </g>
  </g>
</g>
<g id="ID000005" >
  <g transform="translate(41.034,189.252)">
    <g transform="rotate(-90.0)">
      <text x="0.000" y="0.000" font-family="Helvetica" text-anchor="middle" font-size="26pt" fill="#000000" >latent dim. 3</text>
    </g>
  </g>
</g>
<g id="ID000006" >
</g>
    </g>
    <g>
      <polyline fill="none" stroke="#000000" stroke-width="0.5pt" stroke-dasharray="none" points="135.695,345.000 135.695,341.072 "/>
      <polyline fill="none" stroke="#000000" stroke-width="0.5pt" stroke-dasharray="none" points="309.969,345.000 309.969,341.072 "/>
      <polyline fill="none" stroke="#000000" stroke-width="0.5pt" stroke-dasharray="none" points="484.243,345.000 484.243,341.072 "/>
      <polyline fill="none" stroke="#000000" stroke-width="0.5pt" stroke-dasharray="none" points="114.000,345.000 506.800,345.000 "/>
      <polyline fill="none" stroke="#000000" stroke-width="0.5pt" stroke-dasharray="none" points="135.695,31.500 135.695,35.428 "/>
      <polyline fill="none" stroke="#000000" stroke-width="0.5pt" stroke-dasharray="none" points="309.969,31.500 309.969,35.428 "/>
      <polyline fill="none" stroke="#000000" stroke-width="0.5pt" stroke-dasharray="none" points="484.243,31.500 484.243,35.428 "/>
      <polyline fill="none" stroke="#000000" stroke-width="0.5pt" stroke-dasharray="none" points="114.000,31.500 506.800,31.500 "/>
  <g transform="translate(135.695,381.950)">
    <g transform="rotate(-0.0)">
      <text x="0.000" y="0.000" font-family="Helvetica" text-anchor="middle" font-size="26pt" fill="#000000" >-0.5</text>
    </g>
  </g>
  <g transform="translate(309.969,381.950)">
    <g transform="rotate(-0.0)">
      <text x="0.000" y="0.000" font-family="Helvetica" text-anchor="middle" font-size="26pt" fill="#000000" >0</text>
    </g>
  </g>
  <g transform="translate(484.243,381.950)">
    <g transform="rotate(-0.0)">
      <text x="0.000" y="0.000" font-family="Helvetica" text-anchor="middle" font-size="26pt" fill="#000000" >0.5</text>
    </g>
  </g>
      <polyline fill="none" stroke="#000000" stroke-width="0.5pt" stroke-dasharray="none" points="114.000,327.685 117.928,327.685 "/>
      <polyline fill="none" stroke="#000000" stroke-width="0.5pt" stroke-dasharray="none" points="114.000,188.594 117.928,188.594 "/>
      <polyline fill="none" stroke="#000000" stroke-width="0.5pt" stroke-dasharray="none" points="114.000,49.503 117.928,49.503 "/>
      <polyline fill="none" stroke="#000000" stroke-width="0.5pt" stroke-dasharray="none" points="114.000,345.000 114.000,31.500 "/>
      <polyline fill="none" stroke="#000000" stroke-width="0.5pt" stroke-dasharray="none" points="506.800,327.685 502.872,327.685 "/>
      <polyline fill="none" stroke="#000000" stroke-width="0.5pt" stroke-dasharray="none" points="506.800,188.594 502.872,188.594 "/>
      <polyline fill="none" stroke="#000000" stroke-width="0.5pt" stroke-dasharray="none" points="506.800,49.503 502.872,49.503 "/>
      <polyline fill="none" stroke="#000000" stroke-width="0.5pt" stroke-dasharray="none" points="506.800,345.000 506.800,31.500 "/>
  <g transform="translate(106.144,339.385)">
    <g transform="rotate(-0.0)">
      <text x="0.000" y="0.000" font-family="Helvetica" text-anchor="end" font-size="26pt" fill="#000000" >-0.5</text>
    </g>
  </g>
  <g transform="translate(106.144,200.294)">
    <g transform="rotate(-0.0)">
      <text x="0.000" y="0.000" font-family="Helvetica" text-anchor="end" font-size="26pt" fill="#000000" >0</text>
    </g>
  </g>
  <g transform="translate(106.144,61.203)">
    <g transform="rotate(-0.0)">
      <text x="0.000" y="0.000" font-family="Helvetica" text-anchor="end" font-size="26pt" fill="#000000" >0.5</text>
    </g>
  </g>
      <polyline fill="none" stroke="#000000" stroke-width="0.5pt" stroke-dasharray="none" points="114.000,345.000 114.000,341.865 "/>
      <polyline fill="none" stroke="#000000" stroke-width="0.5pt" stroke-dasharray="none" points="114.000,345.000 114.000,345.000 "/>
    </g>
  </g>
  </g>
</svg>
