<?xml version="1.0" encoding="utf-8" standalone="no"?><!DOCTYPE svg PUBLIC "-//W3C//DTD SVG 1.1//EN" "http://www.w3.org/Graphics/SVG/1.1/DTD/svg11.dtd">
<svg preserveAspectRatio="xMinYMin meet" width="100%" height="100%" viewBox="0 0 560.000 420.000"  version="1.1" xmlns="http://www.w3.org/2000/svg" xmlns:xlink="http://www.w3.org/1999/xlink">
  <desc>Matlab Figure Converted by PLOT2SVG written by Juerg Schwizer</desc>
  <g id="topgroup">
  <rect x="0" y="0" width="560.000" height="420.000" fill="#ffffff" stroke="none" />
  <g id ="ID000000">
  <clipPath id="ID000001">
    <rect x="114.000" y="31.500" width="392.800" height="313.500"/>
  </clipPath>
      <polygon fill="#ffffff" fill-opacity="1.00" stroke="none" stroke-width="0.5pt" stroke-opacity="1.00" stroke-dasharray="none" points="114.000,345.000 506.800,345.000 506.800,31.500 114.000,31.500 "/>
      <polygon fill="#ffffff" fill-opacity="1.00" stroke="none" stroke-width="0.5pt" stroke-opacity="1.00" stroke-dasharray="none" points="114.000,345.000 506.800,345.000 506.800,345.000 114.000,345.000 "/>
      <polygon fill="#ffffff" fill-opacity="1.00" stroke="none" stroke-width="0.5pt" stroke-opacity="1.00" stroke-dasharray="none" points="114.000,345.000 114.000,345.000 114.000,31.500 114.000,31.500 "/>
    <g>
<g id="ID000002" clip-path="url(#ID000001)" >
<g>
<circle cx="338.576" cy="251.098" r="5.000" fill="#ff0000" stroke="none" stroke-width="3.0pt" />
<circle cx="223.295" cy="248.009" r="5.000" fill="#ff0000" stroke="none" stroke-width="3.0pt" />
<circle cx="356.462" cy="243.130" r="5.000" fill="#ff0000" stroke="none" stroke-width="3.0pt" />
<circle cx="453.179" cy="249.893" r="5.000" fill="#ff0000" stroke="none" stroke-width="3.0pt" />
<circle cx="244.219" cy="200.231" r="5.000" fill="#ff0000" stroke="none" stroke-width="3.0pt" />
<circle cx="146.661" cy="195.074" r="5.000" fill="#ff0000" stroke="none" stroke-width="3.0pt" />
<circle cx="280.715" cy="162.790" r="5.000" fill="#ff0000" stroke="none" stroke-width="3.0pt" />
<circle cx="254.567" cy="222.852" r="5.000" fill="#ff0000" stroke="none" stroke-width="3.0pt" />
<circle cx="258.308" cy="240.844" r="5.000" fill="#ff0000" stroke="none" stroke-width="3.0pt" />
<circle cx="410.540" cy="238.286" r="5.000" fill="#ff0000" stroke="none" stroke-width="3.0pt" />
<circle cx="391.021" cy="223.681" r="5.000" fill="#ff0000" stroke="none" stroke-width="3.0pt" />
<circle cx="318.415" cy="257.117" r="5.000" fill="#ff0000" stroke="none" stroke-width="3.0pt" />
</g>
</g>
<g id="ID000003" clip-path="url(#ID000001)" >
<g>
<circle cx="212.666" cy="208.001" r="5.000" fill="#0000ff" stroke="none" stroke-width="3.0pt" />
<circle cx="354.289" cy="83.464" r="5.000" fill="#0000ff" stroke="none" stroke-width="3.0pt" />
<circle cx="221.491" cy="114.028" r="5.000" fill="#0000ff" stroke="none" stroke-width="3.0pt" />
<circle cx="377.119" cy="57.682" r="5.000" fill="#0000ff" stroke="none" stroke-width="3.0pt" />
<circle cx="264.770" cy="73.977" r="5.000" fill="#0000ff" stroke="none" stroke-width="3.0pt" />
<circle cx="316.221" cy="138.885" r="5.000" fill="#0000ff" stroke="none" stroke-width="3.0pt" />
<circle cx="402.403" cy="178.801" r="5.000" fill="#0000ff" stroke="none" stroke-width="3.0pt" />
<circle cx="382.549" cy="191.941" r="5.000" fill="#0000ff" stroke="none" stroke-width="3.0pt" />
</g>
</g>
<g id="ID000004" clip-path="url(#ID000001)" >
      <polyline fill="none" stroke="#000000" stroke-width="3.0pt" stroke-dasharray="none" points="130.331,263.969 467.500,44.591 "/>
<g>
</g>
</g>
<g id="ID000005" clip-path="url(#ID000001)" >
<g>
<circle cx="130.331" cy="263.969" r="5.000" fill="#000000" stroke="#000000" stroke-width="3.0pt" />
</g>
</g>
<g id="ID000006" clip-path="url(#ID000001)" >
<g>
      <polygon fill="#000000" fill-opacity="1.00" stroke="#000000" stroke-width="3.0pt" stroke-opacity="1.00" stroke-dasharray="none" points="207.956,202.458 207.956,215.791 221.290,215.791 221.290,202.458 207.956,202.458 "/>
</g>
</g>
<g id="ID000007" clip-path="url(#ID000001)" >
<g>
      <polygon fill="#000000" fill-opacity="1.00" stroke="#000000" stroke-width="3.0pt" stroke-opacity="1.00" stroke-dasharray="none" points="294.201,154.280 298.915,160.947 303.629,154.280 298.915,147.613 294.201,154.280 "/>
</g>
</g>
<g id="ID000008" clip-path="url(#ID000001)" >
<g>
      <polygon fill="#000000" fill-opacity="1.00" stroke="#000000" stroke-width="3.0pt" stroke-opacity="1.00" stroke-dasharray="none" points="376.541,103.282 389.874,103.282 383.208,91.736 376.541,103.282 "/>
</g>
</g>
<g id="ID000009" clip-path="url(#ID000001)" >
<g>
      <polygon fill="#000000" fill-opacity="1.00" stroke="#000000" stroke-width="3.0pt" stroke-opacity="1.00" stroke-dasharray="none" points="467.500,40.035 468.523,43.183 471.833,43.183 469.155,45.129 470.178,48.277 467.500,46.331 464.822,48.277 465.845,45.129 463.167,43.183 466.477,43.183 467.500,40.035 "/>
</g>
</g>
<g id="ID000010" >
  <g transform="translate(309.401,417.276)">
    <g transform="rotate(-0.0)">
      <text x="0.000" y="0.000" font-family="Helvetica" text-anchor="middle" font-size="26pt" fill="#000000" >latent dim. 1</text>
    </g>
  </g>
</g>
<g id="ID000011" >
  <g transform="translate(41.034,189.252)">
    <g transform="rotate(-90.0)">
      <text x="0.000" y="0.000" font-family="Helvetica" text-anchor="middle" font-size="26pt" fill="#000000" >latent dim. 2</text>
    </g>
  </g>
</g>
<g id="ID000012" >
</g>
    </g>
    <g>
      <polyline fill="none" stroke="#000000" stroke-width="0.5pt" stroke-dasharray="none" points="135.695,345.000 135.695,341.072 "/>
      <polyline fill="none" stroke="#000000" stroke-width="0.5pt" stroke-dasharray="none" points="309.969,345.000 309.969,341.072 "/>
      <polyline fill="none" stroke="#000000" stroke-width="0.5pt" stroke-dasharray="none" points="484.243,345.000 484.243,341.072 "/>
      <polyline fill="none" stroke="#000000" stroke-width="0.5pt" stroke-dasharray="none" points="114.000,345.000 506.800,345.000 "/>
      <polyline fill="none" stroke="#000000" stroke-width="0.5pt" stroke-dasharray="none" points="135.695,31.500 135.695,35.428 "/>
      <polyline fill="none" stroke="#000000" stroke-width="0.5pt" stroke-dasharray="none" points="309.969,31.500 309.969,35.428 "/>
      <polyline fill="none" stroke="#000000" stroke-width="0.5pt" stroke-dasharray="none" points="484.243,31.500 484.243,35.428 "/>
      <polyline fill="none" stroke="#000000" stroke-width="0.5pt" stroke-dasharray="none" points="114.000,31.500 506.800,31.500 "/>
  <g transform="translate(135.695,381.950)">
    <g transform="rotate(-0.0)">
      <text x="0.000" y="0.000" font-family="Helvetica" text-anchor="middle" font-size="26pt" fill="#000000" >-0.5</text>
    </g>
  </g>
  <g transform="translate(309.969,381.950)">
    <g transform="rotate(-0.0)">
      <text x="0.000" y="0.000" font-family="Helvetica" text-anchor="middle" font-size="26pt" fill="#000000" >0</text>
    </g>
  </g>
  <g transform="translate(484.243,381.950)">
    <g transform="rotate(-0.0)">
      <text x="0.000" y="0.000" font-family="Helvetica" text-anchor="middle" font-size="26pt" fill="#000000" >0.5</text>
    </g>
  </g>
      <polyline fill="none" stroke="#000000" stroke-width="0.5pt" stroke-dasharray="none" points="114.000,327.685 117.928,327.685 "/>
      <polyline fill="none" stroke="#000000" stroke-width="0.5pt" stroke-dasharray="none" points="114.000,188.594 117.928,188.594 "/>
      <polyline fill="none" stroke="#000000" stroke-width="0.5pt" stroke-dasharray="none" points="114.000,49.503 117.928,49.503 "/>
      <polyline fill="none" stroke="#000000" stroke-width="0.5pt" stroke-dasharray="none" points="114.000,345.000 114.000,31.500 "/>
      <polyline fill="none" stroke="#000000" stroke-width="0.5pt" stroke-dasharray="none" points="506.800,327.685 502.872,327.685 "/>
      <polyline fill="none" stroke="#000000" stroke-width="0.5pt" stroke-dasharray="none" points="506.800,188.594 502.872,188.594 "/>
      <polyline fill="none" stroke="#000000" stroke-width="0.5pt" stroke-dasharray="none" points="506.800,49.503 502.872,49.503 "/>
      <polyline fill="none" stroke="#000000" stroke-width="0.5pt" stroke-dasharray="none" points="506.800,345.000 506.800,31.500 "/>
  <g transform="translate(106.144,339.385)">
    <g transform="rotate(-0.0)">
      <text x="0.000" y="0.000" font-family="Helvetica" text-anchor="end" font-size="26pt" fill="#000000" >-0.5</text>
    </g>
  </g>
  <g transform="translate(106.144,200.294)">
    <g transform="rotate(-0.0)">
      <text x="0.000" y="0.000" font-family="Helvetica" text-anchor="end" font-size="26pt" fill="#000000" >0</text>
    </g>
  </g>
  <g transform="translate(106.144,61.203)">
    <g transform="rotate(-0.0)">
      <text x="0.000" y="0.000" font-family="Helvetica" text-anchor="end" font-size="26pt" fill="#000000" >0.5</text>
    </g>
  </g>
      <polyline fill="none" stroke="#000000" stroke-width="0.5pt" stroke-dasharray="none" points="114.000,345.000 114.000,341.865 "/>
      <polyline fill="none" stroke="#000000" stroke-width="0.5pt" stroke-dasharray="none" points="114.000,345.000 114.000,345.000 "/>
    </g>
  </g>
  </g>
</svg>
