<?xml version="1.0" encoding="utf-8" standalone="no"?><!DOCTYPE svg PUBLIC "-//W3C//DTD SVG 1.1//EN" "http://www.w3.org/Graphics/SVG/1.1/DTD/svg11.dtd">
<svg preserveAspectRatio="xMinYMin meet" width="100%" height="100%" viewBox="0 0 560.000 420.000"  version="1.1" xmlns="http://www.w3.org/2000/svg" xmlns:xlink="http://www.w3.org/1999/xlink">
  <desc>Matlab Figure Converted by PLOT2SVG written by Juerg Schwizer</desc>
  <g id="topgroup">
  <rect x="0" y="0" width="560.000" height="420.000" fill="#ffffff" stroke="none" />
  <g id ="ID000000">
  <clipPath id="ID000001">
    <rect x="87.000" y="31.500" width="419.800" height="327.500"/>
  </clipPath>
      <polygon fill="#ffffff" fill-opacity="1.00" stroke="none" stroke-width="0.5pt" stroke-opacity="1.00" stroke-dasharray="none" points="87.000,359.000 506.800,359.000 506.800,31.500 87.000,31.500 "/>
      <polygon fill="#ffffff" fill-opacity="1.00" stroke="none" stroke-width="0.5pt" stroke-opacity="1.00" stroke-dasharray="none" points="87.000,31.500 506.800,31.500 506.800,31.500 87.000,31.500 "/>
      <polygon fill="#ffffff" fill-opacity="1.00" stroke="none" stroke-width="0.5pt" stroke-opacity="1.00" stroke-dasharray="none" points="87.000,359.000 87.000,359.000 87.000,31.500 87.000,31.500 "/>
    <g>
<g id="ID000002" clip-path="url(#ID000001)" >
<g id="ID000003" clip-path="url(#ID000001)" >
      <polyline fill="none" stroke="#ff0000" stroke-width="3.0pt" stroke-dasharray="none" points="506.800,329.563 506.800,349.433 "/>
      <polyline fill="none" stroke="#ff0000" stroke-width="3.0pt" stroke-dasharray="none" points="510.837,329.563 502.763,329.563 "/>
      <polyline fill="none" stroke="#ff0000" stroke-width="3.0pt" stroke-dasharray="none" points="510.837,349.433 502.763,349.433 "/>
      <polyline fill="none" stroke="#ff0000" stroke-width="3.0pt" stroke-dasharray="none" points="490.654,329.318 490.654,349.348 "/>
      <polyline fill="none" stroke="#ff0000" stroke-width="3.0pt" stroke-dasharray="none" points="494.690,329.318 486.617,329.318 "/>
      <polyline fill="none" stroke="#ff0000" stroke-width="3.0pt" stroke-dasharray="none" points="494.690,349.348 486.617,349.348 "/>
      <polyline fill="none" stroke="#ff0000" stroke-width="3.0pt" stroke-dasharray="none" points="458.362,323.383 458.362,347.087 "/>
      <polyline fill="none" stroke="#ff0000" stroke-width="3.0pt" stroke-dasharray="none" points="462.398,323.383 454.325,323.383 "/>
      <polyline fill="none" stroke="#ff0000" stroke-width="3.0pt" stroke-dasharray="none" points="462.398,347.087 454.325,347.087 "/>
      <polyline fill="none" stroke="#ff0000" stroke-width="3.0pt" stroke-dasharray="none" points="426.069,322.153 426.069,346.819 "/>
      <polyline fill="none" stroke="#ff0000" stroke-width="3.0pt" stroke-dasharray="none" points="430.106,322.153 422.033,322.153 "/>
      <polyline fill="none" stroke="#ff0000" stroke-width="3.0pt" stroke-dasharray="none" points="430.106,346.819 422.033,346.819 "/>
      <polyline fill="none" stroke="#ff0000" stroke-width="3.0pt" stroke-dasharray="none" points="361.485,310.845 361.485,343.435 "/>
      <polyline fill="none" stroke="#ff0000" stroke-width="3.0pt" stroke-dasharray="none" points="365.521,310.845 357.448,310.845 "/>
      <polyline fill="none" stroke="#ff0000" stroke-width="3.0pt" stroke-dasharray="none" points="365.521,343.435 357.448,343.435 "/>
      <polyline fill="none" stroke="#ff0000" stroke-width="3.0pt" stroke-dasharray="none" points="296.900,295.511 296.900,339.288 "/>
      <polyline fill="none" stroke="#ff0000" stroke-width="3.0pt" stroke-dasharray="none" points="300.937,295.511 292.863,295.511 "/>
      <polyline fill="none" stroke="#ff0000" stroke-width="3.0pt" stroke-dasharray="none" points="300.937,339.288 292.863,339.288 "/>
      <polyline fill="none" stroke="#ff0000" stroke-width="3.0pt" stroke-dasharray="none" points="232.315,271.462 232.315,329.709 "/>
      <polyline fill="none" stroke="#ff0000" stroke-width="3.0pt" stroke-dasharray="none" points="236.352,271.462 228.279,271.462 "/>
      <polyline fill="none" stroke="#ff0000" stroke-width="3.0pt" stroke-dasharray="none" points="236.352,329.709 228.279,329.709 "/>
      <polyline fill="none" stroke="#ff0000" stroke-width="3.0pt" stroke-dasharray="none" points="167.731,235.913 167.731,322.778 "/>
      <polyline fill="none" stroke="#ff0000" stroke-width="3.0pt" stroke-dasharray="none" points="171.767,235.913 163.694,235.913 "/>
      <polyline fill="none" stroke="#ff0000" stroke-width="3.0pt" stroke-dasharray="none" points="171.767,322.778 163.694,322.778 "/>
      <polyline fill="none" stroke="#ff0000" stroke-width="3.0pt" stroke-dasharray="none" points="103.146,204.512 103.146,313.228 "/>
      <polyline fill="none" stroke="#ff0000" stroke-width="3.0pt" stroke-dasharray="none" points="107.183,204.512 99.110,204.512 "/>
      <polyline fill="none" stroke="#ff0000" stroke-width="3.0pt" stroke-dasharray="none" points="107.183,313.228 99.110,313.228 "/>
<g>
</g>
</g>
<g id="ID000004" clip-path="url(#ID000001)" >
      <polyline fill="none" stroke="#ff0000" stroke-width="3.0pt" stroke-dasharray="none" points="506.800,339.498 490.654,339.333 458.362,335.235 426.069,334.486 361.485,327.140 296.900,317.400 232.315,300.586 167.731,279.346 103.146,258.870 "/>
<g>
</g>
</g>
</g><g id="ID000005" clip-path="url(#ID000001)" >
<g id="ID000006" clip-path="url(#ID000001)" >
      <polyline fill="none" stroke="#0000ff" stroke-width="3.0pt" stroke-dasharray="none" points="506.800,343.144 506.800,355.979 "/>
      <polyline fill="none" stroke="#0000ff" stroke-width="3.0pt" stroke-dasharray="none" points="510.837,343.144 502.763,343.144 "/>
      <polyline fill="none" stroke="#0000ff" stroke-width="3.0pt" stroke-dasharray="none" points="510.837,355.979 502.763,355.979 "/>
      <polyline fill="none" stroke="#0000ff" stroke-width="3.0pt" stroke-dasharray="none" points="490.654,343.069 490.654,355.643 "/>
      <polyline fill="none" stroke="#0000ff" stroke-width="3.0pt" stroke-dasharray="none" points="494.690,343.069 486.617,343.069 "/>
      <polyline fill="none" stroke="#0000ff" stroke-width="3.0pt" stroke-dasharray="none" points="494.690,355.643 486.617,355.643 "/>
      <polyline fill="none" stroke="#0000ff" stroke-width="3.0pt" stroke-dasharray="none" points="458.362,343.447 458.362,355.527 "/>
      <polyline fill="none" stroke="#0000ff" stroke-width="3.0pt" stroke-dasharray="none" points="462.398,343.447 454.325,343.447 "/>
      <polyline fill="none" stroke="#0000ff" stroke-width="3.0pt" stroke-dasharray="none" points="462.398,355.527 454.325,355.527 "/>
      <polyline fill="none" stroke="#0000ff" stroke-width="3.0pt" stroke-dasharray="none" points="426.069,343.693 426.069,355.334 "/>
      <polyline fill="none" stroke="#0000ff" stroke-width="3.0pt" stroke-dasharray="none" points="430.106,343.693 422.033,343.693 "/>
      <polyline fill="none" stroke="#0000ff" stroke-width="3.0pt" stroke-dasharray="none" points="430.106,355.334 422.033,355.334 "/>
      <polyline fill="none" stroke="#0000ff" stroke-width="3.0pt" stroke-dasharray="none" points="361.485,339.297 361.485,351.606 "/>
      <polyline fill="none" stroke="#0000ff" stroke-width="3.0pt" stroke-dasharray="none" points="365.521,339.297 357.448,339.297 "/>
      <polyline fill="none" stroke="#0000ff" stroke-width="3.0pt" stroke-dasharray="none" points="365.521,351.606 357.448,351.606 "/>
      <polyline fill="none" stroke="#0000ff" stroke-width="3.0pt" stroke-dasharray="none" points="296.900,332.790 296.900,347.923 "/>
      <polyline fill="none" stroke="#0000ff" stroke-width="3.0pt" stroke-dasharray="none" points="300.937,332.790 292.863,332.790 "/>
      <polyline fill="none" stroke="#0000ff" stroke-width="3.0pt" stroke-dasharray="none" points="300.937,347.923 292.863,347.923 "/>
      <polyline fill="none" stroke="#0000ff" stroke-width="3.0pt" stroke-dasharray="none" points="232.315,314.911 232.315,340.801 "/>
      <polyline fill="none" stroke="#0000ff" stroke-width="3.0pt" stroke-dasharray="none" points="236.352,314.911 228.279,314.911 "/>
      <polyline fill="none" stroke="#0000ff" stroke-width="3.0pt" stroke-dasharray="none" points="236.352,340.801 228.279,340.801 "/>
      <polyline fill="none" stroke="#0000ff" stroke-width="3.0pt" stroke-dasharray="none" points="167.731,235.852 167.731,323.920 "/>
      <polyline fill="none" stroke="#0000ff" stroke-width="3.0pt" stroke-dasharray="none" points="171.767,235.852 163.694,235.852 "/>
      <polyline fill="none" stroke="#0000ff" stroke-width="3.0pt" stroke-dasharray="none" points="171.767,323.920 163.694,323.920 "/>
      <polyline fill="none" stroke="#0000ff" stroke-width="3.0pt" stroke-dasharray="none" points="103.146,168.775 103.146,281.533 "/>
      <polyline fill="none" stroke="#0000ff" stroke-width="3.0pt" stroke-dasharray="none" points="107.183,168.775 99.110,168.775 "/>
      <polyline fill="none" stroke="#0000ff" stroke-width="3.0pt" stroke-dasharray="none" points="107.183,281.533 99.110,281.533 "/>
<g>
</g>
</g>
<g id="ID000007" clip-path="url(#ID000001)" >
      <polyline fill="none" stroke="#0000ff" stroke-width="3.0pt" stroke-dasharray="none" points="506.800,349.562 490.654,349.356 458.362,349.487 426.069,349.513 361.485,345.451 296.900,340.356 232.315,327.856 167.731,279.886 103.146,225.154 "/>
<g>
</g>
</g>
</g><g id="ID000008" clip-path="url(#ID000001)" >
<g>
      <polygon fill="#ff0000" fill-opacity="1.00" stroke="#ff0000" stroke-width="3.0pt" stroke-opacity="1.00" stroke-dasharray="none" points="503.467,336.165 503.467,342.831 510.133,342.831 510.133,336.165 503.467,336.165 "/>
      <polygon fill="#ff0000" fill-opacity="1.00" stroke="#ff0000" stroke-width="3.0pt" stroke-opacity="1.00" stroke-dasharray="none" points="487.321,336.000 487.321,342.666 493.987,342.666 493.987,336.000 487.321,336.000 "/>
      <polygon fill="#ff0000" fill-opacity="1.00" stroke="#ff0000" stroke-width="3.0pt" stroke-opacity="1.00" stroke-dasharray="none" points="455.028,331.902 455.028,338.569 461.695,338.569 461.695,331.902 455.028,331.902 "/>
      <polygon fill="#ff0000" fill-opacity="1.00" stroke="#ff0000" stroke-width="3.0pt" stroke-opacity="1.00" stroke-dasharray="none" points="422.736,331.153 422.736,337.819 429.403,337.819 429.403,331.153 422.736,331.153 "/>
      <polygon fill="#ff0000" fill-opacity="1.00" stroke="#ff0000" stroke-width="3.0pt" stroke-opacity="1.00" stroke-dasharray="none" points="358.151,323.806 358.151,330.473 364.818,330.473 364.818,323.806 358.151,323.806 "/>
      <polygon fill="#ff0000" fill-opacity="1.00" stroke="#ff0000" stroke-width="3.0pt" stroke-opacity="1.00" stroke-dasharray="none" points="293.567,314.066 293.567,320.733 300.233,320.733 300.233,314.066 293.567,314.066 "/>
      <polygon fill="#ff0000" fill-opacity="1.00" stroke="#ff0000" stroke-width="3.0pt" stroke-opacity="1.00" stroke-dasharray="none" points="228.982,297.252 228.982,303.919 235.649,303.919 235.649,297.252 228.982,297.252 "/>
      <polygon fill="#ff0000" fill-opacity="1.00" stroke="#ff0000" stroke-width="3.0pt" stroke-opacity="1.00" stroke-dasharray="none" points="164.397,276.012 164.397,282.679 171.064,282.679 171.064,276.012 164.397,276.012 "/>
      <polygon fill="#ff0000" fill-opacity="1.00" stroke="#ff0000" stroke-width="3.0pt" stroke-opacity="1.00" stroke-dasharray="none" points="99.813,255.536 99.813,262.203 106.479,262.203 106.479,255.536 99.813,255.536 "/>
</g>
</g>
<g id="ID000009" clip-path="url(#ID000001)" >
<g>
      <polygon fill="#0000ff" fill-opacity="1.00" stroke="#0000ff" stroke-width="3.0pt" stroke-opacity="1.00" stroke-dasharray="none" points="503.467,346.228 503.467,352.895 510.133,352.895 510.133,346.228 503.467,346.228 "/>
      <polygon fill="#0000ff" fill-opacity="1.00" stroke="#0000ff" stroke-width="3.0pt" stroke-opacity="1.00" stroke-dasharray="none" points="487.321,346.023 487.321,352.690 493.987,352.690 493.987,346.023 487.321,346.023 "/>
      <polygon fill="#0000ff" fill-opacity="1.00" stroke="#0000ff" stroke-width="3.0pt" stroke-opacity="1.00" stroke-dasharray="none" points="455.028,346.154 455.028,352.820 461.695,352.820 461.695,346.154 455.028,346.154 "/>
      <polygon fill="#0000ff" fill-opacity="1.00" stroke="#0000ff" stroke-width="3.0pt" stroke-opacity="1.00" stroke-dasharray="none" points="422.736,346.180 422.736,352.847 429.403,352.847 429.403,346.180 422.736,346.180 "/>
      <polygon fill="#0000ff" fill-opacity="1.00" stroke="#0000ff" stroke-width="3.0pt" stroke-opacity="1.00" stroke-dasharray="none" points="358.151,342.118 358.151,348.785 364.818,348.785 364.818,342.118 358.151,342.118 "/>
      <polygon fill="#0000ff" fill-opacity="1.00" stroke="#0000ff" stroke-width="3.0pt" stroke-opacity="1.00" stroke-dasharray="none" points="293.567,337.023 293.567,343.690 300.233,343.690 300.233,337.023 293.567,337.023 "/>
      <polygon fill="#0000ff" fill-opacity="1.00" stroke="#0000ff" stroke-width="3.0pt" stroke-opacity="1.00" stroke-dasharray="none" points="228.982,324.523 228.982,331.189 235.649,331.189 235.649,324.523 228.982,324.523 "/>
      <polygon fill="#0000ff" fill-opacity="1.00" stroke="#0000ff" stroke-width="3.0pt" stroke-opacity="1.00" stroke-dasharray="none" points="164.397,276.553 164.397,283.219 171.064,283.219 171.064,276.553 164.397,276.553 "/>
      <polygon fill="#0000ff" fill-opacity="1.00" stroke="#0000ff" stroke-width="3.0pt" stroke-opacity="1.00" stroke-dasharray="none" points="99.813,221.821 99.813,228.488 106.479,228.488 106.479,221.821 99.813,221.821 "/>
</g>
</g>
<g id="ID000010" clip-path="url(#ID000001)" >
      <polyline fill="none" stroke="#000000" stroke-width="1.5pt" stroke-dasharray="8.0,2.0" points="506.800,337.167 87.000,337.167 "/>
<g>
</g>
</g>
<g id="ID000011" clip-path="url(#ID000001)" >
      <polyline fill="none" stroke="#0000ff" stroke-width="1.5pt" stroke-dasharray="none" points="506.800,317.690 490.654,317.690 458.362,310.190 426.069,310.190 361.485,294.004 296.900,275.706 232.315,249.931 167.731,170.868 103.146,127.887 "/>
<g>
</g>
</g>
<g id="ID000012" clip-path="url(#ID000001)" >
      <polyline fill="none" stroke="#000000" stroke-width="1.0pt" stroke-dasharray="8.0,2.0" points="506.800,315.333 87.000,315.333 "/>
<g>
</g>
</g>
<g id="ID000013" >
  <g transform="translate(296.400,415.660)">
    <g transform="rotate(-0.0)">
      <text x="0.000" y="0.000" font-family="Helvetica" text-anchor="middle" font-size="18pt" fill="#000000" >time until impact in sec</text>
    </g>
  </g>
</g>
<g id="ID000014" >
  <g transform="translate(33.024,196.252)">
    <g transform="rotate(-90.0)">
      <text x="0.000" y="0.000" font-family="Helvetica" text-anchor="middle" font-size="18pt" fill="#000000" >error in centimeter</text>
    </g>
  </g>
</g>
<g id="ID000015" >
</g>
<g id="ID000016" >
</g>
<g id="ID000017" >
</g>
    </g>
    <g>
      <polyline fill="none" stroke="#000000" stroke-width="0.5pt" stroke-dasharray="none" points="377.631,359.000 377.631,354.802 "/>
      <polyline fill="none" stroke="#000000" stroke-width="0.5pt" stroke-dasharray="none" points="248.462,359.000 248.462,354.802 "/>
      <polyline fill="none" stroke="#000000" stroke-width="0.5pt" stroke-dasharray="none" points="119.292,359.000 119.292,354.802 "/>
      <polyline fill="none" stroke="#000000" stroke-width="0.5pt" stroke-dasharray="none" points="87.000,359.000 506.800,359.000 "/>
      <polyline fill="none" stroke="#000000" stroke-width="0.5pt" stroke-dasharray="none" points="377.631,31.500 377.631,35.698 "/>
      <polyline fill="none" stroke="#000000" stroke-width="0.5pt" stroke-dasharray="none" points="248.462,31.500 248.462,35.698 "/>
      <polyline fill="none" stroke="#000000" stroke-width="0.5pt" stroke-dasharray="none" points="119.292,31.500 119.292,35.698 "/>
      <polyline fill="none" stroke="#000000" stroke-width="0.5pt" stroke-dasharray="none" points="87.000,31.500 506.800,31.500 "/>
  <g transform="translate(506.800,386.790)">
    <g transform="rotate(-0.0)">
      <text x="0.000" y="0.000" font-family="Helvetica" text-anchor="middle" font-size="18pt" fill="#000000" >0</text>
    </g>
  </g>
  <g transform="translate(377.631,386.790)">
    <g transform="rotate(-0.0)">
      <text x="0.000" y="0.000" font-family="Helvetica" text-anchor="middle" font-size="18pt" fill="#000000" >200</text>
    </g>
  </g>
  <g transform="translate(248.462,386.790)">
    <g transform="rotate(-0.0)">
      <text x="0.000" y="0.000" font-family="Helvetica" text-anchor="middle" font-size="18pt" fill="#000000" >400</text>
    </g>
  </g>
  <g transform="translate(119.292,386.790)">
    <g transform="rotate(-0.0)">
      <text x="0.000" y="0.000" font-family="Helvetica" text-anchor="middle" font-size="18pt" fill="#000000" >600</text>
    </g>
  </g>
      <polyline fill="none" stroke="#000000" stroke-width="0.5pt" stroke-dasharray="none" points="87.000,249.833 91.198,249.833 "/>
      <polyline fill="none" stroke="#000000" stroke-width="0.5pt" stroke-dasharray="none" points="87.000,140.667 91.198,140.667 "/>
      <polyline fill="none" stroke="#000000" stroke-width="0.5pt" stroke-dasharray="none" points="87.000,359.000 87.000,31.500 "/>
      <polyline fill="none" stroke="#000000" stroke-width="0.5pt" stroke-dasharray="none" points="506.800,249.833 502.602,249.833 "/>
      <polyline fill="none" stroke="#000000" stroke-width="0.5pt" stroke-dasharray="none" points="506.800,140.667 502.602,140.667 "/>
      <polyline fill="none" stroke="#000000" stroke-width="0.5pt" stroke-dasharray="none" points="506.800,359.000 506.800,31.500 "/>
  <g transform="translate(78.604,367.100)">
    <g transform="rotate(-0.0)">
      <text x="0.000" y="0.000" font-family="Helvetica" text-anchor="end" font-size="18pt" fill="#000000" >0</text>
    </g>
  </g>
  <g transform="translate(78.604,257.933)">
    <g transform="rotate(-0.0)">
      <text x="0.000" y="0.000" font-family="Helvetica" text-anchor="end" font-size="18pt" fill="#000000" >50</text>
    </g>
  </g>
  <g transform="translate(78.604,148.767)">
    <g transform="rotate(-0.0)">
      <text x="0.000" y="0.000" font-family="Helvetica" text-anchor="end" font-size="18pt" fill="#000000" >100</text>
    </g>
  </g>
  <g transform="translate(78.604,39.600)">
    <g transform="rotate(-0.0)">
      <text x="0.000" y="0.000" font-family="Helvetica" text-anchor="end" font-size="18pt" fill="#000000" >150</text>
    </g>
  </g>
      <polyline fill="none" stroke="#000000" stroke-width="0.5pt" stroke-dasharray="none" points="87.000,359.000 87.000,355.725 "/>
      <polyline fill="none" stroke="#000000" stroke-width="0.5pt" stroke-dasharray="none" points="87.000,359.000 87.000,359.000 "/>
    </g>
  </g>
  <g id ="ID000018">
  <clipPath id="ID000019">
    <rect x="325.750" y="38.750" width="176.500" height="187.500"/>
  </clipPath>
      <polygon fill="#ffffff" fill-opacity="1.00" stroke="none" stroke-width="0.5pt" stroke-opacity="1.00" stroke-dasharray="none" points="325.750,226.250 502.250,226.250 502.250,38.750 325.750,38.750 "/>
      <polygon fill="#ffffff" fill-opacity="1.00" stroke="none" stroke-width="0.5pt" stroke-opacity="1.00" stroke-dasharray="none" points="325.750,38.750 502.250,38.750 502.250,38.750 325.750,38.750 "/>
      <polygon fill="#ffffff" fill-opacity="1.00" stroke="none" stroke-width="0.5pt" stroke-opacity="1.00" stroke-dasharray="none" points="325.750,226.250 325.750,226.250 325.750,38.750 325.750,38.750 "/>
    <g>
<g id="ID000020" >
  <g transform="translate(375.391,68.407)">
    <g transform="rotate(-0.0)">
      <text x="0.000" y="0.000" font-family="Helvetica" text-anchor="start" font-size="18pt" fill="#000000" >LMProMPs</text>
    </g>
  </g>
</g>
<g id="ID000021" clip-path="url(#ID000019)" >
<g id="ID000022" clip-path="url(#ID000019)" >
<g id="ID000023" clip-path="url(#ID000019)" >
      <polyline fill="none" stroke="#ff0000" stroke-width="3.0pt" stroke-dasharray="none" points="333.250,59.250 370.750,59.250 "/>
<g>
</g>
</g>
<g id="ID000024" clip-path="url(#ID000019)" >
<g>
</g>
</g>
</g></g><g id="ID000025" >
  <g transform="translate(375.391,104.504)">
    <g transform="rotate(-0.0)">
      <text x="0.000" y="0.000" font-family="Helvetica" text-anchor="start" font-size="18pt" fill="#000000" >ProMPs</text>
    </g>
  </g>
</g>
<g id="ID000026" clip-path="url(#ID000019)" >
<g id="ID000027" clip-path="url(#ID000019)" >
<g id="ID000028" clip-path="url(#ID000019)" >
      <polyline fill="none" stroke="#0000ff" stroke-width="3.0pt" stroke-dasharray="none" points="333.250,95.875 370.750,95.875 "/>
<g>
</g>
</g>
<g id="ID000029" clip-path="url(#ID000019)" >
<g>
</g>
</g>
</g></g><g id="ID000030" >
  <g transform="translate(375.391,141.603)">
    <g transform="rotate(-0.0)">
      <text x="0.000" y="0.000" font-family="Helvetica" text-anchor="start" font-size="18pt" fill="#000000" >max</text>
    </g>
  </g>
</g>
<g id="ID000031" clip-path="url(#ID000019)" >
      <polyline fill="none" stroke="#0000ff" stroke-width="1.5pt" stroke-dasharray="none" points="333.250,132.500 370.750,132.500 "/>
<g>
</g>
</g>
<g id="ID000032" clip-path="url(#ID000019)" >
<g>
</g>
</g>
<g id="ID000033" >
  <g transform="translate(375.391,178.702)">
    <g transform="rotate(-0.0)">
      <text x="0.000" y="0.000" font-family="Helvetica" text-anchor="start" font-size="18pt" fill="#000000" >20cm</text>
    </g>
  </g>
</g>
<g id="ID000034" clip-path="url(#ID000019)" >
      <polyline fill="none" stroke="#000000" stroke-width="1.0pt" stroke-dasharray="8.0,2.0" points="333.250,169.125 370.750,169.125 "/>
<g>
</g>
</g>
<g id="ID000035" clip-path="url(#ID000019)" >
<g>
</g>
</g>
<g id="ID000036" >
  <g transform="translate(375.391,214.798)">
    <g transform="rotate(-0.0)">
      <text x="0.000" y="0.000" font-family="Helvetica" text-anchor="start" font-size="18pt" fill="#000000" >10cm</text>
    </g>
  </g>
</g>
<g id="ID000037" clip-path="url(#ID000019)" >
      <polyline fill="none" stroke="#000000" stroke-width="1.5pt" stroke-dasharray="8.0,2.0" points="333.250,205.750 370.750,205.750 "/>
<g>
</g>
</g>
<g id="ID000038" clip-path="url(#ID000019)" >
<g>
</g>
</g>
<g id="ID000039" >
</g>
<g id="ID000040" >
</g>
<g id="ID000041" >
</g>
    </g>
    <g>
      <polyline fill="none" stroke="#000000" stroke-width="0.5pt" stroke-dasharray="none" points="325.750,226.250 502.250,226.250 "/>
      <polyline fill="none" stroke="#000000" stroke-width="0.5pt" stroke-dasharray="none" points="325.750,38.750 502.250,38.750 "/>
      <polyline fill="none" stroke="#000000" stroke-width="0.5pt" stroke-dasharray="none" points="325.750,226.250 325.750,38.750 "/>
      <polyline fill="none" stroke="#000000" stroke-width="0.5pt" stroke-dasharray="none" points="502.250,226.250 502.250,38.750 "/>
      <polyline fill="none" stroke="#000000" stroke-width="0.5pt" stroke-dasharray="none" points="325.750,226.250 325.750,224.375 "/>
      <polyline fill="none" stroke="#000000" stroke-width="0.5pt" stroke-dasharray="none" points="325.750,226.250 325.750,226.250 "/>
    </g>
  </g>
  </g>
</svg>
