<?xml version="1.0" encoding="utf-8" standalone="no"?><!DOCTYPE svg PUBLIC "-//W3C//DTD SVG 1.1//EN" "http://www.w3.org/Graphics/SVG/1.1/DTD/svg11.dtd">
<svg preserveAspectRatio="xMinYMin meet" width="100%" height="100%" viewBox="0 0 560.000 420.000"  version="1.1" xmlns="http://www.w3.org/2000/svg" xmlns:xlink="http://www.w3.org/1999/xlink">
  <desc>Matlab Figure Converted by PLOT2SVG written by Juerg Schwizer</desc>
  <g id="topgroup">
  <rect x="0" y="0" width="560.000" height="420.000" fill="#ffffff" stroke="none" />
  <g id ="ID000000">
  <clipPath id="ID000001">
    <rect x="87.000" y="31.500" width="419.800" height="313.500"/>
  </clipPath>
      <polygon fill="#ffffff" fill-opacity="1.00" stroke="none" stroke-width="0.5pt" stroke-opacity="1.00" stroke-dasharray="none" points="87.000,345.000 506.800,345.000 506.800,31.500 87.000,31.500 "/>
      <polygon fill="#ffffff" fill-opacity="1.00" stroke="none" stroke-width="0.5pt" stroke-opacity="1.00" stroke-dasharray="none" points="87.000,31.500 506.800,31.500 506.800,31.500 87.000,31.500 "/>
      <polygon fill="#ffffff" fill-opacity="1.00" stroke="none" stroke-width="0.5pt" stroke-opacity="1.00" stroke-dasharray="none" points="87.000,345.000 87.000,345.000 87.000,31.500 87.000,31.500 "/>
    <g>
<g id="ID000002" clip-path="url(#ID000001)" >
<g id="ID000003" clip-path="url(#ID000001)" >
      <polygon fill="#00008f" fill-opacity="1.00" stroke="#000000" stroke-width="0.5pt" stroke-opacity="1.00" stroke-dasharray="none" points="103.792,136.000 103.792,156.549 126.181,156.549 126.181,136.000 "/>
      <polygon fill="#00008f" fill-opacity="1.00" stroke="#000000" stroke-width="0.5pt" stroke-opacity="1.00" stroke-dasharray="none" points="131.779,136.000 131.779,89.520 154.168,89.520 154.168,136.000 "/>
      <polygon fill="#00008f" fill-opacity="1.00" stroke="#000000" stroke-width="0.5pt" stroke-opacity="1.00" stroke-dasharray="none" points="159.765,136.000 159.765,136.803 182.155,136.803 182.155,136.000 "/>
      <polygon fill="#00008f" fill-opacity="1.00" stroke="#000000" stroke-width="0.5pt" stroke-opacity="1.00" stroke-dasharray="none" points="187.752,136.000 187.752,123.251 210.141,123.251 210.141,136.000 "/>
      <polygon fill="#00008f" fill-opacity="1.00" stroke="#000000" stroke-width="0.5pt" stroke-opacity="1.00" stroke-dasharray="none" points="215.739,136.000 215.739,189.081 238.128,189.081 238.128,136.000 "/>
      <polygon fill="#00008f" fill-opacity="1.00" stroke="#000000" stroke-width="0.5pt" stroke-opacity="1.00" stroke-dasharray="none" points="243.725,136.000 243.725,174.004 266.115,174.004 266.115,136.000 "/>
      <polygon fill="#00008f" fill-opacity="1.00" stroke="#000000" stroke-width="0.5pt" stroke-opacity="1.00" stroke-dasharray="none" points="271.712,136.000 271.712,123.783 294.101,123.783 294.101,136.000 "/>
      <polygon fill="#00008f" fill-opacity="1.00" stroke="#000000" stroke-width="0.5pt" stroke-opacity="1.00" stroke-dasharray="none" points="299.699,136.000 299.699,92.011 322.088,92.011 322.088,136.000 "/>
      <polygon fill="#00008f" fill-opacity="1.00" stroke="#000000" stroke-width="0.5pt" stroke-opacity="1.00" stroke-dasharray="none" points="327.685,136.000 327.685,210.059 350.075,210.059 350.075,136.000 "/>
      <polygon fill="#00008f" fill-opacity="1.00" stroke="#000000" stroke-width="0.5pt" stroke-opacity="1.00" stroke-dasharray="none" points="355.672,136.000 355.672,323.787 378.061,323.787 378.061,136.000 "/>
      <polygon fill="#00008f" fill-opacity="1.00" stroke="#000000" stroke-width="0.5pt" stroke-opacity="1.00" stroke-dasharray="none" points="383.659,136.000 383.659,233.098 406.048,233.098 406.048,136.000 "/>
      <polygon fill="#00008f" fill-opacity="1.00" stroke="#000000" stroke-width="0.5pt" stroke-opacity="1.00" stroke-dasharray="none" points="411.645,136.000 411.645,118.278 434.035,118.278 434.035,136.000 "/>
</g>
</g><g id="ID000004" clip-path="url(#ID000001)" >
      <polyline fill="none" stroke="#000000" stroke-width="0.5pt" stroke-dasharray="none" points="87.000,136.000 506.800,136.000 "/>
<g>
</g>
</g>
<g id="ID000005" clip-path="url(#ID000001)" >
<g id="ID000006" clip-path="url(#ID000001)" >
      <polyline fill="none" stroke="#000000" stroke-width="3.0pt" stroke-dasharray="none" points="114.987,152.527 114.987,160.571 "/>
      <polyline fill="none" stroke="#000000" stroke-width="3.0pt" stroke-dasharray="none" points="111.908,152.527 118.065,152.527 "/>
      <polyline fill="none" stroke="#000000" stroke-width="3.0pt" stroke-dasharray="none" points="111.908,160.571 118.065,160.571 "/>
      <polyline fill="none" stroke="#000000" stroke-width="3.0pt" stroke-dasharray="none" points="142.973,85.395 142.973,93.646 "/>
      <polyline fill="none" stroke="#000000" stroke-width="3.0pt" stroke-dasharray="none" points="139.895,85.395 146.052,85.395 "/>
      <polyline fill="none" stroke="#000000" stroke-width="3.0pt" stroke-dasharray="none" points="139.895,93.646 146.052,93.646 "/>
      <polyline fill="none" stroke="#000000" stroke-width="3.0pt" stroke-dasharray="none" points="170.960,132.780 170.960,140.827 "/>
      <polyline fill="none" stroke="#000000" stroke-width="3.0pt" stroke-dasharray="none" points="167.881,132.780 174.039,132.780 "/>
      <polyline fill="none" stroke="#000000" stroke-width="3.0pt" stroke-dasharray="none" points="167.881,140.827 174.039,140.827 "/>
      <polyline fill="none" stroke="#000000" stroke-width="3.0pt" stroke-dasharray="none" points="198.947,119.213 198.947,127.289 "/>
      <polyline fill="none" stroke="#000000" stroke-width="3.0pt" stroke-dasharray="none" points="195.868,119.213 202.025,119.213 "/>
      <polyline fill="none" stroke="#000000" stroke-width="3.0pt" stroke-dasharray="none" points="195.868,127.289 202.025,127.289 "/>
      <polyline fill="none" stroke="#000000" stroke-width="3.0pt" stroke-dasharray="none" points="226.933,185.058 226.933,193.103 "/>
      <polyline fill="none" stroke="#000000" stroke-width="3.0pt" stroke-dasharray="none" points="223.855,185.058 230.012,185.058 "/>
      <polyline fill="none" stroke="#000000" stroke-width="3.0pt" stroke-dasharray="none" points="223.855,193.103 230.012,193.103 "/>
      <polyline fill="none" stroke="#000000" stroke-width="3.0pt" stroke-dasharray="none" points="254.920,169.870 254.920,178.138 "/>
      <polyline fill="none" stroke="#000000" stroke-width="3.0pt" stroke-dasharray="none" points="251.841,169.870 257.999,169.870 "/>
      <polyline fill="none" stroke="#000000" stroke-width="3.0pt" stroke-dasharray="none" points="251.841,178.138 257.999,178.138 "/>
      <polyline fill="none" stroke="#000000" stroke-width="3.0pt" stroke-dasharray="none" points="282.907,119.740 282.907,127.825 "/>
      <polyline fill="none" stroke="#000000" stroke-width="3.0pt" stroke-dasharray="none" points="279.828,119.740 285.985,119.740 "/>
      <polyline fill="none" stroke="#000000" stroke-width="3.0pt" stroke-dasharray="none" points="279.828,127.825 285.985,127.825 "/>
      <polyline fill="none" stroke="#000000" stroke-width="3.0pt" stroke-dasharray="none" points="310.893,87.757 310.893,96.264 "/>
      <polyline fill="none" stroke="#000000" stroke-width="3.0pt" stroke-dasharray="none" points="307.815,87.757 313.972,87.757 "/>
      <polyline fill="none" stroke="#000000" stroke-width="3.0pt" stroke-dasharray="none" points="307.815,96.264 313.972,96.264 "/>
      <polyline fill="none" stroke="#000000" stroke-width="3.0pt" stroke-dasharray="none" points="338.880,206.014 338.880,214.105 "/>
      <polyline fill="none" stroke="#000000" stroke-width="3.0pt" stroke-dasharray="none" points="335.801,206.014 341.959,206.014 "/>
      <polyline fill="none" stroke="#000000" stroke-width="3.0pt" stroke-dasharray="none" points="335.801,214.105 341.959,214.105 "/>
      <polyline fill="none" stroke="#000000" stroke-width="3.0pt" stroke-dasharray="none" points="366.867,319.646 366.867,327.928 "/>
      <polyline fill="none" stroke="#000000" stroke-width="3.0pt" stroke-dasharray="none" points="363.788,319.646 369.945,319.646 "/>
      <polyline fill="none" stroke="#000000" stroke-width="3.0pt" stroke-dasharray="none" points="363.788,327.928 369.945,327.928 "/>
      <polyline fill="none" stroke="#000000" stroke-width="3.0pt" stroke-dasharray="none" points="394.853,228.990 394.853,237.206 "/>
      <polyline fill="none" stroke="#000000" stroke-width="3.0pt" stroke-dasharray="none" points="391.775,228.990 397.932,228.990 "/>
      <polyline fill="none" stroke="#000000" stroke-width="3.0pt" stroke-dasharray="none" points="391.775,237.206 397.932,237.206 "/>
      <polyline fill="none" stroke="#000000" stroke-width="3.0pt" stroke-dasharray="none" points="422.840,114.181 422.840,122.375 "/>
      <polyline fill="none" stroke="#000000" stroke-width="3.0pt" stroke-dasharray="none" points="419.761,114.181 425.919,114.181 "/>
      <polyline fill="none" stroke="#000000" stroke-width="3.0pt" stroke-dasharray="none" points="419.761,122.375 425.919,122.375 "/>
<g>
</g>
</g>
<g id="ID000007" clip-path="url(#ID000001)" >
<g>
</g>
</g>
</g><g id="ID000008" >
  <g transform="translate(296.400,417.276)">
    <g transform="rotate(-0.0)">
      <text x="0.000" y="0.000" font-family="Helvetica" text-anchor="middle" font-size="26pt" fill="#000000" >weight index</text>
    </g>
  </g>
</g>
<g id="ID000009" >
  <g transform="translate(41.019,189.252)">
    <g transform="rotate(-90.0)">
      <text x="0.000" y="0.000" font-family="Helvetica" text-anchor="middle" font-size="26pt" fill="#000000" >weights</text>
    </g>
  </g>
</g>
<g id="ID000010" >
</g>
<g id="ID000011" >
</g>
<g id="ID000012" >
</g>
    </g>
    <g>
      <polyline fill="none" stroke="#000000" stroke-width="0.5pt" stroke-dasharray="none" points="114.987,345.000 114.987,340.802 "/>
      <polyline fill="none" stroke="#000000" stroke-width="0.5pt" stroke-dasharray="none" points="254.920,345.000 254.920,340.802 "/>
      <polyline fill="none" stroke="#000000" stroke-width="0.5pt" stroke-dasharray="none" points="422.840,345.000 422.840,340.802 "/>
      <polyline fill="none" stroke="#000000" stroke-width="0.5pt" stroke-dasharray="none" points="87.000,345.000 506.800,345.000 "/>
  <g transform="translate(114.987,381.950)">
    <g transform="rotate(-0.0)">
      <text x="0.000" y="0.000" font-family="Helvetica" text-anchor="middle" font-size="26pt" fill="#000000" >1</text>
    </g>
  </g>
  <g transform="translate(254.920,381.950)">
    <g transform="rotate(-0.0)">
      <text x="0.000" y="0.000" font-family="Helvetica" text-anchor="middle" font-size="26pt" fill="#000000" >6</text>
    </g>
  </g>
  <g transform="translate(422.840,381.950)">
    <g transform="rotate(-0.0)">
      <text x="0.000" y="0.000" font-family="Helvetica" text-anchor="middle" font-size="26pt" fill="#000000" >12</text>
    </g>
  </g>
      <polyline fill="none" stroke="#000000" stroke-width="0.5pt" stroke-dasharray="none" points="87.000,345.000 91.198,345.000 "/>
      <polyline fill="none" stroke="#000000" stroke-width="0.5pt" stroke-dasharray="none" points="87.000,240.500 91.198,240.500 "/>
      <polyline fill="none" stroke="#000000" stroke-width="0.5pt" stroke-dasharray="none" points="87.000,136.000 91.198,136.000 "/>
      <polyline fill="none" stroke="#000000" stroke-width="0.5pt" stroke-dasharray="none" points="87.000,31.500 91.198,31.500 "/>
      <polyline fill="none" stroke="#000000" stroke-width="0.5pt" stroke-dasharray="none" points="87.000,345.000 87.000,31.500 "/>
  <g transform="translate(78.604,356.700)">
    <g transform="rotate(-0.0)">
      <text x="0.000" y="0.000" font-family="Helvetica" text-anchor="end" font-size="26pt" fill="#000000" >-4</text>
    </g>
  </g>
  <g transform="translate(78.604,252.200)">
    <g transform="rotate(-0.0)">
      <text x="0.000" y="0.000" font-family="Helvetica" text-anchor="end" font-size="26pt" fill="#000000" >-2</text>
    </g>
  </g>
  <g transform="translate(78.604,147.700)">
    <g transform="rotate(-0.0)">
      <text x="0.000" y="0.000" font-family="Helvetica" text-anchor="end" font-size="26pt" fill="#000000" >0</text>
    </g>
  </g>
  <g transform="translate(78.604,43.200)">
    <g transform="rotate(-0.0)">
      <text x="0.000" y="0.000" font-family="Helvetica" text-anchor="end" font-size="26pt" fill="#000000" >2</text>
    </g>
  </g>
      <polyline fill="none" stroke="#000000" stroke-width="0.5pt" stroke-dasharray="none" points="87.000,345.000 87.000,341.865 "/>
      <polyline fill="none" stroke="#000000" stroke-width="0.5pt" stroke-dasharray="none" points="87.000,345.000 87.000,341.865 "/>
      <polyline fill="none" stroke="#000000" stroke-width="0.5pt" stroke-dasharray="none" points="87.000,345.000 87.000,341.865 "/>
      <polyline fill="none" stroke="#000000" stroke-width="0.5pt" stroke-dasharray="none" points="87.000,345.000 87.000,345.000 "/>
    </g>
  </g>
  <g id ="ID000013">
  <clipPath id="ID000014">
    <rect x="285.750" y="38.750" width="216.500" height="27.000"/>
  </clipPath>
      <polygon fill="#ffffff" fill-opacity="1.00" stroke="none" stroke-width="0.5pt" stroke-opacity="1.00" stroke-dasharray="none" points="285.750,65.750 502.250,65.750 502.250,38.750 285.750,38.750 "/>
      <polygon fill="#ffffff" fill-opacity="1.00" stroke="none" stroke-width="0.5pt" stroke-opacity="1.00" stroke-dasharray="none" points="285.750,38.750 502.250,38.750 502.250,38.750 285.750,38.750 "/>
      <polygon fill="#ffffff" fill-opacity="1.00" stroke="none" stroke-width="0.5pt" stroke-opacity="1.00" stroke-dasharray="none" points="285.750,65.750 285.750,65.750 285.750,38.750 285.750,38.750 "/>
    <g>
<g id="ID000015" >
  <g transform="translate(335.365,58.650)">
    <g transform="rotate(-0.0)">
      <text x="0.000" y="0.000" font-family="Helvetica" text-anchor="start" font-size="12pt" fill="#000000" >LDPM Prior dim 3 h dim 2</text>
    </g>
  </g>
</g>
<g id="ID000016" clip-path="url(#ID000014)" >
<g id="ID000017" clip-path="url(#ID000014)" >
      <polygon fill="#00008f" fill-opacity="1.00" stroke="#000000" stroke-width="0.5pt" stroke-opacity="1.00" stroke-dasharray="none" points="293.250,60.738 293.250,43.763 330.750,43.763 330.750,60.738 293.250,60.738 "/>
</g>
</g><g id="ID000018" >
</g>
<g id="ID000019" >
</g>
<g id="ID000020" >
</g>
    </g>
    <g>
      <polyline fill="none" stroke="#000000" stroke-width="0.5pt" stroke-dasharray="none" points="285.750,65.750 502.250,65.750 "/>
      <polyline fill="none" stroke="#000000" stroke-width="0.5pt" stroke-dasharray="none" points="285.750,38.750 502.250,38.750 "/>
      <polyline fill="none" stroke="#000000" stroke-width="0.5pt" stroke-dasharray="none" points="285.750,65.750 285.750,38.750 "/>
      <polyline fill="none" stroke="#000000" stroke-width="0.5pt" stroke-dasharray="none" points="502.250,65.750 502.250,38.750 "/>
      <polyline fill="none" stroke="#000000" stroke-width="0.5pt" stroke-dasharray="none" points="285.750,65.750 285.750,65.480 "/>
      <polyline fill="none" stroke="#000000" stroke-width="0.5pt" stroke-dasharray="none" points="285.750,65.750 285.750,65.750 "/>
    </g>
  </g>
  </g>
</svg>
